<mxfile host="app.diagrams.net" modified="2023-05-02T09:43:40.816Z" agent="Mozilla/5.0 (Windows NT 10.0; Win64; x64) AppleWebKit/537.36 (KHTML, like Gecko) Chrome/112.0.0.0 Safari/537.36" etag="BYCueAs952ePccKhu-jz" version="21.2.2" type="github">
  <diagram id="prtHgNgQTEPvFCAcTncT" name="Page-1">
    <mxGraphModel dx="794" dy="470" grid="1" gridSize="10" guides="1" tooltips="1" connect="1" arrows="1" fold="1" page="1" pageScale="1" pageWidth="827" pageHeight="1169" math="0" shadow="0">
      <root>
        <mxCell id="0" />
        <mxCell id="1" parent="0" />
        <mxCell id="zbF90gA1H5KHamxqbV0r-139" value="" style="rounded=0;whiteSpace=wrap;html=1;fillColor=#dae8fc;strokeColor=#6c8ebf;" vertex="1" parent="1">
          <mxGeometry x="324.03" y="65.36" width="420" height="294.64" as="geometry" />
        </mxCell>
        <mxCell id="zbF90gA1H5KHamxqbV0r-12" value="" style="ellipse;whiteSpace=wrap;html=1;aspect=fixed;fillColor=#E6E6FF;strokeColor=#FFFFFF;" vertex="1" parent="1">
          <mxGeometry x="450" y="173" width="158" height="158" as="geometry" />
        </mxCell>
        <mxCell id="zbF90gA1H5KHamxqbV0r-15" value="" style="group" vertex="1" connectable="0" parent="1">
          <mxGeometry x="80" y="80" width="60" height="58" as="geometry" />
        </mxCell>
        <mxCell id="zbF90gA1H5KHamxqbV0r-5" value="" style="shape=image;verticalLabelPosition=bottom;labelBackgroundColor=default;verticalAlign=top;aspect=fixed;imageAspect=0;image=data:image/png,iVBORw0KGgoAAAANSUhEUgAAANEAAABECAYAAAAfkdAfAAAAAXNSR0IArs4c6QAAAARnQU1BAACxjwv8YQUAAAAJcEhZcwAAFxEAABcRAcom8z8AAA5uSURBVHhe7Z0LbFvndce9pC3SJF2W7FHPWxe3SIsscdDY5H1fkqIkSnJqLIFnWeS9l2+JkvV+2l43lAjWoBiyzW3nWuTlS5QoiaQlS7LlWLYsyZIly7JTu2kSCGgadzGSNJuXNnHkp0jefR9NI4/RRZx4jkWdH/AHKUqEyO87555zvtddAQAAAAAAAAAAAAAAAAAAAAAAAAAAAABLgtLS+FcyTz8Ga/Svop2xhz76e13pzvsLXd4HSt2vfOw9G1x77y1VlLszP6bRuSe+lHkKAEsLbOi6htCfENb4SsYaepSqH/p6aXX8fmKzR0sb5c2kGHRQYrCBlfw23t5j4p1RO2UN2SjR106Y/IOk6B/hnLHD2or+Ht7VN0abw7tJMfAybYscZp3xEc7eK3OOaBdlCgxTkn+KdUb38ZX97Zw94qMEX4CQfOO0szvAO6J1tLWrTm2S/4US/M/y5d0q3tVVoBa869cJQUFnDa3EDkqgR/x5Mx8fAG4ftBhch4w/j7F2P0NbAptpKdDE2iJu3ta9Q+vqe15XNbRfWzU4w5f3z2tcg+9rXYOX8+tHrxTUHz5vaDp6CT1eyq8fS+bXH04UNE5cKWyeThRvnUs+9Q+nleKtx5HmlOLWmVTx1heR5pLrt/382mtts+j1WfS3J5Prt+PXTqCfjymGlhn02okkei/+e6WwaSpZ2HgkUdg0nTA0TV3Jrzuc0G0ZvqqvHU3qaw/+N+eMnucc8V+xjthv+Kr+dlII9JKivBc58/OUENyoEuSnaauPQ99xNf6+KhTtVC7vl9NfHgA+LTilUotegrJ2/j2KCM9Tlo4IJQVGuPLoa3zF7v/UVe9/BxnkawUN4wsFDRPnkeEqhQ3jSnHLTNrgS7a+qGCnuJN13TnxZ0WPqSL02fOqRxL6+tHLeTUjC5w99hZrj55l7NEJFAF/giLbv6IoyDOC/+G1SLqGHRDFgBUrqLL21Yw5vJaRQkbaGqkizR0R2t41wtp7XkOp0tn8hrH3ipqnLxW3zSXShociQMk2bHQnkBG+mNYnjTM3dCr9uH77qfR3LGw6mkQXihRyriRr701oXAO/5Z2xPsrkm2QEbythkkXC7GF01aGViqL8UaZ5gVzCrSh38Vu6H8S1ir6y87taW1DDl0d/hGqQAY1rzy90NcNn9Q1j76P0agFfkXGahB0FO8z/NTBQJp1MoRQzZWg+qmgqBxW+vO88aQ2/RJh8JyiLfxtnDqOotfNha2jinkw3AEsRRupcoxaDBCnJFpSSdaDaZR7VK/MoFbuAUrGPpV/gMJ9PuP1w1MLtmVeLIpZz92XOGf+d2uQ9zUqBrbw1VEDZPZTK+yLUV3cyLq/3y5Qt+G3SJmuQw+xAHTmrqez7dV7NCyjCHEsWbzuZTstAt0c4YqHInipsmkxx5X0oDdzzO8LkjZKC54fqzbvW6CTfI5muA74oDFLnfeqyn32DlIL5pNX3A0pKDxW/wlcMfKCvOXg5HWlaZ6/VL6hDs3U06PYpPYiBUuX8utF0CshYw1OonuonUXqNL36ZbgVuF1pn799y5i4HY+mUWUf0JV31/vcKmiYvXS+KQXe+8LB8fv3hFHKoFCH65wmjJ8xZQzSey8p0M3ArwYMD7omJLxVXdzxO2zq+z9i7X0E593mUfyeKcaqGCt1sHQVaGipsnMS1lMJYIgpyqGnCKP8TqmW/WRqPf2xFBvAZoW3BJyhjQKIk3zBr63mVd/RdRenaVZwaQJqWW8L9qa8/pHAVfQlC8CVIQf4ZY+1+VGXy/lnGHIBPi6rU+wBfJn8H1TnPElLgIGXu/HVe9YFEegh668msHQDKHV2bBJ5FtdOAojZ63ka1U6dK9FZmzAP4Q9CbYl9V2wPf4s3hDaQYmEZXpDP6utGLeN4mW2ODcl94RQXviKVQZPq92rTrp3iSPGMuwCehnb6HcGFJS0E3Y+06o6s+cMHQfBTVOjBYADqt6OsOKYyjV0FRCUWnXe6M2QDX4Vzhv6HMoQrK0nGAdUQv5jeMJ4rbjqcXZoJA14UzEuxMhBhIqsraR0lR/uuMCS1vKFvwKULyPUebw6+w5TGlKL2KGUbbQDdWft1YijZ3LhJG+W1CkG0ZU1qeMKK8iRTkCdbW/a6mcghFn6WxChr0xQovjsVLjPjyPkVd5nkJpXjbluWGRFT/5JGCb4axRd7VbdmfKGk7rjyFGidbo4FA2WRoOaqwjpiiMnnPUkb/s/FP7PTNWeJx5W5ddewRWvT3Iwd6S1u1L1XUOpvCV5dsDQUC3UjpiNQ2m+Ic8aTK6DmLL8wql/fejKnlLpSx5+uM6G8gxcA7XHl/orBhAjkQTJqCPrvwlgyVUb6kErwn6Vxf2Kqzhu4prhxYTRh987TY8Z6+/lAKtiGAPq+KUR2trRpWCJPnHULy7diwIcejEWmWG0nR9zLr3J3AZwdkaxQQ6GaEB6MKGiYU2tx5VW1sn2Ic/jU5u8v2KWtoJSHK/06IwTPaqr0pGIkD3Qrh2qio7ZjCWruThFGeZ2yhUqml876M2eUOeCU2a/arSUHeRYrBhby6Qzl8TgHodgvX1bQtkiCFwJuk4G99zOl7KGN6uQW6SjyuNnn3IX1gaJ5CYRjWxIFujYrajqc4R2yRNPneZCR/66ZNsa9mzC63UG8MfIsyef+REn349JhUSdtc1gYBgW5KKJ0rqB9LMo7eRcLkO8OjdC5nnYis6/pjlNJVEIL/HOeMpg8czNooINBNCI/O4QMxKSn4vlrw/urvagZXWd2h3DxpKB6P382ag08TojxKmTuThqbJrI0CAt2MDC1HU7xrIEkJgUVK8D3HOnpW5fSuWHy4CC3IP1SXed7WVu2DwQXQ5xKeJsGpHGvrvaA2euf48g4V3tSZMbfcxO1W7vre9uEHSZNniLJ2JfJqDsCiU9BnEp6oL2icTPKuPYsqk/e3pOAvXSd2/WXG1HIfteDbSAjyfkoM4lNfsjYSCHRj/VwpaDqSYBzRRVIMnaMlXy1fHv5OxryWBxtc3ns5S2A9YZKHGVu3YmieTI/1Z28wEOgjQnZSiByIc8YWUTbzJmn2/YCzdDyeMa3lB7FZLlab2mdRRLqQV30g3UBZGw4EQkqncA3jCQ5FIMocnsEORFl74dwFfNMposwzpC7z/I8eORLMH4GyCU/O6+sOXWHtvedIc/AF0hxoLHW7s951cNlCCu1NpCCfIsVAIq/6hawNCVp+wtHH0Dyd0FQNJTh790laCv2Ys/k2wuGON2Ctw79qndFTQwjyG6yjNz2Ema1hQctDxa2zSX3t6BXOEfsvSgq2M/bAJkaIPJwxF+AP8aSx3aAyyl51WftbmopBfIcBmFNaJsIDTIXNU4qmat9l1tHzS1L0j1JSpxFlKI+xjsGvZUwE+LTQtsgThMm7kzZ3vM7aepP66oOZhobt5LmmotZjir5+LME6ohdYe/cYSu3jlOSp10jyNw2G5++D9O1zgM9loKztqwnjzgq1yXOatnYp+toRJb9+NGtngJaOSradVAwt0wld9QsLKGVbIC2hN2hRruPEEF1kC34jYwLArYRuiqVPSlUbPWFSCszzzrhiaJpMFePTgrJ0EujOVHHbHL4XLB5Ausg642cZc2cXJYTqIV27zTAm76O06KskjZ4Rxto5p3UN4tW8qIOOp0d0snUe6IsQvmn0SZSuTSt5NSNXdFV7zzD2nmlU68RVxoBpnTFAaSqW0XKdOxVebH+MFnycusy7hxDkAY1rYCFvy3CqpBWP7kH99EWoqGXmSkHDxEVt5dBFztl3mbV1nWIsXRHa7K/D2QQj7foLmOe5Q7FaJ+5RmwM6FJ2eQVe7IC11HNWU91/VuIYSBfVj1w7JxwMTMDhxC3QqHWXwOdn4nlE42qAaR0EXsN/wFX1zlDXyHOvotPGVXY+tFXbC0PRSRVcdX8lZ5MdpyS+qTfJPUCoxzjoi8/qa/Ze0VUOp4tbj6RQQhtBvTobmyasFTZMLqK55l3fufoO2hl9lbd37KHNou1rwlaGM4Em89cVqzdENcssZtzv+FVqKPaIWvOvXGds3EyZvD4pYx1G0GtW6BlD6sTeJN3rhY5iKWo5lNaDlIjwAUNQyvVjQMI4uOHvfYxy9lygxqKjKPEdUpvYORgrUkObg06zDvwor08TAcoW2dPwVytPXcPYwn76SGuX/YG09Yc4RO0PbIguaLcPn8utGk8i5EgWNY4mSbdcOWkFRbMkcQoknMj9Mv2bR8xPpOTdD09QVfd1oQrdlWOEr+hXK3HGJsXb/graFB2hr1y4UvU2MFGTVZTDsDNwk+MALLF1l72rG4tcSJr9ICXIFY43UIKebJYXABOfsHde4Bo6wjuhl1hm7rK89eK6wfnwxv37san7DeLJkK0oXW2dShpaZBIpsyfXbP3S44pbZ5LW7YXx4G82SthPoPchB8d99pG7Dxv/J7SLIGRJFrbPXbsWJnQKfW4HeU9g4hZx9/KKu+sBCfu3oor72UKqwcfz3+XWH3sirGXmdr9jzS9bR+xpOwQjR56fNgX9eW+Y1o+hi+W7ZjtVYmSYAgP8frs+e44lg7GT4btd0k++hgpo9f8qa/Qy52fMj5GBOSgrYUZ3wfZQyRmlzOMg5Y//GO6Mh2tz5OiUED7L2aFxXNRTRVg1MkpaOd1hL1zxrixxGqdMEV777ZbximbJ0fsCVx4/oKgeO8ZV7TmtdQ6+TlvC7tDXyKmPv2s87YmG+fPePOXssgqLGPvR/f6oWPLvUok/i7V2SpqKX1Ti6RUYKPYP+50bC6FczjugaPDqW/jIAsFTAW+PTd8XQ7bw/81IanEZiR3xC2PUg/lnnnrgfD4ZQZaHVT9oDf45fU7niD+iqQyvxUH566wgSfh2Df4fqka/dqIB3u913ZZ4CAAAAAAAAAAAAAAAAAAAAAAAAAAAAwJ3AihX/C27th3FV6LjcAAAAAElFTkSuQmCC;" vertex="1" parent="zbF90gA1H5KHamxqbV0r-15">
          <mxGeometry y="37.179487179487175" width="51.22682572948573" height="16.666873349123875" as="geometry" />
        </mxCell>
        <mxCell id="zbF90gA1H5KHamxqbV0r-3" value="" style="shape=mxgraph.cisco.people.standing_woman;html=1;pointerEvents=1;dashed=0;fillColor=#036897;strokeColor=#ffffff;strokeWidth=2;verticalLabelPosition=bottom;verticalAlign=top;align=center;outlineConnect=0;" vertex="1" parent="zbF90gA1H5KHamxqbV0r-15">
          <mxGeometry x="18.46183630906743" width="15.338136184057634" height="46.1025641025641" as="geometry" />
        </mxCell>
        <mxCell id="zbF90gA1H5KHamxqbV0r-16" value="" style="group" vertex="1" connectable="0" parent="1">
          <mxGeometry x="91" y="209" width="86.06" height="78" as="geometry" />
        </mxCell>
        <mxCell id="zbF90gA1H5KHamxqbV0r-10" value="" style="shape=image;verticalLabelPosition=bottom;labelBackgroundColor=default;verticalAlign=top;aspect=fixed;imageAspect=0;image=data:image/png,iVBORw0KGgoAAAANSUhEUgAAANEAAABECAYAAAAfkdAfAAAAAXNSR0IArs4c6QAAAARnQU1BAACxjwv8YQUAAAAJcEhZcwAAFxEAABcRAcom8z8AAA5uSURBVHhe7Z0LbFvndce9pC3SJF2W7FHPWxe3SIsscdDY5H1fkqIkSnJqLIFnWeS9l2+JkvV+2l43lAjWoBiyzW3nWuTlS5QoiaQlS7LlWLYsyZIly7JTu2kSCGgadzGSNJuXNnHkp0jefR9NI4/RRZx4jkWdH/AHKUqEyO87555zvtddAQAAAAAAAAAAAAAAAAAAAAAAAAAAAABLgtLS+FcyTz8Ga/Svop2xhz76e13pzvsLXd4HSt2vfOw9G1x77y1VlLszP6bRuSe+lHkKAEsLbOi6htCfENb4SsYaepSqH/p6aXX8fmKzR0sb5c2kGHRQYrCBlfw23t5j4p1RO2UN2SjR106Y/IOk6B/hnLHD2or+Ht7VN0abw7tJMfAybYscZp3xEc7eK3OOaBdlCgxTkn+KdUb38ZX97Zw94qMEX4CQfOO0szvAO6J1tLWrTm2S/4US/M/y5d0q3tVVoBa869cJQUFnDa3EDkqgR/x5Mx8fAG4ftBhch4w/j7F2P0NbAptpKdDE2iJu3ta9Q+vqe15XNbRfWzU4w5f3z2tcg+9rXYOX8+tHrxTUHz5vaDp6CT1eyq8fS+bXH04UNE5cKWyeThRvnUs+9Q+nleKtx5HmlOLWmVTx1heR5pLrt/382mtts+j1WfS3J5Prt+PXTqCfjymGlhn02okkei/+e6WwaSpZ2HgkUdg0nTA0TV3Jrzuc0G0ZvqqvHU3qaw/+N+eMnucc8V+xjthv+Kr+dlII9JKivBc58/OUENyoEuSnaauPQ99xNf6+KhTtVC7vl9NfHgA+LTilUotegrJ2/j2KCM9Tlo4IJQVGuPLoa3zF7v/UVe9/BxnkawUN4wsFDRPnkeEqhQ3jSnHLTNrgS7a+qGCnuJN13TnxZ0WPqSL02fOqRxL6+tHLeTUjC5w99hZrj55l7NEJFAF/giLbv6IoyDOC/+G1SLqGHRDFgBUrqLL21Yw5vJaRQkbaGqkizR0R2t41wtp7XkOp0tn8hrH3ipqnLxW3zSXShociQMk2bHQnkBG+mNYnjTM3dCr9uH77qfR3LGw6mkQXihRyriRr701oXAO/5Z2xPsrkm2QEbythkkXC7GF01aGViqL8UaZ5gVzCrSh38Vu6H8S1ir6y87taW1DDl0d/hGqQAY1rzy90NcNn9Q1j76P0agFfkXGahB0FO8z/NTBQJp1MoRQzZWg+qmgqBxW+vO88aQ2/RJh8JyiLfxtnDqOotfNha2jinkw3AEsRRupcoxaDBCnJFpSSdaDaZR7VK/MoFbuAUrGPpV/gMJ9PuP1w1MLtmVeLIpZz92XOGf+d2uQ9zUqBrbw1VEDZPZTK+yLUV3cyLq/3y5Qt+G3SJmuQw+xAHTmrqez7dV7NCyjCHEsWbzuZTstAt0c4YqHInipsmkxx5X0oDdzzO8LkjZKC54fqzbvW6CTfI5muA74oDFLnfeqyn32DlIL5pNX3A0pKDxW/wlcMfKCvOXg5HWlaZ6/VL6hDs3U06PYpPYiBUuX8utF0CshYw1OonuonUXqNL36ZbgVuF1pn799y5i4HY+mUWUf0JV31/vcKmiYvXS+KQXe+8LB8fv3hFHKoFCH65wmjJ8xZQzSey8p0M3ArwYMD7omJLxVXdzxO2zq+z9i7X0E593mUfyeKcaqGCt1sHQVaGipsnMS1lMJYIgpyqGnCKP8TqmW/WRqPf2xFBvAZoW3BJyhjQKIk3zBr63mVd/RdRenaVZwaQJqWW8L9qa8/pHAVfQlC8CVIQf4ZY+1+VGXy/lnGHIBPi6rU+wBfJn8H1TnPElLgIGXu/HVe9YFEegh668msHQDKHV2bBJ5FtdOAojZ63ka1U6dK9FZmzAP4Q9CbYl9V2wPf4s3hDaQYmEZXpDP6utGLeN4mW2ODcl94RQXviKVQZPq92rTrp3iSPGMuwCehnb6HcGFJS0E3Y+06o6s+cMHQfBTVOjBYADqt6OsOKYyjV0FRCUWnXe6M2QDX4Vzhv6HMoQrK0nGAdUQv5jeMJ4rbjqcXZoJA14UzEuxMhBhIqsraR0lR/uuMCS1vKFvwKULyPUebw6+w5TGlKL2KGUbbQDdWft1YijZ3LhJG+W1CkG0ZU1qeMKK8iRTkCdbW/a6mcghFn6WxChr0xQovjsVLjPjyPkVd5nkJpXjbluWGRFT/5JGCb4axRd7VbdmfKGk7rjyFGidbo4FA2WRoOaqwjpiiMnnPUkb/s/FP7PTNWeJx5W5ddewRWvT3Iwd6S1u1L1XUOpvCV5dsDQUC3UjpiNQ2m+Ic8aTK6DmLL8wql/fejKnlLpSx5+uM6G8gxcA7XHl/orBhAjkQTJqCPrvwlgyVUb6kErwn6Vxf2Kqzhu4prhxYTRh987TY8Z6+/lAKtiGAPq+KUR2trRpWCJPnHULy7diwIcejEWmWG0nR9zLr3J3AZwdkaxQQ6GaEB6MKGiYU2tx5VW1sn2Ic/jU5u8v2KWtoJSHK/06IwTPaqr0pGIkD3Qrh2qio7ZjCWruThFGeZ2yhUqml876M2eUOeCU2a/arSUHeRYrBhby6Qzl8TgHodgvX1bQtkiCFwJuk4G99zOl7KGN6uQW6SjyuNnn3IX1gaJ5CYRjWxIFujYrajqc4R2yRNPneZCR/66ZNsa9mzC63UG8MfIsyef+REn349JhUSdtc1gYBgW5KKJ0rqB9LMo7eRcLkO8OjdC5nnYis6/pjlNJVEIL/HOeMpg8czNooINBNCI/O4QMxKSn4vlrw/urvagZXWd2h3DxpKB6P382ag08TojxKmTuThqbJrI0CAt2MDC1HU7xrIEkJgUVK8D3HOnpW5fSuWHy4CC3IP1SXed7WVu2DwQXQ5xKeJsGpHGvrvaA2euf48g4V3tSZMbfcxO1W7vre9uEHSZNniLJ2JfJqDsCiU9BnEp6oL2icTPKuPYsqk/e3pOAvXSd2/WXG1HIfteDbSAjyfkoM4lNfsjYSCHRj/VwpaDqSYBzRRVIMnaMlXy1fHv5OxryWBxtc3ns5S2A9YZKHGVu3YmieTI/1Z28wEOgjQnZSiByIc8YWUTbzJmn2/YCzdDyeMa3lB7FZLlab2mdRRLqQV30g3UBZGw4EQkqncA3jCQ5FIMocnsEORFl74dwFfNMposwzpC7z/I8eORLMH4GyCU/O6+sOXWHtvedIc/AF0hxoLHW7s951cNlCCu1NpCCfIsVAIq/6hawNCVp+wtHH0Dyd0FQNJTh790laCv2Ys/k2wuGON2Ctw79qndFTQwjyG6yjNz2Ema1hQctDxa2zSX3t6BXOEfsvSgq2M/bAJkaIPJwxF+AP8aSx3aAyyl51WftbmopBfIcBmFNaJsIDTIXNU4qmat9l1tHzS1L0j1JSpxFlKI+xjsGvZUwE+LTQtsgThMm7kzZ3vM7aepP66oOZhobt5LmmotZjir5+LME6ohdYe/cYSu3jlOSp10jyNw2G5++D9O1zgM9loKztqwnjzgq1yXOatnYp+toRJb9+NGtngJaOSradVAwt0wld9QsLKGVbIC2hN2hRruPEEF1kC34jYwLArYRuiqVPSlUbPWFSCszzzrhiaJpMFePTgrJ0EujOVHHbHL4XLB5Ausg642cZc2cXJYTqIV27zTAm76O06KskjZ4Rxto5p3UN4tW8qIOOp0d0snUe6IsQvmn0SZSuTSt5NSNXdFV7zzD2nmlU68RVxoBpnTFAaSqW0XKdOxVebH+MFnycusy7hxDkAY1rYCFvy3CqpBWP7kH99EWoqGXmSkHDxEVt5dBFztl3mbV1nWIsXRHa7K/D2QQj7foLmOe5Q7FaJ+5RmwM6FJ2eQVe7IC11HNWU91/VuIYSBfVj1w7JxwMTMDhxC3QqHWXwOdn4nlE42qAaR0EXsN/wFX1zlDXyHOvotPGVXY+tFXbC0PRSRVcdX8lZ5MdpyS+qTfJPUCoxzjoi8/qa/Ze0VUOp4tbj6RQQhtBvTobmyasFTZMLqK55l3fufoO2hl9lbd37KHNou1rwlaGM4Em89cVqzdENcssZtzv+FVqKPaIWvOvXGds3EyZvD4pYx1G0GtW6BlD6sTeJN3rhY5iKWo5lNaDlIjwAUNQyvVjQMI4uOHvfYxy9lygxqKjKPEdUpvYORgrUkObg06zDvwor08TAcoW2dPwVytPXcPYwn76SGuX/YG09Yc4RO0PbIguaLcPn8utGk8i5EgWNY4mSbdcOWkFRbMkcQoknMj9Mv2bR8xPpOTdD09QVfd1oQrdlWOEr+hXK3HGJsXb/graFB2hr1y4UvU2MFGTVZTDsDNwk+MALLF1l72rG4tcSJr9ICXIFY43UIKebJYXABOfsHde4Bo6wjuhl1hm7rK89eK6wfnwxv37san7DeLJkK0oXW2dShpaZBIpsyfXbP3S44pbZ5LW7YXx4G82SthPoPchB8d99pG7Dxv/J7SLIGRJFrbPXbsWJnQKfW4HeU9g4hZx9/KKu+sBCfu3oor72UKqwcfz3+XWH3sirGXmdr9jzS9bR+xpOwQjR56fNgX9eW+Y1o+hi+W7ZjtVYmSYAgP8frs+e44lg7GT4btd0k++hgpo9f8qa/Qy52fMj5GBOSgrYUZ3wfZQyRmlzOMg5Y//GO6Mh2tz5OiUED7L2aFxXNRTRVg1MkpaOd1hL1zxrixxGqdMEV777ZbximbJ0fsCVx4/oKgeO8ZV7TmtdQ6+TlvC7tDXyKmPv2s87YmG+fPePOXssgqLGPvR/f6oWPLvUok/i7V2SpqKX1Ti6RUYKPYP+50bC6FczjugaPDqW/jIAsFTAW+PTd8XQ7bw/81IanEZiR3xC2PUg/lnnnrgfD4ZQZaHVT9oDf45fU7niD+iqQyvxUH566wgSfh2Df4fqka/dqIB3u913ZZ4CAAAAAAAAAAAAAAAAAAAAAAAAAAAAwJ3AihX/C27th3FV6LjcAAAAAElFTkSuQmCC;" vertex="1" parent="zbF90gA1H5KHamxqbV0r-16">
          <mxGeometry y="50" width="86.06" height="28" as="geometry" />
        </mxCell>
        <mxCell id="zbF90gA1H5KHamxqbV0r-11" value="" style="shape=mxgraph.cisco.people.standing_woman;html=1;pointerEvents=1;dashed=0;fillColor=#036897;strokeColor=#ffffff;strokeWidth=2;verticalLabelPosition=bottom;verticalAlign=top;align=center;outlineConnect=0;" vertex="1" parent="zbF90gA1H5KHamxqbV0r-16">
          <mxGeometry x="32.03" width="22" height="62" as="geometry" />
        </mxCell>
        <mxCell id="zbF90gA1H5KHamxqbV0r-17" value="" style="group" vertex="1" connectable="0" parent="1">
          <mxGeometry x="13" y="26" width="86.05999999999997" height="77" as="geometry" />
        </mxCell>
        <mxCell id="zbF90gA1H5KHamxqbV0r-8" value="" style="shape=image;verticalLabelPosition=bottom;labelBackgroundColor=default;verticalAlign=top;aspect=fixed;imageAspect=0;image=data:image/png,iVBORw0KGgoAAAANSUhEUgAAANEAAABECAYAAAAfkdAfAAAAAXNSR0IArs4c6QAAAARnQU1BAACxjwv8YQUAAAAJcEhZcwAAFxEAABcRAcom8z8AAA5uSURBVHhe7Z0LbFvndce9pC3SJF2W7FHPWxe3SIsscdDY5H1fkqIkSnJqLIFnWeS9l2+JkvV+2l43lAjWoBiyzW3nWuTlS5QoiaQlS7LlWLYsyZIly7JTu2kSCGgadzGSNJuXNnHkp0jefR9NI4/RRZx4jkWdH/AHKUqEyO87555zvtddAQAAAAAAAAAAAAAAAAAAAAAAAAAAAABLgtLS+FcyTz8Ga/Svop2xhz76e13pzvsLXd4HSt2vfOw9G1x77y1VlLszP6bRuSe+lHkKAEsLbOi6htCfENb4SsYaepSqH/p6aXX8fmKzR0sb5c2kGHRQYrCBlfw23t5j4p1RO2UN2SjR106Y/IOk6B/hnLHD2or+Ht7VN0abw7tJMfAybYscZp3xEc7eK3OOaBdlCgxTkn+KdUb38ZX97Zw94qMEX4CQfOO0szvAO6J1tLWrTm2S/4US/M/y5d0q3tVVoBa869cJQUFnDa3EDkqgR/x5Mx8fAG4ftBhch4w/j7F2P0NbAptpKdDE2iJu3ta9Q+vqe15XNbRfWzU4w5f3z2tcg+9rXYOX8+tHrxTUHz5vaDp6CT1eyq8fS+bXH04UNE5cKWyeThRvnUs+9Q+nleKtx5HmlOLWmVTx1heR5pLrt/382mtts+j1WfS3J5Prt+PXTqCfjymGlhn02okkei/+e6WwaSpZ2HgkUdg0nTA0TV3Jrzuc0G0ZvqqvHU3qaw/+N+eMnucc8V+xjthv+Kr+dlII9JKivBc58/OUENyoEuSnaauPQ99xNf6+KhTtVC7vl9NfHgA+LTilUotegrJ2/j2KCM9Tlo4IJQVGuPLoa3zF7v/UVe9/BxnkawUN4wsFDRPnkeEqhQ3jSnHLTNrgS7a+qGCnuJN13TnxZ0WPqSL02fOqRxL6+tHLeTUjC5w99hZrj55l7NEJFAF/giLbv6IoyDOC/+G1SLqGHRDFgBUrqLL21Yw5vJaRQkbaGqkizR0R2t41wtp7XkOp0tn8hrH3ipqnLxW3zSXShociQMk2bHQnkBG+mNYnjTM3dCr9uH77qfR3LGw6mkQXihRyriRr701oXAO/5Z2xPsrkm2QEbythkkXC7GF01aGViqL8UaZ5gVzCrSh38Vu6H8S1ir6y87taW1DDl0d/hGqQAY1rzy90NcNn9Q1j76P0agFfkXGahB0FO8z/NTBQJp1MoRQzZWg+qmgqBxW+vO88aQ2/RJh8JyiLfxtnDqOotfNha2jinkw3AEsRRupcoxaDBCnJFpSSdaDaZR7VK/MoFbuAUrGPpV/gMJ9PuP1w1MLtmVeLIpZz92XOGf+d2uQ9zUqBrbw1VEDZPZTK+yLUV3cyLq/3y5Qt+G3SJmuQw+xAHTmrqez7dV7NCyjCHEsWbzuZTstAt0c4YqHInipsmkxx5X0oDdzzO8LkjZKC54fqzbvW6CTfI5muA74oDFLnfeqyn32DlIL5pNX3A0pKDxW/wlcMfKCvOXg5HWlaZ6/VL6hDs3U06PYpPYiBUuX8utF0CshYw1OonuonUXqNL36ZbgVuF1pn799y5i4HY+mUWUf0JV31/vcKmiYvXS+KQXe+8LB8fv3hFHKoFCH65wmjJ8xZQzSey8p0M3ArwYMD7omJLxVXdzxO2zq+z9i7X0E593mUfyeKcaqGCt1sHQVaGipsnMS1lMJYIgpyqGnCKP8TqmW/WRqPf2xFBvAZoW3BJyhjQKIk3zBr63mVd/RdRenaVZwaQJqWW8L9qa8/pHAVfQlC8CVIQf4ZY+1+VGXy/lnGHIBPi6rU+wBfJn8H1TnPElLgIGXu/HVe9YFEegh668msHQDKHV2bBJ5FtdOAojZ63ka1U6dK9FZmzAP4Q9CbYl9V2wPf4s3hDaQYmEZXpDP6utGLeN4mW2ODcl94RQXviKVQZPq92rTrp3iSPGMuwCehnb6HcGFJS0E3Y+06o6s+cMHQfBTVOjBYADqt6OsOKYyjV0FRCUWnXe6M2QDX4Vzhv6HMoQrK0nGAdUQv5jeMJ4rbjqcXZoJA14UzEuxMhBhIqsraR0lR/uuMCS1vKFvwKULyPUebw6+w5TGlKL2KGUbbQDdWft1YijZ3LhJG+W1CkG0ZU1qeMKK8iRTkCdbW/a6mcghFn6WxChr0xQovjsVLjPjyPkVd5nkJpXjbluWGRFT/5JGCb4axRd7VbdmfKGk7rjyFGidbo4FA2WRoOaqwjpiiMnnPUkb/s/FP7PTNWeJx5W5ddewRWvT3Iwd6S1u1L1XUOpvCV5dsDQUC3UjpiNQ2m+Ic8aTK6DmLL8wql/fejKnlLpSx5+uM6G8gxcA7XHl/orBhAjkQTJqCPrvwlgyVUb6kErwn6Vxf2Kqzhu4prhxYTRh987TY8Z6+/lAKtiGAPq+KUR2trRpWCJPnHULy7diwIcejEWmWG0nR9zLr3J3AZwdkaxQQ6GaEB6MKGiYU2tx5VW1sn2Ic/jU5u8v2KWtoJSHK/06IwTPaqr0pGIkD3Qrh2qio7ZjCWruThFGeZ2yhUqml876M2eUOeCU2a/arSUHeRYrBhby6Qzl8TgHodgvX1bQtkiCFwJuk4G99zOl7KGN6uQW6SjyuNnn3IX1gaJ5CYRjWxIFujYrajqc4R2yRNPneZCR/66ZNsa9mzC63UG8MfIsyef+REn349JhUSdtc1gYBgW5KKJ0rqB9LMo7eRcLkO8OjdC5nnYis6/pjlNJVEIL/HOeMpg8czNooINBNCI/O4QMxKSn4vlrw/urvagZXWd2h3DxpKB6P382ag08TojxKmTuThqbJrI0CAt2MDC1HU7xrIEkJgUVK8D3HOnpW5fSuWHy4CC3IP1SXed7WVu2DwQXQ5xKeJsGpHGvrvaA2euf48g4V3tSZMbfcxO1W7vre9uEHSZNniLJ2JfJqDsCiU9BnEp6oL2icTPKuPYsqk/e3pOAvXSd2/WXG1HIfteDbSAjyfkoM4lNfsjYSCHRj/VwpaDqSYBzRRVIMnaMlXy1fHv5OxryWBxtc3ns5S2A9YZKHGVu3YmieTI/1Z28wEOgjQnZSiByIc8YWUTbzJmn2/YCzdDyeMa3lB7FZLlab2mdRRLqQV30g3UBZGw4EQkqncA3jCQ5FIMocnsEORFl74dwFfNMposwzpC7z/I8eORLMH4GyCU/O6+sOXWHtvedIc/AF0hxoLHW7s951cNlCCu1NpCCfIsVAIq/6hawNCVp+wtHH0Dyd0FQNJTh790laCv2Ys/k2wuGON2Ctw79qndFTQwjyG6yjNz2Ema1hQctDxa2zSX3t6BXOEfsvSgq2M/bAJkaIPJwxF+AP8aSx3aAyyl51WftbmopBfIcBmFNaJsIDTIXNU4qmat9l1tHzS1L0j1JSpxFlKI+xjsGvZUwE+LTQtsgThMm7kzZ3vM7aepP66oOZhobt5LmmotZjir5+LME6ohdYe/cYSu3jlOSp10jyNw2G5++D9O1zgM9loKztqwnjzgq1yXOatnYp+toRJb9+NGtngJaOSradVAwt0wld9QsLKGVbIC2hN2hRruPEEF1kC34jYwLArYRuiqVPSlUbPWFSCszzzrhiaJpMFePTgrJ0EujOVHHbHL4XLB5Ausg642cZc2cXJYTqIV27zTAm76O06KskjZ4Rxto5p3UN4tW8qIOOp0d0snUe6IsQvmn0SZSuTSt5NSNXdFV7zzD2nmlU68RVxoBpnTFAaSqW0XKdOxVebH+MFnycusy7hxDkAY1rYCFvy3CqpBWP7kH99EWoqGXmSkHDxEVt5dBFztl3mbV1nWIsXRHa7K/D2QQj7foLmOe5Q7FaJ+5RmwM6FJ2eQVe7IC11HNWU91/VuIYSBfVj1w7JxwMTMDhxC3QqHWXwOdn4nlE42qAaR0EXsN/wFX1zlDXyHOvotPGVXY+tFXbC0PRSRVcdX8lZ5MdpyS+qTfJPUCoxzjoi8/qa/Ze0VUOp4tbj6RQQhtBvTobmyasFTZMLqK55l3fufoO2hl9lbd37KHNou1rwlaGM4Em89cVqzdENcssZtzv+FVqKPaIWvOvXGds3EyZvD4pYx1G0GtW6BlD6sTeJN3rhY5iKWo5lNaDlIjwAUNQyvVjQMI4uOHvfYxy9lygxqKjKPEdUpvYORgrUkObg06zDvwor08TAcoW2dPwVytPXcPYwn76SGuX/YG09Yc4RO0PbIguaLcPn8utGk8i5EgWNY4mSbdcOWkFRbMkcQoknMj9Mv2bR8xPpOTdD09QVfd1oQrdlWOEr+hXK3HGJsXb/graFB2hr1y4UvU2MFGTVZTDsDNwk+MALLF1l72rG4tcSJr9ICXIFY43UIKebJYXABOfsHde4Bo6wjuhl1hm7rK89eK6wfnwxv37san7DeLJkK0oXW2dShpaZBIpsyfXbP3S44pbZ5LW7YXx4G82SthPoPchB8d99pG7Dxv/J7SLIGRJFrbPXbsWJnQKfW4HeU9g4hZx9/KKu+sBCfu3oor72UKqwcfz3+XWH3sirGXmdr9jzS9bR+xpOwQjR56fNgX9eW+Y1o+hi+W7ZjtVYmSYAgP8frs+e44lg7GT4btd0k++hgpo9f8qa/Qy52fMj5GBOSgrYUZ3wfZQyRmlzOMg5Y//GO6Mh2tz5OiUED7L2aFxXNRTRVg1MkpaOd1hL1zxrixxGqdMEV777ZbximbJ0fsCVx4/oKgeO8ZV7TmtdQ6+TlvC7tDXyKmPv2s87YmG+fPePOXssgqLGPvR/f6oWPLvUok/i7V2SpqKX1Ti6RUYKPYP+50bC6FczjugaPDqW/jIAsFTAW+PTd8XQ7bw/81IanEZiR3xC2PUg/lnnnrgfD4ZQZaHVT9oDf45fU7niD+iqQyvxUH566wgSfh2Df4fqka/dqIB3u913ZZ4CAAAAAAAAAAAAAAAAAAAAAAAAAAAAwJ3AihX/C27th3FV6LjcAAAAAElFTkSuQmCC;" vertex="1" parent="zbF90gA1H5KHamxqbV0r-17">
          <mxGeometry y="49" width="86.06" height="28" as="geometry" />
        </mxCell>
        <mxCell id="zbF90gA1H5KHamxqbV0r-9" value="" style="shape=mxgraph.cisco.people.standing_man;html=1;pointerEvents=1;dashed=0;fillColor=#036897;strokeColor=#ffffff;strokeWidth=2;verticalLabelPosition=bottom;verticalAlign=top;align=center;outlineConnect=0;" vertex="1" parent="zbF90gA1H5KHamxqbV0r-17">
          <mxGeometry x="32.03" width="22" height="62" as="geometry" />
        </mxCell>
        <mxCell id="zbF90gA1H5KHamxqbV0r-22" value="" style="group" vertex="1" connectable="0" parent="1">
          <mxGeometry x="30" y="302" width="86.05999999999997" height="77" as="geometry" />
        </mxCell>
        <mxCell id="zbF90gA1H5KHamxqbV0r-23" value="" style="shape=image;verticalLabelPosition=bottom;labelBackgroundColor=default;verticalAlign=top;aspect=fixed;imageAspect=0;image=data:image/png,iVBORw0KGgoAAAANSUhEUgAAANEAAABECAYAAAAfkdAfAAAAAXNSR0IArs4c6QAAAARnQU1BAACxjwv8YQUAAAAJcEhZcwAAFxEAABcRAcom8z8AAA5uSURBVHhe7Z0LbFvndce9pC3SJF2W7FHPWxe3SIsscdDY5H1fkqIkSnJqLIFnWeS9l2+JkvV+2l43lAjWoBiyzW3nWuTlS5QoiaQlS7LlWLYsyZIly7JTu2kSCGgadzGSNJuXNnHkp0jefR9NI4/RRZx4jkWdH/AHKUqEyO87555zvtddAQAAAAAAAAAAAAAAAAAAAAAAAAAAAABLgtLS+FcyTz8Ga/Svop2xhz76e13pzvsLXd4HSt2vfOw9G1x77y1VlLszP6bRuSe+lHkKAEsLbOi6htCfENb4SsYaepSqH/p6aXX8fmKzR0sb5c2kGHRQYrCBlfw23t5j4p1RO2UN2SjR106Y/IOk6B/hnLHD2or+Ht7VN0abw7tJMfAybYscZp3xEc7eK3OOaBdlCgxTkn+KdUb38ZX97Zw94qMEX4CQfOO0szvAO6J1tLWrTm2S/4US/M/y5d0q3tVVoBa869cJQUFnDa3EDkqgR/x5Mx8fAG4ftBhch4w/j7F2P0NbAptpKdDE2iJu3ta9Q+vqe15XNbRfWzU4w5f3z2tcg+9rXYOX8+tHrxTUHz5vaDp6CT1eyq8fS+bXH04UNE5cKWyeThRvnUs+9Q+nleKtx5HmlOLWmVTx1heR5pLrt/382mtts+j1WfS3J5Prt+PXTqCfjymGlhn02okkei/+e6WwaSpZ2HgkUdg0nTA0TV3Jrzuc0G0ZvqqvHU3qaw/+N+eMnucc8V+xjthv+Kr+dlII9JKivBc58/OUENyoEuSnaauPQ99xNf6+KhTtVC7vl9NfHgA+LTilUotegrJ2/j2KCM9Tlo4IJQVGuPLoa3zF7v/UVe9/BxnkawUN4wsFDRPnkeEqhQ3jSnHLTNrgS7a+qGCnuJN13TnxZ0WPqSL02fOqRxL6+tHLeTUjC5w99hZrj55l7NEJFAF/giLbv6IoyDOC/+G1SLqGHRDFgBUrqLL21Yw5vJaRQkbaGqkizR0R2t41wtp7XkOp0tn8hrH3ipqnLxW3zSXShociQMk2bHQnkBG+mNYnjTM3dCr9uH77qfR3LGw6mkQXihRyriRr701oXAO/5Z2xPsrkm2QEbythkkXC7GF01aGViqL8UaZ5gVzCrSh38Vu6H8S1ir6y87taW1DDl0d/hGqQAY1rzy90NcNn9Q1j76P0agFfkXGahB0FO8z/NTBQJp1MoRQzZWg+qmgqBxW+vO88aQ2/RJh8JyiLfxtnDqOotfNha2jinkw3AEsRRupcoxaDBCnJFpSSdaDaZR7VK/MoFbuAUrGPpV/gMJ9PuP1w1MLtmVeLIpZz92XOGf+d2uQ9zUqBrbw1VEDZPZTK+yLUV3cyLq/3y5Qt+G3SJmuQw+xAHTmrqez7dV7NCyjCHEsWbzuZTstAt0c4YqHInipsmkxx5X0oDdzzO8LkjZKC54fqzbvW6CTfI5muA74oDFLnfeqyn32DlIL5pNX3A0pKDxW/wlcMfKCvOXg5HWlaZ6/VL6hDs3U06PYpPYiBUuX8utF0CshYw1OonuonUXqNL36ZbgVuF1pn799y5i4HY+mUWUf0JV31/vcKmiYvXS+KQXe+8LB8fv3hFHKoFCH65wmjJ8xZQzSey8p0M3ArwYMD7omJLxVXdzxO2zq+z9i7X0E593mUfyeKcaqGCt1sHQVaGipsnMS1lMJYIgpyqGnCKP8TqmW/WRqPf2xFBvAZoW3BJyhjQKIk3zBr63mVd/RdRenaVZwaQJqWW8L9qa8/pHAVfQlC8CVIQf4ZY+1+VGXy/lnGHIBPi6rU+wBfJn8H1TnPElLgIGXu/HVe9YFEegh668msHQDKHV2bBJ5FtdOAojZ63ka1U6dK9FZmzAP4Q9CbYl9V2wPf4s3hDaQYmEZXpDP6utGLeN4mW2ODcl94RQXviKVQZPq92rTrp3iSPGMuwCehnb6HcGFJS0E3Y+06o6s+cMHQfBTVOjBYADqt6OsOKYyjV0FRCUWnXe6M2QDX4Vzhv6HMoQrK0nGAdUQv5jeMJ4rbjqcXZoJA14UzEuxMhBhIqsraR0lR/uuMCS1vKFvwKULyPUebw6+w5TGlKL2KGUbbQDdWft1YijZ3LhJG+W1CkG0ZU1qeMKK8iRTkCdbW/a6mcghFn6WxChr0xQovjsVLjPjyPkVd5nkJpXjbluWGRFT/5JGCb4axRd7VbdmfKGk7rjyFGidbo4FA2WRoOaqwjpiiMnnPUkb/s/FP7PTNWeJx5W5ddewRWvT3Iwd6S1u1L1XUOpvCV5dsDQUC3UjpiNQ2m+Ic8aTK6DmLL8wql/fejKnlLpSx5+uM6G8gxcA7XHl/orBhAjkQTJqCPrvwlgyVUb6kErwn6Vxf2Kqzhu4prhxYTRh987TY8Z6+/lAKtiGAPq+KUR2trRpWCJPnHULy7diwIcejEWmWG0nR9zLr3J3AZwdkaxQQ6GaEB6MKGiYU2tx5VW1sn2Ic/jU5u8v2KWtoJSHK/06IwTPaqr0pGIkD3Qrh2qio7ZjCWruThFGeZ2yhUqml876M2eUOeCU2a/arSUHeRYrBhby6Qzl8TgHodgvX1bQtkiCFwJuk4G99zOl7KGN6uQW6SjyuNnn3IX1gaJ5CYRjWxIFujYrajqc4R2yRNPneZCR/66ZNsa9mzC63UG8MfIsyef+REn349JhUSdtc1gYBgW5KKJ0rqB9LMo7eRcLkO8OjdC5nnYis6/pjlNJVEIL/HOeMpg8czNooINBNCI/O4QMxKSn4vlrw/urvagZXWd2h3DxpKB6P382ag08TojxKmTuThqbJrI0CAt2MDC1HU7xrIEkJgUVK8D3HOnpW5fSuWHy4CC3IP1SXed7WVu2DwQXQ5xKeJsGpHGvrvaA2euf48g4V3tSZMbfcxO1W7vre9uEHSZNniLJ2JfJqDsCiU9BnEp6oL2icTPKuPYsqk/e3pOAvXSd2/WXG1HIfteDbSAjyfkoM4lNfsjYSCHRj/VwpaDqSYBzRRVIMnaMlXy1fHv5OxryWBxtc3ns5S2A9YZKHGVu3YmieTI/1Z28wEOgjQnZSiByIc8YWUTbzJmn2/YCzdDyeMa3lB7FZLlab2mdRRLqQV30g3UBZGw4EQkqncA3jCQ5FIMocnsEORFl74dwFfNMposwzpC7z/I8eORLMH4GyCU/O6+sOXWHtvedIc/AF0hxoLHW7s951cNlCCu1NpCCfIsVAIq/6hawNCVp+wtHH0Dyd0FQNJTh790laCv2Ys/k2wuGON2Ctw79qndFTQwjyG6yjNz2Ema1hQctDxa2zSX3t6BXOEfsvSgq2M/bAJkaIPJwxF+AP8aSx3aAyyl51WftbmopBfIcBmFNaJsIDTIXNU4qmat9l1tHzS1L0j1JSpxFlKI+xjsGvZUwE+LTQtsgThMm7kzZ3vM7aepP66oOZhobt5LmmotZjir5+LME6ohdYe/cYSu3jlOSp10jyNw2G5++D9O1zgM9loKztqwnjzgq1yXOatnYp+toRJb9+NGtngJaOSradVAwt0wld9QsLKGVbIC2hN2hRruPEEF1kC34jYwLArYRuiqVPSlUbPWFSCszzzrhiaJpMFePTgrJ0EujOVHHbHL4XLB5Ausg642cZc2cXJYTqIV27zTAm76O06KskjZ4Rxto5p3UN4tW8qIOOp0d0snUe6IsQvmn0SZSuTSt5NSNXdFV7zzD2nmlU68RVxoBpnTFAaSqW0XKdOxVebH+MFnycusy7hxDkAY1rYCFvy3CqpBWP7kH99EWoqGXmSkHDxEVt5dBFztl3mbV1nWIsXRHa7K/D2QQj7foLmOe5Q7FaJ+5RmwM6FJ2eQVe7IC11HNWU91/VuIYSBfVj1w7JxwMTMDhxC3QqHWXwOdn4nlE42qAaR0EXsN/wFX1zlDXyHOvotPGVXY+tFXbC0PRSRVcdX8lZ5MdpyS+qTfJPUCoxzjoi8/qa/Ze0VUOp4tbj6RQQhtBvTobmyasFTZMLqK55l3fufoO2hl9lbd37KHNou1rwlaGM4Em89cVqzdENcssZtzv+FVqKPaIWvOvXGds3EyZvD4pYx1G0GtW6BlD6sTeJN3rhY5iKWo5lNaDlIjwAUNQyvVjQMI4uOHvfYxy9lygxqKjKPEdUpvYORgrUkObg06zDvwor08TAcoW2dPwVytPXcPYwn76SGuX/YG09Yc4RO0PbIguaLcPn8utGk8i5EgWNY4mSbdcOWkFRbMkcQoknMj9Mv2bR8xPpOTdD09QVfd1oQrdlWOEr+hXK3HGJsXb/graFB2hr1y4UvU2MFGTVZTDsDNwk+MALLF1l72rG4tcSJr9ICXIFY43UIKebJYXABOfsHde4Bo6wjuhl1hm7rK89eK6wfnwxv37san7DeLJkK0oXW2dShpaZBIpsyfXbP3S44pbZ5LW7YXx4G82SthPoPchB8d99pG7Dxv/J7SLIGRJFrbPXbsWJnQKfW4HeU9g4hZx9/KKu+sBCfu3oor72UKqwcfz3+XWH3sirGXmdr9jzS9bR+xpOwQjR56fNgX9eW+Y1o+hi+W7ZjtVYmSYAgP8frs+e44lg7GT4btd0k++hgpo9f8qa/Qy52fMj5GBOSgrYUZ3wfZQyRmlzOMg5Y//GO6Mh2tz5OiUED7L2aFxXNRTRVg1MkpaOd1hL1zxrixxGqdMEV777ZbximbJ0fsCVx4/oKgeO8ZV7TmtdQ6+TlvC7tDXyKmPv2s87YmG+fPePOXssgqLGPvR/f6oWPLvUok/i7V2SpqKX1Ti6RUYKPYP+50bC6FczjugaPDqW/jIAsFTAW+PTd8XQ7bw/81IanEZiR3xC2PUg/lnnnrgfD4ZQZaHVT9oDf45fU7niD+iqQyvxUH566wgSfh2Df4fqka/dqIB3u913ZZ4CAAAAAAAAAAAAAAAAAAAAAAAAAAAAwJ3AihX/C27th3FV6LjcAAAAAElFTkSuQmCC;" vertex="1" parent="zbF90gA1H5KHamxqbV0r-22">
          <mxGeometry y="49" width="86.06" height="28" as="geometry" />
        </mxCell>
        <mxCell id="zbF90gA1H5KHamxqbV0r-24" value="" style="shape=mxgraph.cisco.people.standing_man;html=1;pointerEvents=1;dashed=0;fillColor=#036897;strokeColor=#ffffff;strokeWidth=2;verticalLabelPosition=bottom;verticalAlign=top;align=center;outlineConnect=0;" vertex="1" parent="zbF90gA1H5KHamxqbV0r-22">
          <mxGeometry x="32.03" width="22" height="62" as="geometry" />
        </mxCell>
        <mxCell id="zbF90gA1H5KHamxqbV0r-25" value="" style="group" vertex="1" connectable="0" parent="1">
          <mxGeometry x="19" y="393" width="86.05999999999997" height="77" as="geometry" />
        </mxCell>
        <mxCell id="zbF90gA1H5KHamxqbV0r-26" value="" style="shape=image;verticalLabelPosition=bottom;labelBackgroundColor=default;verticalAlign=top;aspect=fixed;imageAspect=0;image=data:image/png,iVBORw0KGgoAAAANSUhEUgAAANEAAABECAYAAAAfkdAfAAAAAXNSR0IArs4c6QAAAARnQU1BAACxjwv8YQUAAAAJcEhZcwAAFxEAABcRAcom8z8AAA5uSURBVHhe7Z0LbFvndce9pC3SJF2W7FHPWxe3SIsscdDY5H1fkqIkSnJqLIFnWeS9l2+JkvV+2l43lAjWoBiyzW3nWuTlS5QoiaQlS7LlWLYsyZIly7JTu2kSCGgadzGSNJuXNnHkp0jefR9NI4/RRZx4jkWdH/AHKUqEyO87555zvtddAQAAAAAAAAAAAAAAAAAAAAAAAAAAAABLgtLS+FcyTz8Ga/Svop2xhz76e13pzvsLXd4HSt2vfOw9G1x77y1VlLszP6bRuSe+lHkKAEsLbOi6htCfENb4SsYaepSqH/p6aXX8fmKzR0sb5c2kGHRQYrCBlfw23t5j4p1RO2UN2SjR106Y/IOk6B/hnLHD2or+Ht7VN0abw7tJMfAybYscZp3xEc7eK3OOaBdlCgxTkn+KdUb38ZX97Zw94qMEX4CQfOO0szvAO6J1tLWrTm2S/4US/M/y5d0q3tVVoBa869cJQUFnDa3EDkqgR/x5Mx8fAG4ftBhch4w/j7F2P0NbAptpKdDE2iJu3ta9Q+vqe15XNbRfWzU4w5f3z2tcg+9rXYOX8+tHrxTUHz5vaDp6CT1eyq8fS+bXH04UNE5cKWyeThRvnUs+9Q+nleKtx5HmlOLWmVTx1heR5pLrt/382mtts+j1WfS3J5Prt+PXTqCfjymGlhn02okkei/+e6WwaSpZ2HgkUdg0nTA0TV3Jrzuc0G0ZvqqvHU3qaw/+N+eMnucc8V+xjthv+Kr+dlII9JKivBc58/OUENyoEuSnaauPQ99xNf6+KhTtVC7vl9NfHgA+LTilUotegrJ2/j2KCM9Tlo4IJQVGuPLoa3zF7v/UVe9/BxnkawUN4wsFDRPnkeEqhQ3jSnHLTNrgS7a+qGCnuJN13TnxZ0WPqSL02fOqRxL6+tHLeTUjC5w99hZrj55l7NEJFAF/giLbv6IoyDOC/+G1SLqGHRDFgBUrqLL21Yw5vJaRQkbaGqkizR0R2t41wtp7XkOp0tn8hrH3ipqnLxW3zSXShociQMk2bHQnkBG+mNYnjTM3dCr9uH77qfR3LGw6mkQXihRyriRr701oXAO/5Z2xPsrkm2QEbythkkXC7GF01aGViqL8UaZ5gVzCrSh38Vu6H8S1ir6y87taW1DDl0d/hGqQAY1rzy90NcNn9Q1j76P0agFfkXGahB0FO8z/NTBQJp1MoRQzZWg+qmgqBxW+vO88aQ2/RJh8JyiLfxtnDqOotfNha2jinkw3AEsRRupcoxaDBCnJFpSSdaDaZR7VK/MoFbuAUrGPpV/gMJ9PuP1w1MLtmVeLIpZz92XOGf+d2uQ9zUqBrbw1VEDZPZTK+yLUV3cyLq/3y5Qt+G3SJmuQw+xAHTmrqez7dV7NCyjCHEsWbzuZTstAt0c4YqHInipsmkxx5X0oDdzzO8LkjZKC54fqzbvW6CTfI5muA74oDFLnfeqyn32DlIL5pNX3A0pKDxW/wlcMfKCvOXg5HWlaZ6/VL6hDs3U06PYpPYiBUuX8utF0CshYw1OonuonUXqNL36ZbgVuF1pn799y5i4HY+mUWUf0JV31/vcKmiYvXS+KQXe+8LB8fv3hFHKoFCH65wmjJ8xZQzSey8p0M3ArwYMD7omJLxVXdzxO2zq+z9i7X0E593mUfyeKcaqGCt1sHQVaGipsnMS1lMJYIgpyqGnCKP8TqmW/WRqPf2xFBvAZoW3BJyhjQKIk3zBr63mVd/RdRenaVZwaQJqWW8L9qa8/pHAVfQlC8CVIQf4ZY+1+VGXy/lnGHIBPi6rU+wBfJn8H1TnPElLgIGXu/HVe9YFEegh668msHQDKHV2bBJ5FtdOAojZ63ka1U6dK9FZmzAP4Q9CbYl9V2wPf4s3hDaQYmEZXpDP6utGLeN4mW2ODcl94RQXviKVQZPq92rTrp3iSPGMuwCehnb6HcGFJS0E3Y+06o6s+cMHQfBTVOjBYADqt6OsOKYyjV0FRCUWnXe6M2QDX4Vzhv6HMoQrK0nGAdUQv5jeMJ4rbjqcXZoJA14UzEuxMhBhIqsraR0lR/uuMCS1vKFvwKULyPUebw6+w5TGlKL2KGUbbQDdWft1YijZ3LhJG+W1CkG0ZU1qeMKK8iRTkCdbW/a6mcghFn6WxChr0xQovjsVLjPjyPkVd5nkJpXjbluWGRFT/5JGCb4axRd7VbdmfKGk7rjyFGidbo4FA2WRoOaqwjpiiMnnPUkb/s/FP7PTNWeJx5W5ddewRWvT3Iwd6S1u1L1XUOpvCV5dsDQUC3UjpiNQ2m+Ic8aTK6DmLL8wql/fejKnlLpSx5+uM6G8gxcA7XHl/orBhAjkQTJqCPrvwlgyVUb6kErwn6Vxf2Kqzhu4prhxYTRh987TY8Z6+/lAKtiGAPq+KUR2trRpWCJPnHULy7diwIcejEWmWG0nR9zLr3J3AZwdkaxQQ6GaEB6MKGiYU2tx5VW1sn2Ic/jU5u8v2KWtoJSHK/06IwTPaqr0pGIkD3Qrh2qio7ZjCWruThFGeZ2yhUqml876M2eUOeCU2a/arSUHeRYrBhby6Qzl8TgHodgvX1bQtkiCFwJuk4G99zOl7KGN6uQW6SjyuNnn3IX1gaJ5CYRjWxIFujYrajqc4R2yRNPneZCR/66ZNsa9mzC63UG8MfIsyef+REn349JhUSdtc1gYBgW5KKJ0rqB9LMo7eRcLkO8OjdC5nnYis6/pjlNJVEIL/HOeMpg8czNooINBNCI/O4QMxKSn4vlrw/urvagZXWd2h3DxpKB6P382ag08TojxKmTuThqbJrI0CAt2MDC1HU7xrIEkJgUVK8D3HOnpW5fSuWHy4CC3IP1SXed7WVu2DwQXQ5xKeJsGpHGvrvaA2euf48g4V3tSZMbfcxO1W7vre9uEHSZNniLJ2JfJqDsCiU9BnEp6oL2icTPKuPYsqk/e3pOAvXSd2/WXG1HIfteDbSAjyfkoM4lNfsjYSCHRj/VwpaDqSYBzRRVIMnaMlXy1fHv5OxryWBxtc3ns5S2A9YZKHGVu3YmieTI/1Z28wEOgjQnZSiByIc8YWUTbzJmn2/YCzdDyeMa3lB7FZLlab2mdRRLqQV30g3UBZGw4EQkqncA3jCQ5FIMocnsEORFl74dwFfNMposwzpC7z/I8eORLMH4GyCU/O6+sOXWHtvedIc/AF0hxoLHW7s951cNlCCu1NpCCfIsVAIq/6hawNCVp+wtHH0Dyd0FQNJTh790laCv2Ys/k2wuGON2Ctw79qndFTQwjyG6yjNz2Ema1hQctDxa2zSX3t6BXOEfsvSgq2M/bAJkaIPJwxF+AP8aSx3aAyyl51WftbmopBfIcBmFNaJsIDTIXNU4qmat9l1tHzS1L0j1JSpxFlKI+xjsGvZUwE+LTQtsgThMm7kzZ3vM7aepP66oOZhobt5LmmotZjir5+LME6ohdYe/cYSu3jlOSp10jyNw2G5++D9O1zgM9loKztqwnjzgq1yXOatnYp+toRJb9+NGtngJaOSradVAwt0wld9QsLKGVbIC2hN2hRruPEEF1kC34jYwLArYRuiqVPSlUbPWFSCszzzrhiaJpMFePTgrJ0EujOVHHbHL4XLB5Ausg642cZc2cXJYTqIV27zTAm76O06KskjZ4Rxto5p3UN4tW8qIOOp0d0snUe6IsQvmn0SZSuTSt5NSNXdFV7zzD2nmlU68RVxoBpnTFAaSqW0XKdOxVebH+MFnycusy7hxDkAY1rYCFvy3CqpBWP7kH99EWoqGXmSkHDxEVt5dBFztl3mbV1nWIsXRHa7K/D2QQj7foLmOe5Q7FaJ+5RmwM6FJ2eQVe7IC11HNWU91/VuIYSBfVj1w7JxwMTMDhxC3QqHWXwOdn4nlE42qAaR0EXsN/wFX1zlDXyHOvotPGVXY+tFXbC0PRSRVcdX8lZ5MdpyS+qTfJPUCoxzjoi8/qa/Ze0VUOp4tbj6RQQhtBvTobmyasFTZMLqK55l3fufoO2hl9lbd37KHNou1rwlaGM4Em89cVqzdENcssZtzv+FVqKPaIWvOvXGds3EyZvD4pYx1G0GtW6BlD6sTeJN3rhY5iKWo5lNaDlIjwAUNQyvVjQMI4uOHvfYxy9lygxqKjKPEdUpvYORgrUkObg06zDvwor08TAcoW2dPwVytPXcPYwn76SGuX/YG09Yc4RO0PbIguaLcPn8utGk8i5EgWNY4mSbdcOWkFRbMkcQoknMj9Mv2bR8xPpOTdD09QVfd1oQrdlWOEr+hXK3HGJsXb/graFB2hr1y4UvU2MFGTVZTDsDNwk+MALLF1l72rG4tcSJr9ICXIFY43UIKebJYXABOfsHde4Bo6wjuhl1hm7rK89eK6wfnwxv37san7DeLJkK0oXW2dShpaZBIpsyfXbP3S44pbZ5LW7YXx4G82SthPoPchB8d99pG7Dxv/J7SLIGRJFrbPXbsWJnQKfW4HeU9g4hZx9/KKu+sBCfu3oor72UKqwcfz3+XWH3sirGXmdr9jzS9bR+xpOwQjR56fNgX9eW+Y1o+hi+W7ZjtVYmSYAgP8frs+e44lg7GT4btd0k++hgpo9f8qa/Qy52fMj5GBOSgrYUZ3wfZQyRmlzOMg5Y//GO6Mh2tz5OiUED7L2aFxXNRTRVg1MkpaOd1hL1zxrixxGqdMEV777ZbximbJ0fsCVx4/oKgeO8ZV7TmtdQ6+TlvC7tDXyKmPv2s87YmG+fPePOXssgqLGPvR/f6oWPLvUok/i7V2SpqKX1Ti6RUYKPYP+50bC6FczjugaPDqW/jIAsFTAW+PTd8XQ7bw/81IanEZiR3xC2PUg/lnnnrgfD4ZQZaHVT9oDf45fU7niD+iqQyvxUH566wgSfh2Df4fqka/dqIB3u913ZZ4CAAAAAAAAAAAAAAAAAAAAAAAAAAAAwJ3AihX/C27th3FV6LjcAAAAAElFTkSuQmCC;" vertex="1" parent="zbF90gA1H5KHamxqbV0r-25">
          <mxGeometry y="49" width="86.06" height="28" as="geometry" />
        </mxCell>
        <mxCell id="zbF90gA1H5KHamxqbV0r-27" value="" style="shape=mxgraph.cisco.people.standing_man;html=1;pointerEvents=1;dashed=0;fillColor=#036897;strokeColor=#ffffff;strokeWidth=2;verticalLabelPosition=bottom;verticalAlign=top;align=center;outlineConnect=0;" vertex="1" parent="zbF90gA1H5KHamxqbV0r-25">
          <mxGeometry x="32.03" width="22" height="62" as="geometry" />
        </mxCell>
        <mxCell id="zbF90gA1H5KHamxqbV0r-29" value="" style="shape=image;verticalLabelPosition=bottom;labelBackgroundColor=default;verticalAlign=top;aspect=fixed;imageAspect=0;image=data:image/png,iVBORw0KGgoAAAANSUhEUgAAANEAAABECAYAAAAfkdAfAAAAAXNSR0IArs4c6QAAAARnQU1BAACxjwv8YQUAAAAJcEhZcwAAFxEAABcRAcom8z8AAA5uSURBVHhe7Z0LbFvndce9pC3SJF2W7FHPWxe3SIsscdDY5H1fkqIkSnJqLIFnWeS9l2+JkvV+2l43lAjWoBiyzW3nWuTlS5QoiaQlS7LlWLYsyZIly7JTu2kSCGgadzGSNJuXNnHkp0jefR9NI4/RRZx4jkWdH/AHKUqEyO87555zvtddAQAAAAAAAAAAAAAAAAAAAAAAAAAAAABLgtLS+FcyTz8Ga/Svop2xhz76e13pzvsLXd4HSt2vfOw9G1x77y1VlLszP6bRuSe+lHkKAEsLbOi6htCfENb4SsYaepSqH/p6aXX8fmKzR0sb5c2kGHRQYrCBlfw23t5j4p1RO2UN2SjR106Y/IOk6B/hnLHD2or+Ht7VN0abw7tJMfAybYscZp3xEc7eK3OOaBdlCgxTkn+KdUb38ZX97Zw94qMEX4CQfOO0szvAO6J1tLWrTm2S/4US/M/y5d0q3tVVoBa869cJQUFnDa3EDkqgR/x5Mx8fAG4ftBhch4w/j7F2P0NbAptpKdDE2iJu3ta9Q+vqe15XNbRfWzU4w5f3z2tcg+9rXYOX8+tHrxTUHz5vaDp6CT1eyq8fS+bXH04UNE5cKWyeThRvnUs+9Q+nleKtx5HmlOLWmVTx1heR5pLrt/382mtts+j1WfS3J5Prt+PXTqCfjymGlhn02okkei/+e6WwaSpZ2HgkUdg0nTA0TV3Jrzuc0G0ZvqqvHU3qaw/+N+eMnucc8V+xjthv+Kr+dlII9JKivBc58/OUENyoEuSnaauPQ99xNf6+KhTtVC7vl9NfHgA+LTilUotegrJ2/j2KCM9Tlo4IJQVGuPLoa3zF7v/UVe9/BxnkawUN4wsFDRPnkeEqhQ3jSnHLTNrgS7a+qGCnuJN13TnxZ0WPqSL02fOqRxL6+tHLeTUjC5w99hZrj55l7NEJFAF/giLbv6IoyDOC/+G1SLqGHRDFgBUrqLL21Yw5vJaRQkbaGqkizR0R2t41wtp7XkOp0tn8hrH3ipqnLxW3zSXShociQMk2bHQnkBG+mNYnjTM3dCr9uH77qfR3LGw6mkQXihRyriRr701oXAO/5Z2xPsrkm2QEbythkkXC7GF01aGViqL8UaZ5gVzCrSh38Vu6H8S1ir6y87taW1DDl0d/hGqQAY1rzy90NcNn9Q1j76P0agFfkXGahB0FO8z/NTBQJp1MoRQzZWg+qmgqBxW+vO88aQ2/RJh8JyiLfxtnDqOotfNha2jinkw3AEsRRupcoxaDBCnJFpSSdaDaZR7VK/MoFbuAUrGPpV/gMJ9PuP1w1MLtmVeLIpZz92XOGf+d2uQ9zUqBrbw1VEDZPZTK+yLUV3cyLq/3y5Qt+G3SJmuQw+xAHTmrqez7dV7NCyjCHEsWbzuZTstAt0c4YqHInipsmkxx5X0oDdzzO8LkjZKC54fqzbvW6CTfI5muA74oDFLnfeqyn32DlIL5pNX3A0pKDxW/wlcMfKCvOXg5HWlaZ6/VL6hDs3U06PYpPYiBUuX8utF0CshYw1OonuonUXqNL36ZbgVuF1pn799y5i4HY+mUWUf0JV31/vcKmiYvXS+KQXe+8LB8fv3hFHKoFCH65wmjJ8xZQzSey8p0M3ArwYMD7omJLxVXdzxO2zq+z9i7X0E593mUfyeKcaqGCt1sHQVaGipsnMS1lMJYIgpyqGnCKP8TqmW/WRqPf2xFBvAZoW3BJyhjQKIk3zBr63mVd/RdRenaVZwaQJqWW8L9qa8/pHAVfQlC8CVIQf4ZY+1+VGXy/lnGHIBPi6rU+wBfJn8H1TnPElLgIGXu/HVe9YFEegh668msHQDKHV2bBJ5FtdOAojZ63ka1U6dK9FZmzAP4Q9CbYl9V2wPf4s3hDaQYmEZXpDP6utGLeN4mW2ODcl94RQXviKVQZPq92rTrp3iSPGMuwCehnb6HcGFJS0E3Y+06o6s+cMHQfBTVOjBYADqt6OsOKYyjV0FRCUWnXe6M2QDX4Vzhv6HMoQrK0nGAdUQv5jeMJ4rbjqcXZoJA14UzEuxMhBhIqsraR0lR/uuMCS1vKFvwKULyPUebw6+w5TGlKL2KGUbbQDdWft1YijZ3LhJG+W1CkG0ZU1qeMKK8iRTkCdbW/a6mcghFn6WxChr0xQovjsVLjPjyPkVd5nkJpXjbluWGRFT/5JGCb4axRd7VbdmfKGk7rjyFGidbo4FA2WRoOaqwjpiiMnnPUkb/s/FP7PTNWeJx5W5ddewRWvT3Iwd6S1u1L1XUOpvCV5dsDQUC3UjpiNQ2m+Ic8aTK6DmLL8wql/fejKnlLpSx5+uM6G8gxcA7XHl/orBhAjkQTJqCPrvwlgyVUb6kErwn6Vxf2Kqzhu4prhxYTRh987TY8Z6+/lAKtiGAPq+KUR2trRpWCJPnHULy7diwIcejEWmWG0nR9zLr3J3AZwdkaxQQ6GaEB6MKGiYU2tx5VW1sn2Ic/jU5u8v2KWtoJSHK/06IwTPaqr0pGIkD3Qrh2qio7ZjCWruThFGeZ2yhUqml876M2eUOeCU2a/arSUHeRYrBhby6Qzl8TgHodgvX1bQtkiCFwJuk4G99zOl7KGN6uQW6SjyuNnn3IX1gaJ5CYRjWxIFujYrajqc4R2yRNPneZCR/66ZNsa9mzC63UG8MfIsyef+REn349JhUSdtc1gYBgW5KKJ0rqB9LMo7eRcLkO8OjdC5nnYis6/pjlNJVEIL/HOeMpg8czNooINBNCI/O4QMxKSn4vlrw/urvagZXWd2h3DxpKB6P382ag08TojxKmTuThqbJrI0CAt2MDC1HU7xrIEkJgUVK8D3HOnpW5fSuWHy4CC3IP1SXed7WVu2DwQXQ5xKeJsGpHGvrvaA2euf48g4V3tSZMbfcxO1W7vre9uEHSZNniLJ2JfJqDsCiU9BnEp6oL2icTPKuPYsqk/e3pOAvXSd2/WXG1HIfteDbSAjyfkoM4lNfsjYSCHRj/VwpaDqSYBzRRVIMnaMlXy1fHv5OxryWBxtc3ns5S2A9YZKHGVu3YmieTI/1Z28wEOgjQnZSiByIc8YWUTbzJmn2/YCzdDyeMa3lB7FZLlab2mdRRLqQV30g3UBZGw4EQkqncA3jCQ5FIMocnsEORFl74dwFfNMposwzpC7z/I8eORLMH4GyCU/O6+sOXWHtvedIc/AF0hxoLHW7s951cNlCCu1NpCCfIsVAIq/6hawNCVp+wtHH0Dyd0FQNJTh790laCv2Ys/k2wuGON2Ctw79qndFTQwjyG6yjNz2Ema1hQctDxa2zSX3t6BXOEfsvSgq2M/bAJkaIPJwxF+AP8aSx3aAyyl51WftbmopBfIcBmFNaJsIDTIXNU4qmat9l1tHzS1L0j1JSpxFlKI+xjsGvZUwE+LTQtsgThMm7kzZ3vM7aepP66oOZhobt5LmmotZjir5+LME6ohdYe/cYSu3jlOSp10jyNw2G5++D9O1zgM9loKztqwnjzgq1yXOatnYp+toRJb9+NGtngJaOSradVAwt0wld9QsLKGVbIC2hN2hRruPEEF1kC34jYwLArYRuiqVPSlUbPWFSCszzzrhiaJpMFePTgrJ0EujOVHHbHL4XLB5Ausg642cZc2cXJYTqIV27zTAm76O06KskjZ4Rxto5p3UN4tW8qIOOp0d0snUe6IsQvmn0SZSuTSt5NSNXdFV7zzD2nmlU68RVxoBpnTFAaSqW0XKdOxVebH+MFnycusy7hxDkAY1rYCFvy3CqpBWP7kH99EWoqGXmSkHDxEVt5dBFztl3mbV1nWIsXRHa7K/D2QQj7foLmOe5Q7FaJ+5RmwM6FJ2eQVe7IC11HNWU91/VuIYSBfVj1w7JxwMTMDhxC3QqHWXwOdn4nlE42qAaR0EXsN/wFX1zlDXyHOvotPGVXY+tFXbC0PRSRVcdX8lZ5MdpyS+qTfJPUCoxzjoi8/qa/Ze0VUOp4tbj6RQQhtBvTobmyasFTZMLqK55l3fufoO2hl9lbd37KHNou1rwlaGM4Em89cVqzdENcssZtzv+FVqKPaIWvOvXGds3EyZvD4pYx1G0GtW6BlD6sTeJN3rhY5iKWo5lNaDlIjwAUNQyvVjQMI4uOHvfYxy9lygxqKjKPEdUpvYORgrUkObg06zDvwor08TAcoW2dPwVytPXcPYwn76SGuX/YG09Yc4RO0PbIguaLcPn8utGk8i5EgWNY4mSbdcOWkFRbMkcQoknMj9Mv2bR8xPpOTdD09QVfd1oQrdlWOEr+hXK3HGJsXb/graFB2hr1y4UvU2MFGTVZTDsDNwk+MALLF1l72rG4tcSJr9ICXIFY43UIKebJYXABOfsHde4Bo6wjuhl1hm7rK89eK6wfnwxv37san7DeLJkK0oXW2dShpaZBIpsyfXbP3S44pbZ5LW7YXx4G82SthPoPchB8d99pG7Dxv/J7SLIGRJFrbPXbsWJnQKfW4HeU9g4hZx9/KKu+sBCfu3oor72UKqwcfz3+XWH3sirGXmdr9jzS9bR+xpOwQjR56fNgX9eW+Y1o+hi+W7ZjtVYmSYAgP8frs+e44lg7GT4btd0k++hgpo9f8qa/Qy52fMj5GBOSgrYUZ3wfZQyRmlzOMg5Y//GO6Mh2tz5OiUED7L2aFxXNRTRVg1MkpaOd1hL1zxrixxGqdMEV777ZbximbJ0fsCVx4/oKgeO8ZV7TmtdQ6+TlvC7tDXyKmPv2s87YmG+fPePOXssgqLGPvR/f6oWPLvUok/i7V2SpqKX1Ti6RUYKPYP+50bC6FczjugaPDqW/jIAsFTAW+PTd8XQ7bw/81IanEZiR3xC2PUg/lnnnrgfD4ZQZaHVT9oDf45fU7niD+iqQyvxUH566wgSfh2Df4fqka/dqIB3u913ZZ4CAAAAAAAAAAAAAAAAAAAAAAAAAAAAwJ3AihX/C27th3FV6LjcAAAAAElFTkSuQmCC;" vertex="1" parent="1">
          <mxGeometry x="108.97" y="115.76923076923077" width="52.96" height="17.230769230769234" as="geometry" />
        </mxCell>
        <mxCell id="zbF90gA1H5KHamxqbV0r-14" value="" style="group" vertex="1" connectable="0" parent="1">
          <mxGeometry x="137" y="99" width="86.06" height="48" as="geometry" />
        </mxCell>
        <mxCell id="zbF90gA1H5KHamxqbV0r-2" value="" style="shape=mxgraph.cisco.people.standing_man;html=1;pointerEvents=1;dashed=0;fillColor=#036897;strokeColor=#ffffff;strokeWidth=2;verticalLabelPosition=bottom;verticalAlign=top;align=center;outlineConnect=0;" vertex="1" parent="zbF90gA1H5KHamxqbV0r-14">
          <mxGeometry x="-11.969999999999999" y="-17" width="22" height="42.47" as="geometry" />
        </mxCell>
        <mxCell id="zbF90gA1H5KHamxqbV0r-30" value="" style="group" vertex="1" connectable="0" parent="1">
          <mxGeometry x="90" y="90" width="60" height="58" as="geometry" />
        </mxCell>
        <mxCell id="zbF90gA1H5KHamxqbV0r-31" value="" style="shape=image;verticalLabelPosition=bottom;labelBackgroundColor=default;verticalAlign=top;aspect=fixed;imageAspect=0;image=data:image/png,iVBORw0KGgoAAAANSUhEUgAAANEAAABECAYAAAAfkdAfAAAAAXNSR0IArs4c6QAAAARnQU1BAACxjwv8YQUAAAAJcEhZcwAAFxEAABcRAcom8z8AAA5uSURBVHhe7Z0LbFvndce9pC3SJF2W7FHPWxe3SIsscdDY5H1fkqIkSnJqLIFnWeS9l2+JkvV+2l43lAjWoBiyzW3nWuTlS5QoiaQlS7LlWLYsyZIly7JTu2kSCGgadzGSNJuXNnHkp0jefR9NI4/RRZx4jkWdH/AHKUqEyO87555zvtddAQAAAAAAAAAAAAAAAAAAAAAAAAAAAABLgtLS+FcyTz8Ga/Svop2xhz76e13pzvsLXd4HSt2vfOw9G1x77y1VlLszP6bRuSe+lHkKAEsLbOi6htCfENb4SsYaepSqH/p6aXX8fmKzR0sb5c2kGHRQYrCBlfw23t5j4p1RO2UN2SjR106Y/IOk6B/hnLHD2or+Ht7VN0abw7tJMfAybYscZp3xEc7eK3OOaBdlCgxTkn+KdUb38ZX97Zw94qMEX4CQfOO0szvAO6J1tLWrTm2S/4US/M/y5d0q3tVVoBa869cJQUFnDa3EDkqgR/x5Mx8fAG4ftBhch4w/j7F2P0NbAptpKdDE2iJu3ta9Q+vqe15XNbRfWzU4w5f3z2tcg+9rXYOX8+tHrxTUHz5vaDp6CT1eyq8fS+bXH04UNE5cKWyeThRvnUs+9Q+nleKtx5HmlOLWmVTx1heR5pLrt/382mtts+j1WfS3J5Prt+PXTqCfjymGlhn02okkei/+e6WwaSpZ2HgkUdg0nTA0TV3Jrzuc0G0ZvqqvHU3qaw/+N+eMnucc8V+xjthv+Kr+dlII9JKivBc58/OUENyoEuSnaauPQ99xNf6+KhTtVC7vl9NfHgA+LTilUotegrJ2/j2KCM9Tlo4IJQVGuPLoa3zF7v/UVe9/BxnkawUN4wsFDRPnkeEqhQ3jSnHLTNrgS7a+qGCnuJN13TnxZ0WPqSL02fOqRxL6+tHLeTUjC5w99hZrj55l7NEJFAF/giLbv6IoyDOC/+G1SLqGHRDFgBUrqLL21Yw5vJaRQkbaGqkizR0R2t41wtp7XkOp0tn8hrH3ipqnLxW3zSXShociQMk2bHQnkBG+mNYnjTM3dCr9uH77qfR3LGw6mkQXihRyriRr701oXAO/5Z2xPsrkm2QEbythkkXC7GF01aGViqL8UaZ5gVzCrSh38Vu6H8S1ir6y87taW1DDl0d/hGqQAY1rzy90NcNn9Q1j76P0agFfkXGahB0FO8z/NTBQJp1MoRQzZWg+qmgqBxW+vO88aQ2/RJh8JyiLfxtnDqOotfNha2jinkw3AEsRRupcoxaDBCnJFpSSdaDaZR7VK/MoFbuAUrGPpV/gMJ9PuP1w1MLtmVeLIpZz92XOGf+d2uQ9zUqBrbw1VEDZPZTK+yLUV3cyLq/3y5Qt+G3SJmuQw+xAHTmrqez7dV7NCyjCHEsWbzuZTstAt0c4YqHInipsmkxx5X0oDdzzO8LkjZKC54fqzbvW6CTfI5muA74oDFLnfeqyn32DlIL5pNX3A0pKDxW/wlcMfKCvOXg5HWlaZ6/VL6hDs3U06PYpPYiBUuX8utF0CshYw1OonuonUXqNL36ZbgVuF1pn799y5i4HY+mUWUf0JV31/vcKmiYvXS+KQXe+8LB8fv3hFHKoFCH65wmjJ8xZQzSey8p0M3ArwYMD7omJLxVXdzxO2zq+z9i7X0E593mUfyeKcaqGCt1sHQVaGipsnMS1lMJYIgpyqGnCKP8TqmW/WRqPf2xFBvAZoW3BJyhjQKIk3zBr63mVd/RdRenaVZwaQJqWW8L9qa8/pHAVfQlC8CVIQf4ZY+1+VGXy/lnGHIBPi6rU+wBfJn8H1TnPElLgIGXu/HVe9YFEegh668msHQDKHV2bBJ5FtdOAojZ63ka1U6dK9FZmzAP4Q9CbYl9V2wPf4s3hDaQYmEZXpDP6utGLeN4mW2ODcl94RQXviKVQZPq92rTrp3iSPGMuwCehnb6HcGFJS0E3Y+06o6s+cMHQfBTVOjBYADqt6OsOKYyjV0FRCUWnXe6M2QDX4Vzhv6HMoQrK0nGAdUQv5jeMJ4rbjqcXZoJA14UzEuxMhBhIqsraR0lR/uuMCS1vKFvwKULyPUebw6+w5TGlKL2KGUbbQDdWft1YijZ3LhJG+W1CkG0ZU1qeMKK8iRTkCdbW/a6mcghFn6WxChr0xQovjsVLjPjyPkVd5nkJpXjbluWGRFT/5JGCb4axRd7VbdmfKGk7rjyFGidbo4FA2WRoOaqwjpiiMnnPUkb/s/FP7PTNWeJx5W5ddewRWvT3Iwd6S1u1L1XUOpvCV5dsDQUC3UjpiNQ2m+Ic8aTK6DmLL8wql/fejKnlLpSx5+uM6G8gxcA7XHl/orBhAjkQTJqCPrvwlgyVUb6kErwn6Vxf2Kqzhu4prhxYTRh987TY8Z6+/lAKtiGAPq+KUR2trRpWCJPnHULy7diwIcejEWmWG0nR9zLr3J3AZwdkaxQQ6GaEB6MKGiYU2tx5VW1sn2Ic/jU5u8v2KWtoJSHK/06IwTPaqr0pGIkD3Qrh2qio7ZjCWruThFGeZ2yhUqml876M2eUOeCU2a/arSUHeRYrBhby6Qzl8TgHodgvX1bQtkiCFwJuk4G99zOl7KGN6uQW6SjyuNnn3IX1gaJ5CYRjWxIFujYrajqc4R2yRNPneZCR/66ZNsa9mzC63UG8MfIsyef+REn349JhUSdtc1gYBgW5KKJ0rqB9LMo7eRcLkO8OjdC5nnYis6/pjlNJVEIL/HOeMpg8czNooINBNCI/O4QMxKSn4vlrw/urvagZXWd2h3DxpKB6P382ag08TojxKmTuThqbJrI0CAt2MDC1HU7xrIEkJgUVK8D3HOnpW5fSuWHy4CC3IP1SXed7WVu2DwQXQ5xKeJsGpHGvrvaA2euf48g4V3tSZMbfcxO1W7vre9uEHSZNniLJ2JfJqDsCiU9BnEp6oL2icTPKuPYsqk/e3pOAvXSd2/WXG1HIfteDbSAjyfkoM4lNfsjYSCHRj/VwpaDqSYBzRRVIMnaMlXy1fHv5OxryWBxtc3ns5S2A9YZKHGVu3YmieTI/1Z28wEOgjQnZSiByIc8YWUTbzJmn2/YCzdDyeMa3lB7FZLlab2mdRRLqQV30g3UBZGw4EQkqncA3jCQ5FIMocnsEORFl74dwFfNMposwzpC7z/I8eORLMH4GyCU/O6+sOXWHtvedIc/AF0hxoLHW7s951cNlCCu1NpCCfIsVAIq/6hawNCVp+wtHH0Dyd0FQNJTh790laCv2Ys/k2wuGON2Ctw79qndFTQwjyG6yjNz2Ema1hQctDxa2zSX3t6BXOEfsvSgq2M/bAJkaIPJwxF+AP8aSx3aAyyl51WftbmopBfIcBmFNaJsIDTIXNU4qmat9l1tHzS1L0j1JSpxFlKI+xjsGvZUwE+LTQtsgThMm7kzZ3vM7aepP66oOZhobt5LmmotZjir5+LME6ohdYe/cYSu3jlOSp10jyNw2G5++D9O1zgM9loKztqwnjzgq1yXOatnYp+toRJb9+NGtngJaOSradVAwt0wld9QsLKGVbIC2hN2hRruPEEF1kC34jYwLArYRuiqVPSlUbPWFSCszzzrhiaJpMFePTgrJ0EujOVHHbHL4XLB5Ausg642cZc2cXJYTqIV27zTAm76O06KskjZ4Rxto5p3UN4tW8qIOOp0d0snUe6IsQvmn0SZSuTSt5NSNXdFV7zzD2nmlU68RVxoBpnTFAaSqW0XKdOxVebH+MFnycusy7hxDkAY1rYCFvy3CqpBWP7kH99EWoqGXmSkHDxEVt5dBFztl3mbV1nWIsXRHa7K/D2QQj7foLmOe5Q7FaJ+5RmwM6FJ2eQVe7IC11HNWU91/VuIYSBfVj1w7JxwMTMDhxC3QqHWXwOdn4nlE42qAaR0EXsN/wFX1zlDXyHOvotPGVXY+tFXbC0PRSRVcdX8lZ5MdpyS+qTfJPUCoxzjoi8/qa/Ze0VUOp4tbj6RQQhtBvTobmyasFTZMLqK55l3fufoO2hl9lbd37KHNou1rwlaGM4Em89cVqzdENcssZtzv+FVqKPaIWvOvXGds3EyZvD4pYx1G0GtW6BlD6sTeJN3rhY5iKWo5lNaDlIjwAUNQyvVjQMI4uOHvfYxy9lygxqKjKPEdUpvYORgrUkObg06zDvwor08TAcoW2dPwVytPXcPYwn76SGuX/YG09Yc4RO0PbIguaLcPn8utGk8i5EgWNY4mSbdcOWkFRbMkcQoknMj9Mv2bR8xPpOTdD09QVfd1oQrdlWOEr+hXK3HGJsXb/graFB2hr1y4UvU2MFGTVZTDsDNwk+MALLF1l72rG4tcSJr9ICXIFY43UIKebJYXABOfsHde4Bo6wjuhl1hm7rK89eK6wfnwxv37san7DeLJkK0oXW2dShpaZBIpsyfXbP3S44pbZ5LW7YXx4G82SthPoPchB8d99pG7Dxv/J7SLIGRJFrbPXbsWJnQKfW4HeU9g4hZx9/KKu+sBCfu3oor72UKqwcfz3+XWH3sirGXmdr9jzS9bR+xpOwQjR56fNgX9eW+Y1o+hi+W7ZjtVYmSYAgP8frs+e44lg7GT4btd0k++hgpo9f8qa/Qy52fMj5GBOSgrYUZ3wfZQyRmlzOMg5Y//GO6Mh2tz5OiUED7L2aFxXNRTRVg1MkpaOd1hL1zxrixxGqdMEV777ZbximbJ0fsCVx4/oKgeO8ZV7TmtdQ6+TlvC7tDXyKmPv2s87YmG+fPePOXssgqLGPvR/f6oWPLvUok/i7V2SpqKX1Ti6RUYKPYP+50bC6FczjugaPDqW/jIAsFTAW+PTd8XQ7bw/81IanEZiR3xC2PUg/lnnnrgfD4ZQZaHVT9oDf45fU7niD+iqQyvxUH566wgSfh2Df4fqka/dqIB3u913ZZ4CAAAAAAAAAAAAAAAAAAAAAAAAAAAAwJ3AihX/C27th3FV6LjcAAAAAElFTkSuQmCC;" vertex="1" parent="zbF90gA1H5KHamxqbV0r-30">
          <mxGeometry y="37.179487179487175" width="51.22682572948573" height="16.666873349123875" as="geometry" />
        </mxCell>
        <mxCell id="zbF90gA1H5KHamxqbV0r-32" value="" style="shape=mxgraph.cisco.people.standing_woman;html=1;pointerEvents=1;dashed=0;fillColor=#036897;strokeColor=#ffffff;strokeWidth=2;verticalLabelPosition=bottom;verticalAlign=top;align=center;outlineConnect=0;" vertex="1" parent="zbF90gA1H5KHamxqbV0r-30">
          <mxGeometry x="18.46183630906743" width="15.338136184057634" height="46.1025641025641" as="geometry" />
        </mxCell>
        <mxCell id="zbF90gA1H5KHamxqbV0r-33" value="" style="shape=image;verticalLabelPosition=bottom;labelBackgroundColor=default;verticalAlign=top;aspect=fixed;imageAspect=0;image=data:image/png,iVBORw0KGgoAAAANSUhEUgAAANEAAABECAYAAAAfkdAfAAAAAXNSR0IArs4c6QAAAARnQU1BAACxjwv8YQUAAAAJcEhZcwAAFxEAABcRAcom8z8AAA5uSURBVHhe7Z0LbFvndce9pC3SJF2W7FHPWxe3SIsscdDY5H1fkqIkSnJqLIFnWeS9l2+JkvV+2l43lAjWoBiyzW3nWuTlS5QoiaQlS7LlWLYsyZIly7JTu2kSCGgadzGSNJuXNnHkp0jefR9NI4/RRZx4jkWdH/AHKUqEyO87555zvtddAQAAAAAAAAAAAAAAAAAAAAAAAAAAAABLgtLS+FcyTz8Ga/Svop2xhz76e13pzvsLXd4HSt2vfOw9G1x77y1VlLszP6bRuSe+lHkKAEsLbOi6htCfENb4SsYaepSqH/p6aXX8fmKzR0sb5c2kGHRQYrCBlfw23t5j4p1RO2UN2SjR106Y/IOk6B/hnLHD2or+Ht7VN0abw7tJMfAybYscZp3xEc7eK3OOaBdlCgxTkn+KdUb38ZX97Zw94qMEX4CQfOO0szvAO6J1tLWrTm2S/4US/M/y5d0q3tVVoBa869cJQUFnDa3EDkqgR/x5Mx8fAG4ftBhch4w/j7F2P0NbAptpKdDE2iJu3ta9Q+vqe15XNbRfWzU4w5f3z2tcg+9rXYOX8+tHrxTUHz5vaDp6CT1eyq8fS+bXH04UNE5cKWyeThRvnUs+9Q+nleKtx5HmlOLWmVTx1heR5pLrt/382mtts+j1WfS3J5Prt+PXTqCfjymGlhn02okkei/+e6WwaSpZ2HgkUdg0nTA0TV3Jrzuc0G0ZvqqvHU3qaw/+N+eMnucc8V+xjthv+Kr+dlII9JKivBc58/OUENyoEuSnaauPQ99xNf6+KhTtVC7vl9NfHgA+LTilUotegrJ2/j2KCM9Tlo4IJQVGuPLoa3zF7v/UVe9/BxnkawUN4wsFDRPnkeEqhQ3jSnHLTNrgS7a+qGCnuJN13TnxZ0WPqSL02fOqRxL6+tHLeTUjC5w99hZrj55l7NEJFAF/giLbv6IoyDOC/+G1SLqGHRDFgBUrqLL21Yw5vJaRQkbaGqkizR0R2t41wtp7XkOp0tn8hrH3ipqnLxW3zSXShociQMk2bHQnkBG+mNYnjTM3dCr9uH77qfR3LGw6mkQXihRyriRr701oXAO/5Z2xPsrkm2QEbythkkXC7GF01aGViqL8UaZ5gVzCrSh38Vu6H8S1ir6y87taW1DDl0d/hGqQAY1rzy90NcNn9Q1j76P0agFfkXGahB0FO8z/NTBQJp1MoRQzZWg+qmgqBxW+vO88aQ2/RJh8JyiLfxtnDqOotfNha2jinkw3AEsRRupcoxaDBCnJFpSSdaDaZR7VK/MoFbuAUrGPpV/gMJ9PuP1w1MLtmVeLIpZz92XOGf+d2uQ9zUqBrbw1VEDZPZTK+yLUV3cyLq/3y5Qt+G3SJmuQw+xAHTmrqez7dV7NCyjCHEsWbzuZTstAt0c4YqHInipsmkxx5X0oDdzzO8LkjZKC54fqzbvW6CTfI5muA74oDFLnfeqyn32DlIL5pNX3A0pKDxW/wlcMfKCvOXg5HWlaZ6/VL6hDs3U06PYpPYiBUuX8utF0CshYw1OonuonUXqNL36ZbgVuF1pn799y5i4HY+mUWUf0JV31/vcKmiYvXS+KQXe+8LB8fv3hFHKoFCH65wmjJ8xZQzSey8p0M3ArwYMD7omJLxVXdzxO2zq+z9i7X0E593mUfyeKcaqGCt1sHQVaGipsnMS1lMJYIgpyqGnCKP8TqmW/WRqPf2xFBvAZoW3BJyhjQKIk3zBr63mVd/RdRenaVZwaQJqWW8L9qa8/pHAVfQlC8CVIQf4ZY+1+VGXy/lnGHIBPi6rU+wBfJn8H1TnPElLgIGXu/HVe9YFEegh668msHQDKHV2bBJ5FtdOAojZ63ka1U6dK9FZmzAP4Q9CbYl9V2wPf4s3hDaQYmEZXpDP6utGLeN4mW2ODcl94RQXviKVQZPq92rTrp3iSPGMuwCehnb6HcGFJS0E3Y+06o6s+cMHQfBTVOjBYADqt6OsOKYyjV0FRCUWnXe6M2QDX4Vzhv6HMoQrK0nGAdUQv5jeMJ4rbjqcXZoJA14UzEuxMhBhIqsraR0lR/uuMCS1vKFvwKULyPUebw6+w5TGlKL2KGUbbQDdWft1YijZ3LhJG+W1CkG0ZU1qeMKK8iRTkCdbW/a6mcghFn6WxChr0xQovjsVLjPjyPkVd5nkJpXjbluWGRFT/5JGCb4axRd7VbdmfKGk7rjyFGidbo4FA2WRoOaqwjpiiMnnPUkb/s/FP7PTNWeJx5W5ddewRWvT3Iwd6S1u1L1XUOpvCV5dsDQUC3UjpiNQ2m+Ic8aTK6DmLL8wql/fejKnlLpSx5+uM6G8gxcA7XHl/orBhAjkQTJqCPrvwlgyVUb6kErwn6Vxf2Kqzhu4prhxYTRh987TY8Z6+/lAKtiGAPq+KUR2trRpWCJPnHULy7diwIcejEWmWG0nR9zLr3J3AZwdkaxQQ6GaEB6MKGiYU2tx5VW1sn2Ic/jU5u8v2KWtoJSHK/06IwTPaqr0pGIkD3Qrh2qio7ZjCWruThFGeZ2yhUqml876M2eUOeCU2a/arSUHeRYrBhby6Qzl8TgHodgvX1bQtkiCFwJuk4G99zOl7KGN6uQW6SjyuNnn3IX1gaJ5CYRjWxIFujYrajqc4R2yRNPneZCR/66ZNsa9mzC63UG8MfIsyef+REn349JhUSdtc1gYBgW5KKJ0rqB9LMo7eRcLkO8OjdC5nnYis6/pjlNJVEIL/HOeMpg8czNooINBNCI/O4QMxKSn4vlrw/urvagZXWd2h3DxpKB6P382ag08TojxKmTuThqbJrI0CAt2MDC1HU7xrIEkJgUVK8D3HOnpW5fSuWHy4CC3IP1SXed7WVu2DwQXQ5xKeJsGpHGvrvaA2euf48g4V3tSZMbfcxO1W7vre9uEHSZNniLJ2JfJqDsCiU9BnEp6oL2icTPKuPYsqk/e3pOAvXSd2/WXG1HIfteDbSAjyfkoM4lNfsjYSCHRj/VwpaDqSYBzRRVIMnaMlXy1fHv5OxryWBxtc3ns5S2A9YZKHGVu3YmieTI/1Z28wEOgjQnZSiByIc8YWUTbzJmn2/YCzdDyeMa3lB7FZLlab2mdRRLqQV30g3UBZGw4EQkqncA3jCQ5FIMocnsEORFl74dwFfNMposwzpC7z/I8eORLMH4GyCU/O6+sOXWHtvedIc/AF0hxoLHW7s951cNlCCu1NpCCfIsVAIq/6hawNCVp+wtHH0Dyd0FQNJTh790laCv2Ys/k2wuGON2Ctw79qndFTQwjyG6yjNz2Ema1hQctDxa2zSX3t6BXOEfsvSgq2M/bAJkaIPJwxF+AP8aSx3aAyyl51WftbmopBfIcBmFNaJsIDTIXNU4qmat9l1tHzS1L0j1JSpxFlKI+xjsGvZUwE+LTQtsgThMm7kzZ3vM7aepP66oOZhobt5LmmotZjir5+LME6ohdYe/cYSu3jlOSp10jyNw2G5++D9O1zgM9loKztqwnjzgq1yXOatnYp+toRJb9+NGtngJaOSradVAwt0wld9QsLKGVbIC2hN2hRruPEEF1kC34jYwLArYRuiqVPSlUbPWFSCszzzrhiaJpMFePTgrJ0EujOVHHbHL4XLB5Ausg642cZc2cXJYTqIV27zTAm76O06KskjZ4Rxto5p3UN4tW8qIOOp0d0snUe6IsQvmn0SZSuTSt5NSNXdFV7zzD2nmlU68RVxoBpnTFAaSqW0XKdOxVebH+MFnycusy7hxDkAY1rYCFvy3CqpBWP7kH99EWoqGXmSkHDxEVt5dBFztl3mbV1nWIsXRHa7K/D2QQj7foLmOe5Q7FaJ+5RmwM6FJ2eQVe7IC11HNWU91/VuIYSBfVj1w7JxwMTMDhxC3QqHWXwOdn4nlE42qAaR0EXsN/wFX1zlDXyHOvotPGVXY+tFXbC0PRSRVcdX8lZ5MdpyS+qTfJPUCoxzjoi8/qa/Ze0VUOp4tbj6RQQhtBvTobmyasFTZMLqK55l3fufoO2hl9lbd37KHNou1rwlaGM4Em89cVqzdENcssZtzv+FVqKPaIWvOvXGds3EyZvD4pYx1G0GtW6BlD6sTeJN3rhY5iKWo5lNaDlIjwAUNQyvVjQMI4uOHvfYxy9lygxqKjKPEdUpvYORgrUkObg06zDvwor08TAcoW2dPwVytPXcPYwn76SGuX/YG09Yc4RO0PbIguaLcPn8utGk8i5EgWNY4mSbdcOWkFRbMkcQoknMj9Mv2bR8xPpOTdD09QVfd1oQrdlWOEr+hXK3HGJsXb/graFB2hr1y4UvU2MFGTVZTDsDNwk+MALLF1l72rG4tcSJr9ICXIFY43UIKebJYXABOfsHde4Bo6wjuhl1hm7rK89eK6wfnwxv37san7DeLJkK0oXW2dShpaZBIpsyfXbP3S44pbZ5LW7YXx4G82SthPoPchB8d99pG7Dxv/J7SLIGRJFrbPXbsWJnQKfW4HeU9g4hZx9/KKu+sBCfu3oor72UKqwcfz3+XWH3sirGXmdr9jzS9bR+xpOwQjR56fNgX9eW+Y1o+hi+W7ZjtVYmSYAgP8frs+e44lg7GT4btd0k++hgpo9f8qa/Qy52fMj5GBOSgrYUZ3wfZQyRmlzOMg5Y//GO6Mh2tz5OiUED7L2aFxXNRTRVg1MkpaOd1hL1zxrixxGqdMEV777ZbximbJ0fsCVx4/oKgeO8ZV7TmtdQ6+TlvC7tDXyKmPv2s87YmG+fPePOXssgqLGPvR/f6oWPLvUok/i7V2SpqKX1Ti6RUYKPYP+50bC6FczjugaPDqW/jIAsFTAW+PTd8XQ7bw/81IanEZiR3xC2PUg/lnnnrgfD4ZQZaHVT9oDf45fU7niD+iqQyvxUH566wgSfh2Df4fqka/dqIB3u913ZZ4CAAAAAAAAAAAAAAAAAAAAAAAAAAAAwJ3AihX/C27th3FV6LjcAAAAAElFTkSuQmCC;" vertex="1" parent="1">
          <mxGeometry x="118.97" y="125.76923076923077" width="52.96" height="17.230769230769234" as="geometry" />
        </mxCell>
        <mxCell id="zbF90gA1H5KHamxqbV0r-34" value="" style="shape=mxgraph.cisco.people.standing_man;html=1;pointerEvents=1;dashed=0;fillColor=#036897;strokeColor=#ffffff;strokeWidth=2;verticalLabelPosition=bottom;verticalAlign=top;align=center;outlineConnect=0;" vertex="1" parent="1">
          <mxGeometry x="135.03" y="92" width="22" height="42.47" as="geometry" />
        </mxCell>
        <mxCell id="zbF90gA1H5KHamxqbV0r-35" value="" style="group" vertex="1" connectable="0" parent="1">
          <mxGeometry x="478" y="90" width="60" height="58" as="geometry" />
        </mxCell>
        <mxCell id="zbF90gA1H5KHamxqbV0r-36" value="" style="shape=image;verticalLabelPosition=bottom;labelBackgroundColor=default;verticalAlign=top;aspect=fixed;imageAspect=0;image=data:image/png,iVBORw0KGgoAAAANSUhEUgAAANEAAABECAYAAAAfkdAfAAAAAXNSR0IArs4c6QAAAARnQU1BAACxjwv8YQUAAAAJcEhZcwAAFxEAABcRAcom8z8AAA5uSURBVHhe7Z0LbFvndce9pC3SJF2W7FHPWxe3SIsscdDY5H1fkqIkSnJqLIFnWeS9l2+JkvV+2l43lAjWoBiyzW3nWuTlS5QoiaQlS7LlWLYsyZIly7JTu2kSCGgadzGSNJuXNnHkp0jefR9NI4/RRZx4jkWdH/AHKUqEyO87555zvtddAQAAAAAAAAAAAAAAAAAAAAAAAAAAAABLgtLS+FcyTz8Ga/Svop2xhz76e13pzvsLXd4HSt2vfOw9G1x77y1VlLszP6bRuSe+lHkKAEsLbOi6htCfENb4SsYaepSqH/p6aXX8fmKzR0sb5c2kGHRQYrCBlfw23t5j4p1RO2UN2SjR106Y/IOk6B/hnLHD2or+Ht7VN0abw7tJMfAybYscZp3xEc7eK3OOaBdlCgxTkn+KdUb38ZX97Zw94qMEX4CQfOO0szvAO6J1tLWrTm2S/4US/M/y5d0q3tVVoBa869cJQUFnDa3EDkqgR/x5Mx8fAG4ftBhch4w/j7F2P0NbAptpKdDE2iJu3ta9Q+vqe15XNbRfWzU4w5f3z2tcg+9rXYOX8+tHrxTUHz5vaDp6CT1eyq8fS+bXH04UNE5cKWyeThRvnUs+9Q+nleKtx5HmlOLWmVTx1heR5pLrt/382mtts+j1WfS3J5Prt+PXTqCfjymGlhn02okkei/+e6WwaSpZ2HgkUdg0nTA0TV3Jrzuc0G0ZvqqvHU3qaw/+N+eMnucc8V+xjthv+Kr+dlII9JKivBc58/OUENyoEuSnaauPQ99xNf6+KhTtVC7vl9NfHgA+LTilUotegrJ2/j2KCM9Tlo4IJQVGuPLoa3zF7v/UVe9/BxnkawUN4wsFDRPnkeEqhQ3jSnHLTNrgS7a+qGCnuJN13TnxZ0WPqSL02fOqRxL6+tHLeTUjC5w99hZrj55l7NEJFAF/giLbv6IoyDOC/+G1SLqGHRDFgBUrqLL21Yw5vJaRQkbaGqkizR0R2t41wtp7XkOp0tn8hrH3ipqnLxW3zSXShociQMk2bHQnkBG+mNYnjTM3dCr9uH77qfR3LGw6mkQXihRyriRr701oXAO/5Z2xPsrkm2QEbythkkXC7GF01aGViqL8UaZ5gVzCrSh38Vu6H8S1ir6y87taW1DDl0d/hGqQAY1rzy90NcNn9Q1j76P0agFfkXGahB0FO8z/NTBQJp1MoRQzZWg+qmgqBxW+vO88aQ2/RJh8JyiLfxtnDqOotfNha2jinkw3AEsRRupcoxaDBCnJFpSSdaDaZR7VK/MoFbuAUrGPpV/gMJ9PuP1w1MLtmVeLIpZz92XOGf+d2uQ9zUqBrbw1VEDZPZTK+yLUV3cyLq/3y5Qt+G3SJmuQw+xAHTmrqez7dV7NCyjCHEsWbzuZTstAt0c4YqHInipsmkxx5X0oDdzzO8LkjZKC54fqzbvW6CTfI5muA74oDFLnfeqyn32DlIL5pNX3A0pKDxW/wlcMfKCvOXg5HWlaZ6/VL6hDs3U06PYpPYiBUuX8utF0CshYw1OonuonUXqNL36ZbgVuF1pn799y5i4HY+mUWUf0JV31/vcKmiYvXS+KQXe+8LB8fv3hFHKoFCH65wmjJ8xZQzSey8p0M3ArwYMD7omJLxVXdzxO2zq+z9i7X0E593mUfyeKcaqGCt1sHQVaGipsnMS1lMJYIgpyqGnCKP8TqmW/WRqPf2xFBvAZoW3BJyhjQKIk3zBr63mVd/RdRenaVZwaQJqWW8L9qa8/pHAVfQlC8CVIQf4ZY+1+VGXy/lnGHIBPi6rU+wBfJn8H1TnPElLgIGXu/HVe9YFEegh668msHQDKHV2bBJ5FtdOAojZ63ka1U6dK9FZmzAP4Q9CbYl9V2wPf4s3hDaQYmEZXpDP6utGLeN4mW2ODcl94RQXviKVQZPq92rTrp3iSPGMuwCehnb6HcGFJS0E3Y+06o6s+cMHQfBTVOjBYADqt6OsOKYyjV0FRCUWnXe6M2QDX4Vzhv6HMoQrK0nGAdUQv5jeMJ4rbjqcXZoJA14UzEuxMhBhIqsraR0lR/uuMCS1vKFvwKULyPUebw6+w5TGlKL2KGUbbQDdWft1YijZ3LhJG+W1CkG0ZU1qeMKK8iRTkCdbW/a6mcghFn6WxChr0xQovjsVLjPjyPkVd5nkJpXjbluWGRFT/5JGCb4axRd7VbdmfKGk7rjyFGidbo4FA2WRoOaqwjpiiMnnPUkb/s/FP7PTNWeJx5W5ddewRWvT3Iwd6S1u1L1XUOpvCV5dsDQUC3UjpiNQ2m+Ic8aTK6DmLL8wql/fejKnlLpSx5+uM6G8gxcA7XHl/orBhAjkQTJqCPrvwlgyVUb6kErwn6Vxf2Kqzhu4prhxYTRh987TY8Z6+/lAKtiGAPq+KUR2trRpWCJPnHULy7diwIcejEWmWG0nR9zLr3J3AZwdkaxQQ6GaEB6MKGiYU2tx5VW1sn2Ic/jU5u8v2KWtoJSHK/06IwTPaqr0pGIkD3Qrh2qio7ZjCWruThFGeZ2yhUqml876M2eUOeCU2a/arSUHeRYrBhby6Qzl8TgHodgvX1bQtkiCFwJuk4G99zOl7KGN6uQW6SjyuNnn3IX1gaJ5CYRjWxIFujYrajqc4R2yRNPneZCR/66ZNsa9mzC63UG8MfIsyef+REn349JhUSdtc1gYBgW5KKJ0rqB9LMo7eRcLkO8OjdC5nnYis6/pjlNJVEIL/HOeMpg8czNooINBNCI/O4QMxKSn4vlrw/urvagZXWd2h3DxpKB6P382ag08TojxKmTuThqbJrI0CAt2MDC1HU7xrIEkJgUVK8D3HOnpW5fSuWHy4CC3IP1SXed7WVu2DwQXQ5xKeJsGpHGvrvaA2euf48g4V3tSZMbfcxO1W7vre9uEHSZNniLJ2JfJqDsCiU9BnEp6oL2icTPKuPYsqk/e3pOAvXSd2/WXG1HIfteDbSAjyfkoM4lNfsjYSCHRj/VwpaDqSYBzRRVIMnaMlXy1fHv5OxryWBxtc3ns5S2A9YZKHGVu3YmieTI/1Z28wEOgjQnZSiByIc8YWUTbzJmn2/YCzdDyeMa3lB7FZLlab2mdRRLqQV30g3UBZGw4EQkqncA3jCQ5FIMocnsEORFl74dwFfNMposwzpC7z/I8eORLMH4GyCU/O6+sOXWHtvedIc/AF0hxoLHW7s951cNlCCu1NpCCfIsVAIq/6hawNCVp+wtHH0Dyd0FQNJTh790laCv2Ys/k2wuGON2Ctw79qndFTQwjyG6yjNz2Ema1hQctDxa2zSX3t6BXOEfsvSgq2M/bAJkaIPJwxF+AP8aSx3aAyyl51WftbmopBfIcBmFNaJsIDTIXNU4qmat9l1tHzS1L0j1JSpxFlKI+xjsGvZUwE+LTQtsgThMm7kzZ3vM7aepP66oOZhobt5LmmotZjir5+LME6ohdYe/cYSu3jlOSp10jyNw2G5++D9O1zgM9loKztqwnjzgq1yXOatnYp+toRJb9+NGtngJaOSradVAwt0wld9QsLKGVbIC2hN2hRruPEEF1kC34jYwLArYRuiqVPSlUbPWFSCszzzrhiaJpMFePTgrJ0EujOVHHbHL4XLB5Ausg642cZc2cXJYTqIV27zTAm76O06KskjZ4Rxto5p3UN4tW8qIOOp0d0snUe6IsQvmn0SZSuTSt5NSNXdFV7zzD2nmlU68RVxoBpnTFAaSqW0XKdOxVebH+MFnycusy7hxDkAY1rYCFvy3CqpBWP7kH99EWoqGXmSkHDxEVt5dBFztl3mbV1nWIsXRHa7K/D2QQj7foLmOe5Q7FaJ+5RmwM6FJ2eQVe7IC11HNWU91/VuIYSBfVj1w7JxwMTMDhxC3QqHWXwOdn4nlE42qAaR0EXsN/wFX1zlDXyHOvotPGVXY+tFXbC0PRSRVcdX8lZ5MdpyS+qTfJPUCoxzjoi8/qa/Ze0VUOp4tbj6RQQhtBvTobmyasFTZMLqK55l3fufoO2hl9lbd37KHNou1rwlaGM4Em89cVqzdENcssZtzv+FVqKPaIWvOvXGds3EyZvD4pYx1G0GtW6BlD6sTeJN3rhY5iKWo5lNaDlIjwAUNQyvVjQMI4uOHvfYxy9lygxqKjKPEdUpvYORgrUkObg06zDvwor08TAcoW2dPwVytPXcPYwn76SGuX/YG09Yc4RO0PbIguaLcPn8utGk8i5EgWNY4mSbdcOWkFRbMkcQoknMj9Mv2bR8xPpOTdD09QVfd1oQrdlWOEr+hXK3HGJsXb/graFB2hr1y4UvU2MFGTVZTDsDNwk+MALLF1l72rG4tcSJr9ICXIFY43UIKebJYXABOfsHde4Bo6wjuhl1hm7rK89eK6wfnwxv37san7DeLJkK0oXW2dShpaZBIpsyfXbP3S44pbZ5LW7YXx4G82SthPoPchB8d99pG7Dxv/J7SLIGRJFrbPXbsWJnQKfW4HeU9g4hZx9/KKu+sBCfu3oor72UKqwcfz3+XWH3sirGXmdr9jzS9bR+xpOwQjR56fNgX9eW+Y1o+hi+W7ZjtVYmSYAgP8frs+e44lg7GT4btd0k++hgpo9f8qa/Qy52fMj5GBOSgrYUZ3wfZQyRmlzOMg5Y//GO6Mh2tz5OiUED7L2aFxXNRTRVg1MkpaOd1hL1zxrixxGqdMEV777ZbximbJ0fsCVx4/oKgeO8ZV7TmtdQ6+TlvC7tDXyKmPv2s87YmG+fPePOXssgqLGPvR/f6oWPLvUok/i7V2SpqKX1Ti6RUYKPYP+50bC6FczjugaPDqW/jIAsFTAW+PTd8XQ7bw/81IanEZiR3xC2PUg/lnnnrgfD4ZQZaHVT9oDf45fU7niD+iqQyvxUH566wgSfh2Df4fqka/dqIB3u913ZZ4CAAAAAAAAAAAAAAAAAAAAAAAAAAAAwJ3AihX/C27th3FV6LjcAAAAAElFTkSuQmCC;" vertex="1" parent="zbF90gA1H5KHamxqbV0r-35">
          <mxGeometry y="37.179487179487175" width="51.22682572948573" height="16.666873349123875" as="geometry" />
        </mxCell>
        <mxCell id="zbF90gA1H5KHamxqbV0r-37" value="" style="shape=mxgraph.cisco.people.standing_woman;html=1;pointerEvents=1;dashed=0;fillColor=#036897;strokeColor=#ffffff;strokeWidth=2;verticalLabelPosition=bottom;verticalAlign=top;align=center;outlineConnect=0;" vertex="1" parent="zbF90gA1H5KHamxqbV0r-35">
          <mxGeometry x="18.46183630906743" width="15.338136184057634" height="46.1025641025641" as="geometry" />
        </mxCell>
        <mxCell id="zbF90gA1H5KHamxqbV0r-38" value="" style="shape=image;verticalLabelPosition=bottom;labelBackgroundColor=default;verticalAlign=top;aspect=fixed;imageAspect=0;image=data:image/png,iVBORw0KGgoAAAANSUhEUgAAANEAAABECAYAAAAfkdAfAAAAAXNSR0IArs4c6QAAAARnQU1BAACxjwv8YQUAAAAJcEhZcwAAFxEAABcRAcom8z8AAA5uSURBVHhe7Z0LbFvndce9pC3SJF2W7FHPWxe3SIsscdDY5H1fkqIkSnJqLIFnWeS9l2+JkvV+2l43lAjWoBiyzW3nWuTlS5QoiaQlS7LlWLYsyZIly7JTu2kSCGgadzGSNJuXNnHkp0jefR9NI4/RRZx4jkWdH/AHKUqEyO87555zvtddAQAAAAAAAAAAAAAAAAAAAAAAAAAAAABLgtLS+FcyTz8Ga/Svop2xhz76e13pzvsLXd4HSt2vfOw9G1x77y1VlLszP6bRuSe+lHkKAEsLbOi6htCfENb4SsYaepSqH/p6aXX8fmKzR0sb5c2kGHRQYrCBlfw23t5j4p1RO2UN2SjR106Y/IOk6B/hnLHD2or+Ht7VN0abw7tJMfAybYscZp3xEc7eK3OOaBdlCgxTkn+KdUb38ZX97Zw94qMEX4CQfOO0szvAO6J1tLWrTm2S/4US/M/y5d0q3tVVoBa869cJQUFnDa3EDkqgR/x5Mx8fAG4ftBhch4w/j7F2P0NbAptpKdDE2iJu3ta9Q+vqe15XNbRfWzU4w5f3z2tcg+9rXYOX8+tHrxTUHz5vaDp6CT1eyq8fS+bXH04UNE5cKWyeThRvnUs+9Q+nleKtx5HmlOLWmVTx1heR5pLrt/382mtts+j1WfS3J5Prt+PXTqCfjymGlhn02okkei/+e6WwaSpZ2HgkUdg0nTA0TV3Jrzuc0G0ZvqqvHU3qaw/+N+eMnucc8V+xjthv+Kr+dlII9JKivBc58/OUENyoEuSnaauPQ99xNf6+KhTtVC7vl9NfHgA+LTilUotegrJ2/j2KCM9Tlo4IJQVGuPLoa3zF7v/UVe9/BxnkawUN4wsFDRPnkeEqhQ3jSnHLTNrgS7a+qGCnuJN13TnxZ0WPqSL02fOqRxL6+tHLeTUjC5w99hZrj55l7NEJFAF/giLbv6IoyDOC/+G1SLqGHRDFgBUrqLL21Yw5vJaRQkbaGqkizR0R2t41wtp7XkOp0tn8hrH3ipqnLxW3zSXShociQMk2bHQnkBG+mNYnjTM3dCr9uH77qfR3LGw6mkQXihRyriRr701oXAO/5Z2xPsrkm2QEbythkkXC7GF01aGViqL8UaZ5gVzCrSh38Vu6H8S1ir6y87taW1DDl0d/hGqQAY1rzy90NcNn9Q1j76P0agFfkXGahB0FO8z/NTBQJp1MoRQzZWg+qmgqBxW+vO88aQ2/RJh8JyiLfxtnDqOotfNha2jinkw3AEsRRupcoxaDBCnJFpSSdaDaZR7VK/MoFbuAUrGPpV/gMJ9PuP1w1MLtmVeLIpZz92XOGf+d2uQ9zUqBrbw1VEDZPZTK+yLUV3cyLq/3y5Qt+G3SJmuQw+xAHTmrqez7dV7NCyjCHEsWbzuZTstAt0c4YqHInipsmkxx5X0oDdzzO8LkjZKC54fqzbvW6CTfI5muA74oDFLnfeqyn32DlIL5pNX3A0pKDxW/wlcMfKCvOXg5HWlaZ6/VL6hDs3U06PYpPYiBUuX8utF0CshYw1OonuonUXqNL36ZbgVuF1pn799y5i4HY+mUWUf0JV31/vcKmiYvXS+KQXe+8LB8fv3hFHKoFCH65wmjJ8xZQzSey8p0M3ArwYMD7omJLxVXdzxO2zq+z9i7X0E593mUfyeKcaqGCt1sHQVaGipsnMS1lMJYIgpyqGnCKP8TqmW/WRqPf2xFBvAZoW3BJyhjQKIk3zBr63mVd/RdRenaVZwaQJqWW8L9qa8/pHAVfQlC8CVIQf4ZY+1+VGXy/lnGHIBPi6rU+wBfJn8H1TnPElLgIGXu/HVe9YFEegh668msHQDKHV2bBJ5FtdOAojZ63ka1U6dK9FZmzAP4Q9CbYl9V2wPf4s3hDaQYmEZXpDP6utGLeN4mW2ODcl94RQXviKVQZPq92rTrp3iSPGMuwCehnb6HcGFJS0E3Y+06o6s+cMHQfBTVOjBYADqt6OsOKYyjV0FRCUWnXe6M2QDX4Vzhv6HMoQrK0nGAdUQv5jeMJ4rbjqcXZoJA14UzEuxMhBhIqsraR0lR/uuMCS1vKFvwKULyPUebw6+w5TGlKL2KGUbbQDdWft1YijZ3LhJG+W1CkG0ZU1qeMKK8iRTkCdbW/a6mcghFn6WxChr0xQovjsVLjPjyPkVd5nkJpXjbluWGRFT/5JGCb4axRd7VbdmfKGk7rjyFGidbo4FA2WRoOaqwjpiiMnnPUkb/s/FP7PTNWeJx5W5ddewRWvT3Iwd6S1u1L1XUOpvCV5dsDQUC3UjpiNQ2m+Ic8aTK6DmLL8wql/fejKnlLpSx5+uM6G8gxcA7XHl/orBhAjkQTJqCPrvwlgyVUb6kErwn6Vxf2Kqzhu4prhxYTRh987TY8Z6+/lAKtiGAPq+KUR2trRpWCJPnHULy7diwIcejEWmWG0nR9zLr3J3AZwdkaxQQ6GaEB6MKGiYU2tx5VW1sn2Ic/jU5u8v2KWtoJSHK/06IwTPaqr0pGIkD3Qrh2qio7ZjCWruThFGeZ2yhUqml876M2eUOeCU2a/arSUHeRYrBhby6Qzl8TgHodgvX1bQtkiCFwJuk4G99zOl7KGN6uQW6SjyuNnn3IX1gaJ5CYRjWxIFujYrajqc4R2yRNPneZCR/66ZNsa9mzC63UG8MfIsyef+REn349JhUSdtc1gYBgW5KKJ0rqB9LMo7eRcLkO8OjdC5nnYis6/pjlNJVEIL/HOeMpg8czNooINBNCI/O4QMxKSn4vlrw/urvagZXWd2h3DxpKB6P382ag08TojxKmTuThqbJrI0CAt2MDC1HU7xrIEkJgUVK8D3HOnpW5fSuWHy4CC3IP1SXed7WVu2DwQXQ5xKeJsGpHGvrvaA2euf48g4V3tSZMbfcxO1W7vre9uEHSZNniLJ2JfJqDsCiU9BnEp6oL2icTPKuPYsqk/e3pOAvXSd2/WXG1HIfteDbSAjyfkoM4lNfsjYSCHRj/VwpaDqSYBzRRVIMnaMlXy1fHv5OxryWBxtc3ns5S2A9YZKHGVu3YmieTI/1Z28wEOgjQnZSiByIc8YWUTbzJmn2/YCzdDyeMa3lB7FZLlab2mdRRLqQV30g3UBZGw4EQkqncA3jCQ5FIMocnsEORFl74dwFfNMposwzpC7z/I8eORLMH4GyCU/O6+sOXWHtvedIc/AF0hxoLHW7s951cNlCCu1NpCCfIsVAIq/6hawNCVp+wtHH0Dyd0FQNJTh790laCv2Ys/k2wuGON2Ctw79qndFTQwjyG6yjNz2Ema1hQctDxa2zSX3t6BXOEfsvSgq2M/bAJkaIPJwxF+AP8aSx3aAyyl51WftbmopBfIcBmFNaJsIDTIXNU4qmat9l1tHzS1L0j1JSpxFlKI+xjsGvZUwE+LTQtsgThMm7kzZ3vM7aepP66oOZhobt5LmmotZjir5+LME6ohdYe/cYSu3jlOSp10jyNw2G5++D9O1zgM9loKztqwnjzgq1yXOatnYp+toRJb9+NGtngJaOSradVAwt0wld9QsLKGVbIC2hN2hRruPEEF1kC34jYwLArYRuiqVPSlUbPWFSCszzzrhiaJpMFePTgrJ0EujOVHHbHL4XLB5Ausg642cZc2cXJYTqIV27zTAm76O06KskjZ4Rxto5p3UN4tW8qIOOp0d0snUe6IsQvmn0SZSuTSt5NSNXdFV7zzD2nmlU68RVxoBpnTFAaSqW0XKdOxVebH+MFnycusy7hxDkAY1rYCFvy3CqpBWP7kH99EWoqGXmSkHDxEVt5dBFztl3mbV1nWIsXRHa7K/D2QQj7foLmOe5Q7FaJ+5RmwM6FJ2eQVe7IC11HNWU91/VuIYSBfVj1w7JxwMTMDhxC3QqHWXwOdn4nlE42qAaR0EXsN/wFX1zlDXyHOvotPGVXY+tFXbC0PRSRVcdX8lZ5MdpyS+qTfJPUCoxzjoi8/qa/Ze0VUOp4tbj6RQQhtBvTobmyasFTZMLqK55l3fufoO2hl9lbd37KHNou1rwlaGM4Em89cVqzdENcssZtzv+FVqKPaIWvOvXGds3EyZvD4pYx1G0GtW6BlD6sTeJN3rhY5iKWo5lNaDlIjwAUNQyvVjQMI4uOHvfYxy9lygxqKjKPEdUpvYORgrUkObg06zDvwor08TAcoW2dPwVytPXcPYwn76SGuX/YG09Yc4RO0PbIguaLcPn8utGk8i5EgWNY4mSbdcOWkFRbMkcQoknMj9Mv2bR8xPpOTdD09QVfd1oQrdlWOEr+hXK3HGJsXb/graFB2hr1y4UvU2MFGTVZTDsDNwk+MALLF1l72rG4tcSJr9ICXIFY43UIKebJYXABOfsHde4Bo6wjuhl1hm7rK89eK6wfnwxv37san7DeLJkK0oXW2dShpaZBIpsyfXbP3S44pbZ5LW7YXx4G82SthPoPchB8d99pG7Dxv/J7SLIGRJFrbPXbsWJnQKfW4HeU9g4hZx9/KKu+sBCfu3oor72UKqwcfz3+XWH3sirGXmdr9jzS9bR+xpOwQjR56fNgX9eW+Y1o+hi+W7ZjtVYmSYAgP8frs+e44lg7GT4btd0k++hgpo9f8qa/Qy52fMj5GBOSgrYUZ3wfZQyRmlzOMg5Y//GO6Mh2tz5OiUED7L2aFxXNRTRVg1MkpaOd1hL1zxrixxGqdMEV777ZbximbJ0fsCVx4/oKgeO8ZV7TmtdQ6+TlvC7tDXyKmPv2s87YmG+fPePOXssgqLGPvR/f6oWPLvUok/i7V2SpqKX1Ti6RUYKPYP+50bC6FczjugaPDqW/jIAsFTAW+PTd8XQ7bw/81IanEZiR3xC2PUg/lnnnrgfD4ZQZaHVT9oDf45fU7niD+iqQyvxUH566wgSfh2Df4fqka/dqIB3u913ZZ4CAAAAAAAAAAAAAAAAAAAAAAAAAAAAwJ3AihX/C27th3FV6LjcAAAAAElFTkSuQmCC;" vertex="1" parent="1">
          <mxGeometry x="506.97" y="125.76923076923077" width="52.96" height="17.230769230769234" as="geometry" />
        </mxCell>
        <mxCell id="zbF90gA1H5KHamxqbV0r-39" value="" style="shape=mxgraph.cisco.people.standing_man;html=1;pointerEvents=1;dashed=0;fillColor=#036897;strokeColor=#ffffff;strokeWidth=2;verticalLabelPosition=bottom;verticalAlign=top;align=center;outlineConnect=0;" vertex="1" parent="1">
          <mxGeometry x="523.03" y="92" width="22" height="42.47" as="geometry" />
        </mxCell>
        <mxCell id="zbF90gA1H5KHamxqbV0r-40" value="" style="group" vertex="1" connectable="0" parent="1">
          <mxGeometry x="488" y="100" width="60" height="58" as="geometry" />
        </mxCell>
        <mxCell id="zbF90gA1H5KHamxqbV0r-41" value="" style="shape=image;verticalLabelPosition=bottom;labelBackgroundColor=default;verticalAlign=top;aspect=fixed;imageAspect=0;image=data:image/png,iVBORw0KGgoAAAANSUhEUgAAANEAAABECAYAAAAfkdAfAAAAAXNSR0IArs4c6QAAAARnQU1BAACxjwv8YQUAAAAJcEhZcwAAFxEAABcRAcom8z8AAA5uSURBVHhe7Z0LbFvndce9pC3SJF2W7FHPWxe3SIsscdDY5H1fkqIkSnJqLIFnWeS9l2+JkvV+2l43lAjWoBiyzW3nWuTlS5QoiaQlS7LlWLYsyZIly7JTu2kSCGgadzGSNJuXNnHkp0jefR9NI4/RRZx4jkWdH/AHKUqEyO87555zvtddAQAAAAAAAAAAAAAAAAAAAAAAAAAAAABLgtLS+FcyTz8Ga/Svop2xhz76e13pzvsLXd4HSt2vfOw9G1x77y1VlLszP6bRuSe+lHkKAEsLbOi6htCfENb4SsYaepSqH/p6aXX8fmKzR0sb5c2kGHRQYrCBlfw23t5j4p1RO2UN2SjR106Y/IOk6B/hnLHD2or+Ht7VN0abw7tJMfAybYscZp3xEc7eK3OOaBdlCgxTkn+KdUb38ZX97Zw94qMEX4CQfOO0szvAO6J1tLWrTm2S/4US/M/y5d0q3tVVoBa869cJQUFnDa3EDkqgR/x5Mx8fAG4ftBhch4w/j7F2P0NbAptpKdDE2iJu3ta9Q+vqe15XNbRfWzU4w5f3z2tcg+9rXYOX8+tHrxTUHz5vaDp6CT1eyq8fS+bXH04UNE5cKWyeThRvnUs+9Q+nleKtx5HmlOLWmVTx1heR5pLrt/382mtts+j1WfS3J5Prt+PXTqCfjymGlhn02okkei/+e6WwaSpZ2HgkUdg0nTA0TV3Jrzuc0G0ZvqqvHU3qaw/+N+eMnucc8V+xjthv+Kr+dlII9JKivBc58/OUENyoEuSnaauPQ99xNf6+KhTtVC7vl9NfHgA+LTilUotegrJ2/j2KCM9Tlo4IJQVGuPLoa3zF7v/UVe9/BxnkawUN4wsFDRPnkeEqhQ3jSnHLTNrgS7a+qGCnuJN13TnxZ0WPqSL02fOqRxL6+tHLeTUjC5w99hZrj55l7NEJFAF/giLbv6IoyDOC/+G1SLqGHRDFgBUrqLL21Yw5vJaRQkbaGqkizR0R2t41wtp7XkOp0tn8hrH3ipqnLxW3zSXShociQMk2bHQnkBG+mNYnjTM3dCr9uH77qfR3LGw6mkQXihRyriRr701oXAO/5Z2xPsrkm2QEbythkkXC7GF01aGViqL8UaZ5gVzCrSh38Vu6H8S1ir6y87taW1DDl0d/hGqQAY1rzy90NcNn9Q1j76P0agFfkXGahB0FO8z/NTBQJp1MoRQzZWg+qmgqBxW+vO88aQ2/RJh8JyiLfxtnDqOotfNha2jinkw3AEsRRupcoxaDBCnJFpSSdaDaZR7VK/MoFbuAUrGPpV/gMJ9PuP1w1MLtmVeLIpZz92XOGf+d2uQ9zUqBrbw1VEDZPZTK+yLUV3cyLq/3y5Qt+G3SJmuQw+xAHTmrqez7dV7NCyjCHEsWbzuZTstAt0c4YqHInipsmkxx5X0oDdzzO8LkjZKC54fqzbvW6CTfI5muA74oDFLnfeqyn32DlIL5pNX3A0pKDxW/wlcMfKCvOXg5HWlaZ6/VL6hDs3U06PYpPYiBUuX8utF0CshYw1OonuonUXqNL36ZbgVuF1pn799y5i4HY+mUWUf0JV31/vcKmiYvXS+KQXe+8LB8fv3hFHKoFCH65wmjJ8xZQzSey8p0M3ArwYMD7omJLxVXdzxO2zq+z9i7X0E593mUfyeKcaqGCt1sHQVaGipsnMS1lMJYIgpyqGnCKP8TqmW/WRqPf2xFBvAZoW3BJyhjQKIk3zBr63mVd/RdRenaVZwaQJqWW8L9qa8/pHAVfQlC8CVIQf4ZY+1+VGXy/lnGHIBPi6rU+wBfJn8H1TnPElLgIGXu/HVe9YFEegh668msHQDKHV2bBJ5FtdOAojZ63ka1U6dK9FZmzAP4Q9CbYl9V2wPf4s3hDaQYmEZXpDP6utGLeN4mW2ODcl94RQXviKVQZPq92rTrp3iSPGMuwCehnb6HcGFJS0E3Y+06o6s+cMHQfBTVOjBYADqt6OsOKYyjV0FRCUWnXe6M2QDX4Vzhv6HMoQrK0nGAdUQv5jeMJ4rbjqcXZoJA14UzEuxMhBhIqsraR0lR/uuMCS1vKFvwKULyPUebw6+w5TGlKL2KGUbbQDdWft1YijZ3LhJG+W1CkG0ZU1qeMKK8iRTkCdbW/a6mcghFn6WxChr0xQovjsVLjPjyPkVd5nkJpXjbluWGRFT/5JGCb4axRd7VbdmfKGk7rjyFGidbo4FA2WRoOaqwjpiiMnnPUkb/s/FP7PTNWeJx5W5ddewRWvT3Iwd6S1u1L1XUOpvCV5dsDQUC3UjpiNQ2m+Ic8aTK6DmLL8wql/fejKnlLpSx5+uM6G8gxcA7XHl/orBhAjkQTJqCPrvwlgyVUb6kErwn6Vxf2Kqzhu4prhxYTRh987TY8Z6+/lAKtiGAPq+KUR2trRpWCJPnHULy7diwIcejEWmWG0nR9zLr3J3AZwdkaxQQ6GaEB6MKGiYU2tx5VW1sn2Ic/jU5u8v2KWtoJSHK/06IwTPaqr0pGIkD3Qrh2qio7ZjCWruThFGeZ2yhUqml876M2eUOeCU2a/arSUHeRYrBhby6Qzl8TgHodgvX1bQtkiCFwJuk4G99zOl7KGN6uQW6SjyuNnn3IX1gaJ5CYRjWxIFujYrajqc4R2yRNPneZCR/66ZNsa9mzC63UG8MfIsyef+REn349JhUSdtc1gYBgW5KKJ0rqB9LMo7eRcLkO8OjdC5nnYis6/pjlNJVEIL/HOeMpg8czNooINBNCI/O4QMxKSn4vlrw/urvagZXWd2h3DxpKB6P382ag08TojxKmTuThqbJrI0CAt2MDC1HU7xrIEkJgUVK8D3HOnpW5fSuWHy4CC3IP1SXed7WVu2DwQXQ5xKeJsGpHGvrvaA2euf48g4V3tSZMbfcxO1W7vre9uEHSZNniLJ2JfJqDsCiU9BnEp6oL2icTPKuPYsqk/e3pOAvXSd2/WXG1HIfteDbSAjyfkoM4lNfsjYSCHRj/VwpaDqSYBzRRVIMnaMlXy1fHv5OxryWBxtc3ns5S2A9YZKHGVu3YmieTI/1Z28wEOgjQnZSiByIc8YWUTbzJmn2/YCzdDyeMa3lB7FZLlab2mdRRLqQV30g3UBZGw4EQkqncA3jCQ5FIMocnsEORFl74dwFfNMposwzpC7z/I8eORLMH4GyCU/O6+sOXWHtvedIc/AF0hxoLHW7s951cNlCCu1NpCCfIsVAIq/6hawNCVp+wtHH0Dyd0FQNJTh790laCv2Ys/k2wuGON2Ctw79qndFTQwjyG6yjNz2Ema1hQctDxa2zSX3t6BXOEfsvSgq2M/bAJkaIPJwxF+AP8aSx3aAyyl51WftbmopBfIcBmFNaJsIDTIXNU4qmat9l1tHzS1L0j1JSpxFlKI+xjsGvZUwE+LTQtsgThMm7kzZ3vM7aepP66oOZhobt5LmmotZjir5+LME6ohdYe/cYSu3jlOSp10jyNw2G5++D9O1zgM9loKztqwnjzgq1yXOatnYp+toRJb9+NGtngJaOSradVAwt0wld9QsLKGVbIC2hN2hRruPEEF1kC34jYwLArYRuiqVPSlUbPWFSCszzzrhiaJpMFePTgrJ0EujOVHHbHL4XLB5Ausg642cZc2cXJYTqIV27zTAm76O06KskjZ4Rxto5p3UN4tW8qIOOp0d0snUe6IsQvmn0SZSuTSt5NSNXdFV7zzD2nmlU68RVxoBpnTFAaSqW0XKdOxVebH+MFnycusy7hxDkAY1rYCFvy3CqpBWP7kH99EWoqGXmSkHDxEVt5dBFztl3mbV1nWIsXRHa7K/D2QQj7foLmOe5Q7FaJ+5RmwM6FJ2eQVe7IC11HNWU91/VuIYSBfVj1w7JxwMTMDhxC3QqHWXwOdn4nlE42qAaR0EXsN/wFX1zlDXyHOvotPGVXY+tFXbC0PRSRVcdX8lZ5MdpyS+qTfJPUCoxzjoi8/qa/Ze0VUOp4tbj6RQQhtBvTobmyasFTZMLqK55l3fufoO2hl9lbd37KHNou1rwlaGM4Em89cVqzdENcssZtzv+FVqKPaIWvOvXGds3EyZvD4pYx1G0GtW6BlD6sTeJN3rhY5iKWo5lNaDlIjwAUNQyvVjQMI4uOHvfYxy9lygxqKjKPEdUpvYORgrUkObg06zDvwor08TAcoW2dPwVytPXcPYwn76SGuX/YG09Yc4RO0PbIguaLcPn8utGk8i5EgWNY4mSbdcOWkFRbMkcQoknMj9Mv2bR8xPpOTdD09QVfd1oQrdlWOEr+hXK3HGJsXb/graFB2hr1y4UvU2MFGTVZTDsDNwk+MALLF1l72rG4tcSJr9ICXIFY43UIKebJYXABOfsHde4Bo6wjuhl1hm7rK89eK6wfnwxv37san7DeLJkK0oXW2dShpaZBIpsyfXbP3S44pbZ5LW7YXx4G82SthPoPchB8d99pG7Dxv/J7SLIGRJFrbPXbsWJnQKfW4HeU9g4hZx9/KKu+sBCfu3oor72UKqwcfz3+XWH3sirGXmdr9jzS9bR+xpOwQjR56fNgX9eW+Y1o+hi+W7ZjtVYmSYAgP8frs+e44lg7GT4btd0k++hgpo9f8qa/Qy52fMj5GBOSgrYUZ3wfZQyRmlzOMg5Y//GO6Mh2tz5OiUED7L2aFxXNRTRVg1MkpaOd1hL1zxrixxGqdMEV777ZbximbJ0fsCVx4/oKgeO8ZV7TmtdQ6+TlvC7tDXyKmPv2s87YmG+fPePOXssgqLGPvR/f6oWPLvUok/i7V2SpqKX1Ti6RUYKPYP+50bC6FczjugaPDqW/jIAsFTAW+PTd8XQ7bw/81IanEZiR3xC2PUg/lnnnrgfD4ZQZaHVT9oDf45fU7niD+iqQyvxUH566wgSfh2Df4fqka/dqIB3u913ZZ4CAAAAAAAAAAAAAAAAAAAAAAAAAAAAwJ3AihX/C27th3FV6LjcAAAAAElFTkSuQmCC;" vertex="1" parent="zbF90gA1H5KHamxqbV0r-40">
          <mxGeometry y="37.179487179487175" width="51.22682572948573" height="16.666873349123875" as="geometry" />
        </mxCell>
        <mxCell id="zbF90gA1H5KHamxqbV0r-42" value="" style="shape=mxgraph.cisco.people.standing_woman;html=1;pointerEvents=1;dashed=0;fillColor=#036897;strokeColor=#ffffff;strokeWidth=2;verticalLabelPosition=bottom;verticalAlign=top;align=center;outlineConnect=0;" vertex="1" parent="zbF90gA1H5KHamxqbV0r-40">
          <mxGeometry x="18.46183630906743" width="15.338136184057634" height="46.1025641025641" as="geometry" />
        </mxCell>
        <mxCell id="zbF90gA1H5KHamxqbV0r-43" value="" style="shape=image;verticalLabelPosition=bottom;labelBackgroundColor=default;verticalAlign=top;aspect=fixed;imageAspect=0;image=data:image/png,iVBORw0KGgoAAAANSUhEUgAAANEAAABECAYAAAAfkdAfAAAAAXNSR0IArs4c6QAAAARnQU1BAACxjwv8YQUAAAAJcEhZcwAAFxEAABcRAcom8z8AAA5uSURBVHhe7Z0LbFvndce9pC3SJF2W7FHPWxe3SIsscdDY5H1fkqIkSnJqLIFnWeS9l2+JkvV+2l43lAjWoBiyzW3nWuTlS5QoiaQlS7LlWLYsyZIly7JTu2kSCGgadzGSNJuXNnHkp0jefR9NI4/RRZx4jkWdH/AHKUqEyO87555zvtddAQAAAAAAAAAAAAAAAAAAAAAAAAAAAABLgtLS+FcyTz8Ga/Svop2xhz76e13pzvsLXd4HSt2vfOw9G1x77y1VlLszP6bRuSe+lHkKAEsLbOi6htCfENb4SsYaepSqH/p6aXX8fmKzR0sb5c2kGHRQYrCBlfw23t5j4p1RO2UN2SjR106Y/IOk6B/hnLHD2or+Ht7VN0abw7tJMfAybYscZp3xEc7eK3OOaBdlCgxTkn+KdUb38ZX97Zw94qMEX4CQfOO0szvAO6J1tLWrTm2S/4US/M/y5d0q3tVVoBa869cJQUFnDa3EDkqgR/x5Mx8fAG4ftBhch4w/j7F2P0NbAptpKdDE2iJu3ta9Q+vqe15XNbRfWzU4w5f3z2tcg+9rXYOX8+tHrxTUHz5vaDp6CT1eyq8fS+bXH04UNE5cKWyeThRvnUs+9Q+nleKtx5HmlOLWmVTx1heR5pLrt/382mtts+j1WfS3J5Prt+PXTqCfjymGlhn02okkei/+e6WwaSpZ2HgkUdg0nTA0TV3Jrzuc0G0ZvqqvHU3qaw/+N+eMnucc8V+xjthv+Kr+dlII9JKivBc58/OUENyoEuSnaauPQ99xNf6+KhTtVC7vl9NfHgA+LTilUotegrJ2/j2KCM9Tlo4IJQVGuPLoa3zF7v/UVe9/BxnkawUN4wsFDRPnkeEqhQ3jSnHLTNrgS7a+qGCnuJN13TnxZ0WPqSL02fOqRxL6+tHLeTUjC5w99hZrj55l7NEJFAF/giLbv6IoyDOC/+G1SLqGHRDFgBUrqLL21Yw5vJaRQkbaGqkizR0R2t41wtp7XkOp0tn8hrH3ipqnLxW3zSXShociQMk2bHQnkBG+mNYnjTM3dCr9uH77qfR3LGw6mkQXihRyriRr701oXAO/5Z2xPsrkm2QEbythkkXC7GF01aGViqL8UaZ5gVzCrSh38Vu6H8S1ir6y87taW1DDl0d/hGqQAY1rzy90NcNn9Q1j76P0agFfkXGahB0FO8z/NTBQJp1MoRQzZWg+qmgqBxW+vO88aQ2/RJh8JyiLfxtnDqOotfNha2jinkw3AEsRRupcoxaDBCnJFpSSdaDaZR7VK/MoFbuAUrGPpV/gMJ9PuP1w1MLtmVeLIpZz92XOGf+d2uQ9zUqBrbw1VEDZPZTK+yLUV3cyLq/3y5Qt+G3SJmuQw+xAHTmrqez7dV7NCyjCHEsWbzuZTstAt0c4YqHInipsmkxx5X0oDdzzO8LkjZKC54fqzbvW6CTfI5muA74oDFLnfeqyn32DlIL5pNX3A0pKDxW/wlcMfKCvOXg5HWlaZ6/VL6hDs3U06PYpPYiBUuX8utF0CshYw1OonuonUXqNL36ZbgVuF1pn799y5i4HY+mUWUf0JV31/vcKmiYvXS+KQXe+8LB8fv3hFHKoFCH65wmjJ8xZQzSey8p0M3ArwYMD7omJLxVXdzxO2zq+z9i7X0E593mUfyeKcaqGCt1sHQVaGipsnMS1lMJYIgpyqGnCKP8TqmW/WRqPf2xFBvAZoW3BJyhjQKIk3zBr63mVd/RdRenaVZwaQJqWW8L9qa8/pHAVfQlC8CVIQf4ZY+1+VGXy/lnGHIBPi6rU+wBfJn8H1TnPElLgIGXu/HVe9YFEegh668msHQDKHV2bBJ5FtdOAojZ63ka1U6dK9FZmzAP4Q9CbYl9V2wPf4s3hDaQYmEZXpDP6utGLeN4mW2ODcl94RQXviKVQZPq92rTrp3iSPGMuwCehnb6HcGFJS0E3Y+06o6s+cMHQfBTVOjBYADqt6OsOKYyjV0FRCUWnXe6M2QDX4Vzhv6HMoQrK0nGAdUQv5jeMJ4rbjqcXZoJA14UzEuxMhBhIqsraR0lR/uuMCS1vKFvwKULyPUebw6+w5TGlKL2KGUbbQDdWft1YijZ3LhJG+W1CkG0ZU1qeMKK8iRTkCdbW/a6mcghFn6WxChr0xQovjsVLjPjyPkVd5nkJpXjbluWGRFT/5JGCb4axRd7VbdmfKGk7rjyFGidbo4FA2WRoOaqwjpiiMnnPUkb/s/FP7PTNWeJx5W5ddewRWvT3Iwd6S1u1L1XUOpvCV5dsDQUC3UjpiNQ2m+Ic8aTK6DmLL8wql/fejKnlLpSx5+uM6G8gxcA7XHl/orBhAjkQTJqCPrvwlgyVUb6kErwn6Vxf2Kqzhu4prhxYTRh987TY8Z6+/lAKtiGAPq+KUR2trRpWCJPnHULy7diwIcejEWmWG0nR9zLr3J3AZwdkaxQQ6GaEB6MKGiYU2tx5VW1sn2Ic/jU5u8v2KWtoJSHK/06IwTPaqr0pGIkD3Qrh2qio7ZjCWruThFGeZ2yhUqml876M2eUOeCU2a/arSUHeRYrBhby6Qzl8TgHodgvX1bQtkiCFwJuk4G99zOl7KGN6uQW6SjyuNnn3IX1gaJ5CYRjWxIFujYrajqc4R2yRNPneZCR/66ZNsa9mzC63UG8MfIsyef+REn349JhUSdtc1gYBgW5KKJ0rqB9LMo7eRcLkO8OjdC5nnYis6/pjlNJVEIL/HOeMpg8czNooINBNCI/O4QMxKSn4vlrw/urvagZXWd2h3DxpKB6P382ag08TojxKmTuThqbJrI0CAt2MDC1HU7xrIEkJgUVK8D3HOnpW5fSuWHy4CC3IP1SXed7WVu2DwQXQ5xKeJsGpHGvrvaA2euf48g4V3tSZMbfcxO1W7vre9uEHSZNniLJ2JfJqDsCiU9BnEp6oL2icTPKuPYsqk/e3pOAvXSd2/WXG1HIfteDbSAjyfkoM4lNfsjYSCHRj/VwpaDqSYBzRRVIMnaMlXy1fHv5OxryWBxtc3ns5S2A9YZKHGVu3YmieTI/1Z28wEOgjQnZSiByIc8YWUTbzJmn2/YCzdDyeMa3lB7FZLlab2mdRRLqQV30g3UBZGw4EQkqncA3jCQ5FIMocnsEORFl74dwFfNMposwzpC7z/I8eORLMH4GyCU/O6+sOXWHtvedIc/AF0hxoLHW7s951cNlCCu1NpCCfIsVAIq/6hawNCVp+wtHH0Dyd0FQNJTh790laCv2Ys/k2wuGON2Ctw79qndFTQwjyG6yjNz2Ema1hQctDxa2zSX3t6BXOEfsvSgq2M/bAJkaIPJwxF+AP8aSx3aAyyl51WftbmopBfIcBmFNaJsIDTIXNU4qmat9l1tHzS1L0j1JSpxFlKI+xjsGvZUwE+LTQtsgThMm7kzZ3vM7aepP66oOZhobt5LmmotZjir5+LME6ohdYe/cYSu3jlOSp10jyNw2G5++D9O1zgM9loKztqwnjzgq1yXOatnYp+toRJb9+NGtngJaOSradVAwt0wld9QsLKGVbIC2hN2hRruPEEF1kC34jYwLArYRuiqVPSlUbPWFSCszzzrhiaJpMFePTgrJ0EujOVHHbHL4XLB5Ausg642cZc2cXJYTqIV27zTAm76O06KskjZ4Rxto5p3UN4tW8qIOOp0d0snUe6IsQvmn0SZSuTSt5NSNXdFV7zzD2nmlU68RVxoBpnTFAaSqW0XKdOxVebH+MFnycusy7hxDkAY1rYCFvy3CqpBWP7kH99EWoqGXmSkHDxEVt5dBFztl3mbV1nWIsXRHa7K/D2QQj7foLmOe5Q7FaJ+5RmwM6FJ2eQVe7IC11HNWU91/VuIYSBfVj1w7JxwMTMDhxC3QqHWXwOdn4nlE42qAaR0EXsN/wFX1zlDXyHOvotPGVXY+tFXbC0PRSRVcdX8lZ5MdpyS+qTfJPUCoxzjoi8/qa/Ze0VUOp4tbj6RQQhtBvTobmyasFTZMLqK55l3fufoO2hl9lbd37KHNou1rwlaGM4Em89cVqzdENcssZtzv+FVqKPaIWvOvXGds3EyZvD4pYx1G0GtW6BlD6sTeJN3rhY5iKWo5lNaDlIjwAUNQyvVjQMI4uOHvfYxy9lygxqKjKPEdUpvYORgrUkObg06zDvwor08TAcoW2dPwVytPXcPYwn76SGuX/YG09Yc4RO0PbIguaLcPn8utGk8i5EgWNY4mSbdcOWkFRbMkcQoknMj9Mv2bR8xPpOTdD09QVfd1oQrdlWOEr+hXK3HGJsXb/graFB2hr1y4UvU2MFGTVZTDsDNwk+MALLF1l72rG4tcSJr9ICXIFY43UIKebJYXABOfsHde4Bo6wjuhl1hm7rK89eK6wfnwxv37san7DeLJkK0oXW2dShpaZBIpsyfXbP3S44pbZ5LW7YXx4G82SthPoPchB8d99pG7Dxv/J7SLIGRJFrbPXbsWJnQKfW4HeU9g4hZx9/KKu+sBCfu3oor72UKqwcfz3+XWH3sirGXmdr9jzS9bR+xpOwQjR56fNgX9eW+Y1o+hi+W7ZjtVYmSYAgP8frs+e44lg7GT4btd0k++hgpo9f8qa/Qy52fMj5GBOSgrYUZ3wfZQyRmlzOMg5Y//GO6Mh2tz5OiUED7L2aFxXNRTRVg1MkpaOd1hL1zxrixxGqdMEV777ZbximbJ0fsCVx4/oKgeO8ZV7TmtdQ6+TlvC7tDXyKmPv2s87YmG+fPePOXssgqLGPvR/f6oWPLvUok/i7V2SpqKX1Ti6RUYKPYP+50bC6FczjugaPDqW/jIAsFTAW+PTd8XQ7bw/81IanEZiR3xC2PUg/lnnnrgfD4ZQZaHVT9oDf45fU7niD+iqQyvxUH566wgSfh2Df4fqka/dqIB3u913ZZ4CAAAAAAAAAAAAAAAAAAAAAAAAAAAAwJ3AihX/C27th3FV6LjcAAAAAElFTkSuQmCC;" vertex="1" parent="1">
          <mxGeometry x="516.97" y="135.76923076923077" width="52.96" height="17.230769230769234" as="geometry" />
        </mxCell>
        <mxCell id="zbF90gA1H5KHamxqbV0r-44" value="" style="shape=mxgraph.cisco.people.standing_man;html=1;pointerEvents=1;dashed=0;fillColor=#036897;strokeColor=#ffffff;strokeWidth=2;verticalLabelPosition=bottom;verticalAlign=top;align=center;outlineConnect=0;" vertex="1" parent="1">
          <mxGeometry x="533.03" y="102" width="22" height="42.47" as="geometry" />
        </mxCell>
        <mxCell id="zbF90gA1H5KHamxqbV0r-108" value="" style="group" vertex="1" connectable="0" parent="1">
          <mxGeometry x="84" y="13" width="60" height="58" as="geometry" />
        </mxCell>
        <mxCell id="zbF90gA1H5KHamxqbV0r-109" value="" style="shape=image;verticalLabelPosition=bottom;labelBackgroundColor=default;verticalAlign=top;aspect=fixed;imageAspect=0;image=data:image/png,iVBORw0KGgoAAAANSUhEUgAAANEAAABECAYAAAAfkdAfAAAAAXNSR0IArs4c6QAAAARnQU1BAACxjwv8YQUAAAAJcEhZcwAAFxEAABcRAcom8z8AAA5uSURBVHhe7Z0LbFvndce9pC3SJF2W7FHPWxe3SIsscdDY5H1fkqIkSnJqLIFnWeS9l2+JkvV+2l43lAjWoBiyzW3nWuTlS5QoiaQlS7LlWLYsyZIly7JTu2kSCGgadzGSNJuXNnHkp0jefR9NI4/RRZx4jkWdH/AHKUqEyO87555zvtddAQAAAAAAAAAAAAAAAAAAAAAAAAAAAABLgtLS+FcyTz8Ga/Svop2xhz76e13pzvsLXd4HSt2vfOw9G1x77y1VlLszP6bRuSe+lHkKAEsLbOi6htCfENb4SsYaepSqH/p6aXX8fmKzR0sb5c2kGHRQYrCBlfw23t5j4p1RO2UN2SjR106Y/IOk6B/hnLHD2or+Ht7VN0abw7tJMfAybYscZp3xEc7eK3OOaBdlCgxTkn+KdUb38ZX97Zw94qMEX4CQfOO0szvAO6J1tLWrTm2S/4US/M/y5d0q3tVVoBa869cJQUFnDa3EDkqgR/x5Mx8fAG4ftBhch4w/j7F2P0NbAptpKdDE2iJu3ta9Q+vqe15XNbRfWzU4w5f3z2tcg+9rXYOX8+tHrxTUHz5vaDp6CT1eyq8fS+bXH04UNE5cKWyeThRvnUs+9Q+nleKtx5HmlOLWmVTx1heR5pLrt/382mtts+j1WfS3J5Prt+PXTqCfjymGlhn02okkei/+e6WwaSpZ2HgkUdg0nTA0TV3Jrzuc0G0ZvqqvHU3qaw/+N+eMnucc8V+xjthv+Kr+dlII9JKivBc58/OUENyoEuSnaauPQ99xNf6+KhTtVC7vl9NfHgA+LTilUotegrJ2/j2KCM9Tlo4IJQVGuPLoa3zF7v/UVe9/BxnkawUN4wsFDRPnkeEqhQ3jSnHLTNrgS7a+qGCnuJN13TnxZ0WPqSL02fOqRxL6+tHLeTUjC5w99hZrj55l7NEJFAF/giLbv6IoyDOC/+G1SLqGHRDFgBUrqLL21Yw5vJaRQkbaGqkizR0R2t41wtp7XkOp0tn8hrH3ipqnLxW3zSXShociQMk2bHQnkBG+mNYnjTM3dCr9uH77qfR3LGw6mkQXihRyriRr701oXAO/5Z2xPsrkm2QEbythkkXC7GF01aGViqL8UaZ5gVzCrSh38Vu6H8S1ir6y87taW1DDl0d/hGqQAY1rzy90NcNn9Q1j76P0agFfkXGahB0FO8z/NTBQJp1MoRQzZWg+qmgqBxW+vO88aQ2/RJh8JyiLfxtnDqOotfNha2jinkw3AEsRRupcoxaDBCnJFpSSdaDaZR7VK/MoFbuAUrGPpV/gMJ9PuP1w1MLtmVeLIpZz92XOGf+d2uQ9zUqBrbw1VEDZPZTK+yLUV3cyLq/3y5Qt+G3SJmuQw+xAHTmrqez7dV7NCyjCHEsWbzuZTstAt0c4YqHInipsmkxx5X0oDdzzO8LkjZKC54fqzbvW6CTfI5muA74oDFLnfeqyn32DlIL5pNX3A0pKDxW/wlcMfKCvOXg5HWlaZ6/VL6hDs3U06PYpPYiBUuX8utF0CshYw1OonuonUXqNL36ZbgVuF1pn799y5i4HY+mUWUf0JV31/vcKmiYvXS+KQXe+8LB8fv3hFHKoFCH65wmjJ8xZQzSey8p0M3ArwYMD7omJLxVXdzxO2zq+z9i7X0E593mUfyeKcaqGCt1sHQVaGipsnMS1lMJYIgpyqGnCKP8TqmW/WRqPf2xFBvAZoW3BJyhjQKIk3zBr63mVd/RdRenaVZwaQJqWW8L9qa8/pHAVfQlC8CVIQf4ZY+1+VGXy/lnGHIBPi6rU+wBfJn8H1TnPElLgIGXu/HVe9YFEegh668msHQDKHV2bBJ5FtdOAojZ63ka1U6dK9FZmzAP4Q9CbYl9V2wPf4s3hDaQYmEZXpDP6utGLeN4mW2ODcl94RQXviKVQZPq92rTrp3iSPGMuwCehnb6HcGFJS0E3Y+06o6s+cMHQfBTVOjBYADqt6OsOKYyjV0FRCUWnXe6M2QDX4Vzhv6HMoQrK0nGAdUQv5jeMJ4rbjqcXZoJA14UzEuxMhBhIqsraR0lR/uuMCS1vKFvwKULyPUebw6+w5TGlKL2KGUbbQDdWft1YijZ3LhJG+W1CkG0ZU1qeMKK8iRTkCdbW/a6mcghFn6WxChr0xQovjsVLjPjyPkVd5nkJpXjbluWGRFT/5JGCb4axRd7VbdmfKGk7rjyFGidbo4FA2WRoOaqwjpiiMnnPUkb/s/FP7PTNWeJx5W5ddewRWvT3Iwd6S1u1L1XUOpvCV5dsDQUC3UjpiNQ2m+Ic8aTK6DmLL8wql/fejKnlLpSx5+uM6G8gxcA7XHl/orBhAjkQTJqCPrvwlgyVUb6kErwn6Vxf2Kqzhu4prhxYTRh987TY8Z6+/lAKtiGAPq+KUR2trRpWCJPnHULy7diwIcejEWmWG0nR9zLr3J3AZwdkaxQQ6GaEB6MKGiYU2tx5VW1sn2Ic/jU5u8v2KWtoJSHK/06IwTPaqr0pGIkD3Qrh2qio7ZjCWruThFGeZ2yhUqml876M2eUOeCU2a/arSUHeRYrBhby6Qzl8TgHodgvX1bQtkiCFwJuk4G99zOl7KGN6uQW6SjyuNnn3IX1gaJ5CYRjWxIFujYrajqc4R2yRNPneZCR/66ZNsa9mzC63UG8MfIsyef+REn349JhUSdtc1gYBgW5KKJ0rqB9LMo7eRcLkO8OjdC5nnYis6/pjlNJVEIL/HOeMpg8czNooINBNCI/O4QMxKSn4vlrw/urvagZXWd2h3DxpKB6P382ag08TojxKmTuThqbJrI0CAt2MDC1HU7xrIEkJgUVK8D3HOnpW5fSuWHy4CC3IP1SXed7WVu2DwQXQ5xKeJsGpHGvrvaA2euf48g4V3tSZMbfcxO1W7vre9uEHSZNniLJ2JfJqDsCiU9BnEp6oL2icTPKuPYsqk/e3pOAvXSd2/WXG1HIfteDbSAjyfkoM4lNfsjYSCHRj/VwpaDqSYBzRRVIMnaMlXy1fHv5OxryWBxtc3ns5S2A9YZKHGVu3YmieTI/1Z28wEOgjQnZSiByIc8YWUTbzJmn2/YCzdDyeMa3lB7FZLlab2mdRRLqQV30g3UBZGw4EQkqncA3jCQ5FIMocnsEORFl74dwFfNMposwzpC7z/I8eORLMH4GyCU/O6+sOXWHtvedIc/AF0hxoLHW7s951cNlCCu1NpCCfIsVAIq/6hawNCVp+wtHH0Dyd0FQNJTh790laCv2Ys/k2wuGON2Ctw79qndFTQwjyG6yjNz2Ema1hQctDxa2zSX3t6BXOEfsvSgq2M/bAJkaIPJwxF+AP8aSx3aAyyl51WftbmopBfIcBmFNaJsIDTIXNU4qmat9l1tHzS1L0j1JSpxFlKI+xjsGvZUwE+LTQtsgThMm7kzZ3vM7aepP66oOZhobt5LmmotZjir5+LME6ohdYe/cYSu3jlOSp10jyNw2G5++D9O1zgM9loKztqwnjzgq1yXOatnYp+toRJb9+NGtngJaOSradVAwt0wld9QsLKGVbIC2hN2hRruPEEF1kC34jYwLArYRuiqVPSlUbPWFSCszzzrhiaJpMFePTgrJ0EujOVHHbHL4XLB5Ausg642cZc2cXJYTqIV27zTAm76O06KskjZ4Rxto5p3UN4tW8qIOOp0d0snUe6IsQvmn0SZSuTSt5NSNXdFV7zzD2nmlU68RVxoBpnTFAaSqW0XKdOxVebH+MFnycusy7hxDkAY1rYCFvy3CqpBWP7kH99EWoqGXmSkHDxEVt5dBFztl3mbV1nWIsXRHa7K/D2QQj7foLmOe5Q7FaJ+5RmwM6FJ2eQVe7IC11HNWU91/VuIYSBfVj1w7JxwMTMDhxC3QqHWXwOdn4nlE42qAaR0EXsN/wFX1zlDXyHOvotPGVXY+tFXbC0PRSRVcdX8lZ5MdpyS+qTfJPUCoxzjoi8/qa/Ze0VUOp4tbj6RQQhtBvTobmyasFTZMLqK55l3fufoO2hl9lbd37KHNou1rwlaGM4Em89cVqzdENcssZtzv+FVqKPaIWvOvXGds3EyZvD4pYx1G0GtW6BlD6sTeJN3rhY5iKWo5lNaDlIjwAUNQyvVjQMI4uOHvfYxy9lygxqKjKPEdUpvYORgrUkObg06zDvwor08TAcoW2dPwVytPXcPYwn76SGuX/YG09Yc4RO0PbIguaLcPn8utGk8i5EgWNY4mSbdcOWkFRbMkcQoknMj9Mv2bR8xPpOTdD09QVfd1oQrdlWOEr+hXK3HGJsXb/graFB2hr1y4UvU2MFGTVZTDsDNwk+MALLF1l72rG4tcSJr9ICXIFY43UIKebJYXABOfsHde4Bo6wjuhl1hm7rK89eK6wfnwxv37san7DeLJkK0oXW2dShpaZBIpsyfXbP3S44pbZ5LW7YXx4G82SthPoPchB8d99pG7Dxv/J7SLIGRJFrbPXbsWJnQKfW4HeU9g4hZx9/KKu+sBCfu3oor72UKqwcfz3+XWH3sirGXmdr9jzS9bR+xpOwQjR56fNgX9eW+Y1o+hi+W7ZjtVYmSYAgP8frs+e44lg7GT4btd0k++hgpo9f8qa/Qy52fMj5GBOSgrYUZ3wfZQyRmlzOMg5Y//GO6Mh2tz5OiUED7L2aFxXNRTRVg1MkpaOd1hL1zxrixxGqdMEV777ZbximbJ0fsCVx4/oKgeO8ZV7TmtdQ6+TlvC7tDXyKmPv2s87YmG+fPePOXssgqLGPvR/f6oWPLvUok/i7V2SpqKX1Ti6RUYKPYP+50bC6FczjugaPDqW/jIAsFTAW+PTd8XQ7bw/81IanEZiR3xC2PUg/lnnnrgfD4ZQZaHVT9oDf45fU7niD+iqQyvxUH566wgSfh2Df4fqka/dqIB3u913ZZ4CAAAAAAAAAAAAAAAAAAAAAAAAAAAAwJ3AihX/C27th3FV6LjcAAAAAElFTkSuQmCC;" vertex="1" parent="zbF90gA1H5KHamxqbV0r-108">
          <mxGeometry y="37.179487179487175" width="51.22682572948573" height="16.666873349123875" as="geometry" />
        </mxCell>
        <mxCell id="zbF90gA1H5KHamxqbV0r-110" value="" style="shape=mxgraph.cisco.people.standing_woman;html=1;pointerEvents=1;dashed=0;fillColor=#036897;strokeColor=#ffffff;strokeWidth=2;verticalLabelPosition=bottom;verticalAlign=top;align=center;outlineConnect=0;" vertex="1" parent="zbF90gA1H5KHamxqbV0r-108">
          <mxGeometry x="18.46183630906743" width="15.338136184057634" height="46.1025641025641" as="geometry" />
        </mxCell>
        <mxCell id="zbF90gA1H5KHamxqbV0r-111" value="" style="shape=image;verticalLabelPosition=bottom;labelBackgroundColor=default;verticalAlign=top;aspect=fixed;imageAspect=0;image=data:image/png,iVBORw0KGgoAAAANSUhEUgAAANEAAABECAYAAAAfkdAfAAAAAXNSR0IArs4c6QAAAARnQU1BAACxjwv8YQUAAAAJcEhZcwAAFxEAABcRAcom8z8AAA5uSURBVHhe7Z0LbFvndce9pC3SJF2W7FHPWxe3SIsscdDY5H1fkqIkSnJqLIFnWeS9l2+JkvV+2l43lAjWoBiyzW3nWuTlS5QoiaQlS7LlWLYsyZIly7JTu2kSCGgadzGSNJuXNnHkp0jefR9NI4/RRZx4jkWdH/AHKUqEyO87555zvtddAQAAAAAAAAAAAAAAAAAAAAAAAAAAAABLgtLS+FcyTz8Ga/Svop2xhz76e13pzvsLXd4HSt2vfOw9G1x77y1VlLszP6bRuSe+lHkKAEsLbOi6htCfENb4SsYaepSqH/p6aXX8fmKzR0sb5c2kGHRQYrCBlfw23t5j4p1RO2UN2SjR106Y/IOk6B/hnLHD2or+Ht7VN0abw7tJMfAybYscZp3xEc7eK3OOaBdlCgxTkn+KdUb38ZX97Zw94qMEX4CQfOO0szvAO6J1tLWrTm2S/4US/M/y5d0q3tVVoBa869cJQUFnDa3EDkqgR/x5Mx8fAG4ftBhch4w/j7F2P0NbAptpKdDE2iJu3ta9Q+vqe15XNbRfWzU4w5f3z2tcg+9rXYOX8+tHrxTUHz5vaDp6CT1eyq8fS+bXH04UNE5cKWyeThRvnUs+9Q+nleKtx5HmlOLWmVTx1heR5pLrt/382mtts+j1WfS3J5Prt+PXTqCfjymGlhn02okkei/+e6WwaSpZ2HgkUdg0nTA0TV3Jrzuc0G0ZvqqvHU3qaw/+N+eMnucc8V+xjthv+Kr+dlII9JKivBc58/OUENyoEuSnaauPQ99xNf6+KhTtVC7vl9NfHgA+LTilUotegrJ2/j2KCM9Tlo4IJQVGuPLoa3zF7v/UVe9/BxnkawUN4wsFDRPnkeEqhQ3jSnHLTNrgS7a+qGCnuJN13TnxZ0WPqSL02fOqRxL6+tHLeTUjC5w99hZrj55l7NEJFAF/giLbv6IoyDOC/+G1SLqGHRDFgBUrqLL21Yw5vJaRQkbaGqkizR0R2t41wtp7XkOp0tn8hrH3ipqnLxW3zSXShociQMk2bHQnkBG+mNYnjTM3dCr9uH77qfR3LGw6mkQXihRyriRr701oXAO/5Z2xPsrkm2QEbythkkXC7GF01aGViqL8UaZ5gVzCrSh38Vu6H8S1ir6y87taW1DDl0d/hGqQAY1rzy90NcNn9Q1j76P0agFfkXGahB0FO8z/NTBQJp1MoRQzZWg+qmgqBxW+vO88aQ2/RJh8JyiLfxtnDqOotfNha2jinkw3AEsRRupcoxaDBCnJFpSSdaDaZR7VK/MoFbuAUrGPpV/gMJ9PuP1w1MLtmVeLIpZz92XOGf+d2uQ9zUqBrbw1VEDZPZTK+yLUV3cyLq/3y5Qt+G3SJmuQw+xAHTmrqez7dV7NCyjCHEsWbzuZTstAt0c4YqHInipsmkxx5X0oDdzzO8LkjZKC54fqzbvW6CTfI5muA74oDFLnfeqyn32DlIL5pNX3A0pKDxW/wlcMfKCvOXg5HWlaZ6/VL6hDs3U06PYpPYiBUuX8utF0CshYw1OonuonUXqNL36ZbgVuF1pn799y5i4HY+mUWUf0JV31/vcKmiYvXS+KQXe+8LB8fv3hFHKoFCH65wmjJ8xZQzSey8p0M3ArwYMD7omJLxVXdzxO2zq+z9i7X0E593mUfyeKcaqGCt1sHQVaGipsnMS1lMJYIgpyqGnCKP8TqmW/WRqPf2xFBvAZoW3BJyhjQKIk3zBr63mVd/RdRenaVZwaQJqWW8L9qa8/pHAVfQlC8CVIQf4ZY+1+VGXy/lnGHIBPi6rU+wBfJn8H1TnPElLgIGXu/HVe9YFEegh668msHQDKHV2bBJ5FtdOAojZ63ka1U6dK9FZmzAP4Q9CbYl9V2wPf4s3hDaQYmEZXpDP6utGLeN4mW2ODcl94RQXviKVQZPq92rTrp3iSPGMuwCehnb6HcGFJS0E3Y+06o6s+cMHQfBTVOjBYADqt6OsOKYyjV0FRCUWnXe6M2QDX4Vzhv6HMoQrK0nGAdUQv5jeMJ4rbjqcXZoJA14UzEuxMhBhIqsraR0lR/uuMCS1vKFvwKULyPUebw6+w5TGlKL2KGUbbQDdWft1YijZ3LhJG+W1CkG0ZU1qeMKK8iRTkCdbW/a6mcghFn6WxChr0xQovjsVLjPjyPkVd5nkJpXjbluWGRFT/5JGCb4axRd7VbdmfKGk7rjyFGidbo4FA2WRoOaqwjpiiMnnPUkb/s/FP7PTNWeJx5W5ddewRWvT3Iwd6S1u1L1XUOpvCV5dsDQUC3UjpiNQ2m+Ic8aTK6DmLL8wql/fejKnlLpSx5+uM6G8gxcA7XHl/orBhAjkQTJqCPrvwlgyVUb6kErwn6Vxf2Kqzhu4prhxYTRh987TY8Z6+/lAKtiGAPq+KUR2trRpWCJPnHULy7diwIcejEWmWG0nR9zLr3J3AZwdkaxQQ6GaEB6MKGiYU2tx5VW1sn2Ic/jU5u8v2KWtoJSHK/06IwTPaqr0pGIkD3Qrh2qio7ZjCWruThFGeZ2yhUqml876M2eUOeCU2a/arSUHeRYrBhby6Qzl8TgHodgvX1bQtkiCFwJuk4G99zOl7KGN6uQW6SjyuNnn3IX1gaJ5CYRjWxIFujYrajqc4R2yRNPneZCR/66ZNsa9mzC63UG8MfIsyef+REn349JhUSdtc1gYBgW5KKJ0rqB9LMo7eRcLkO8OjdC5nnYis6/pjlNJVEIL/HOeMpg8czNooINBNCI/O4QMxKSn4vlrw/urvagZXWd2h3DxpKB6P382ag08TojxKmTuThqbJrI0CAt2MDC1HU7xrIEkJgUVK8D3HOnpW5fSuWHy4CC3IP1SXed7WVu2DwQXQ5xKeJsGpHGvrvaA2euf48g4V3tSZMbfcxO1W7vre9uEHSZNniLJ2JfJqDsCiU9BnEp6oL2icTPKuPYsqk/e3pOAvXSd2/WXG1HIfteDbSAjyfkoM4lNfsjYSCHRj/VwpaDqSYBzRRVIMnaMlXy1fHv5OxryWBxtc3ns5S2A9YZKHGVu3YmieTI/1Z28wEOgjQnZSiByIc8YWUTbzJmn2/YCzdDyeMa3lB7FZLlab2mdRRLqQV30g3UBZGw4EQkqncA3jCQ5FIMocnsEORFl74dwFfNMposwzpC7z/I8eORLMH4GyCU/O6+sOXWHtvedIc/AF0hxoLHW7s951cNlCCu1NpCCfIsVAIq/6hawNCVp+wtHH0Dyd0FQNJTh790laCv2Ys/k2wuGON2Ctw79qndFTQwjyG6yjNz2Ema1hQctDxa2zSX3t6BXOEfsvSgq2M/bAJkaIPJwxF+AP8aSx3aAyyl51WftbmopBfIcBmFNaJsIDTIXNU4qmat9l1tHzS1L0j1JSpxFlKI+xjsGvZUwE+LTQtsgThMm7kzZ3vM7aepP66oOZhobt5LmmotZjir5+LME6ohdYe/cYSu3jlOSp10jyNw2G5++D9O1zgM9loKztqwnjzgq1yXOatnYp+toRJb9+NGtngJaOSradVAwt0wld9QsLKGVbIC2hN2hRruPEEF1kC34jYwLArYRuiqVPSlUbPWFSCszzzrhiaJpMFePTgrJ0EujOVHHbHL4XLB5Ausg642cZc2cXJYTqIV27zTAm76O06KskjZ4Rxto5p3UN4tW8qIOOp0d0snUe6IsQvmn0SZSuTSt5NSNXdFV7zzD2nmlU68RVxoBpnTFAaSqW0XKdOxVebH+MFnycusy7hxDkAY1rYCFvy3CqpBWP7kH99EWoqGXmSkHDxEVt5dBFztl3mbV1nWIsXRHa7K/D2QQj7foLmOe5Q7FaJ+5RmwM6FJ2eQVe7IC11HNWU91/VuIYSBfVj1w7JxwMTMDhxC3QqHWXwOdn4nlE42qAaR0EXsN/wFX1zlDXyHOvotPGVXY+tFXbC0PRSRVcdX8lZ5MdpyS+qTfJPUCoxzjoi8/qa/Ze0VUOp4tbj6RQQhtBvTobmyasFTZMLqK55l3fufoO2hl9lbd37KHNou1rwlaGM4Em89cVqzdENcssZtzv+FVqKPaIWvOvXGds3EyZvD4pYx1G0GtW6BlD6sTeJN3rhY5iKWo5lNaDlIjwAUNQyvVjQMI4uOHvfYxy9lygxqKjKPEdUpvYORgrUkObg06zDvwor08TAcoW2dPwVytPXcPYwn76SGuX/YG09Yc4RO0PbIguaLcPn8utGk8i5EgWNY4mSbdcOWkFRbMkcQoknMj9Mv2bR8xPpOTdD09QVfd1oQrdlWOEr+hXK3HGJsXb/graFB2hr1y4UvU2MFGTVZTDsDNwk+MALLF1l72rG4tcSJr9ICXIFY43UIKebJYXABOfsHde4Bo6wjuhl1hm7rK89eK6wfnwxv37san7DeLJkK0oXW2dShpaZBIpsyfXbP3S44pbZ5LW7YXx4G82SthPoPchB8d99pG7Dxv/J7SLIGRJFrbPXbsWJnQKfW4HeU9g4hZx9/KKu+sBCfu3oor72UKqwcfz3+XWH3sirGXmdr9jzS9bR+xpOwQjR56fNgX9eW+Y1o+hi+W7ZjtVYmSYAgP8frs+e44lg7GT4btd0k++hgpo9f8qa/Qy52fMj5GBOSgrYUZ3wfZQyRmlzOMg5Y//GO6Mh2tz5OiUED7L2aFxXNRTRVg1MkpaOd1hL1zxrixxGqdMEV777ZbximbJ0fsCVx4/oKgeO8ZV7TmtdQ6+TlvC7tDXyKmPv2s87YmG+fPePOXssgqLGPvR/f6oWPLvUok/i7V2SpqKX1Ti6RUYKPYP+50bC6FczjugaPDqW/jIAsFTAW+PTd8XQ7bw/81IanEZiR3xC2PUg/lnnnrgfD4ZQZaHVT9oDf45fU7niD+iqQyvxUH566wgSfh2Df4fqka/dqIB3u913ZZ4CAAAAAAAAAAAAAAAAAAAAAAAAAAAAwJ3AihX/C27th3FV6LjcAAAAAElFTkSuQmCC;" vertex="1" parent="1">
          <mxGeometry x="112.97000000000003" y="48.769230769230774" width="52.96" height="17.230769230769234" as="geometry" />
        </mxCell>
        <mxCell id="zbF90gA1H5KHamxqbV0r-112" value="" style="shape=mxgraph.cisco.people.standing_man;html=1;pointerEvents=1;dashed=0;fillColor=#036897;strokeColor=#ffffff;strokeWidth=2;verticalLabelPosition=bottom;verticalAlign=top;align=center;outlineConnect=0;" vertex="1" parent="1">
          <mxGeometry x="129.02999999999997" y="15" width="22" height="42.47" as="geometry" />
        </mxCell>
        <mxCell id="zbF90gA1H5KHamxqbV0r-113" value="" style="group" vertex="1" connectable="0" parent="1">
          <mxGeometry x="94" y="23" width="60" height="58" as="geometry" />
        </mxCell>
        <mxCell id="zbF90gA1H5KHamxqbV0r-114" value="" style="shape=image;verticalLabelPosition=bottom;labelBackgroundColor=default;verticalAlign=top;aspect=fixed;imageAspect=0;image=data:image/png,iVBORw0KGgoAAAANSUhEUgAAANEAAABECAYAAAAfkdAfAAAAAXNSR0IArs4c6QAAAARnQU1BAACxjwv8YQUAAAAJcEhZcwAAFxEAABcRAcom8z8AAA5uSURBVHhe7Z0LbFvndce9pC3SJF2W7FHPWxe3SIsscdDY5H1fkqIkSnJqLIFnWeS9l2+JkvV+2l43lAjWoBiyzW3nWuTlS5QoiaQlS7LlWLYsyZIly7JTu2kSCGgadzGSNJuXNnHkp0jefR9NI4/RRZx4jkWdH/AHKUqEyO87555zvtddAQAAAAAAAAAAAAAAAAAAAAAAAAAAAABLgtLS+FcyTz8Ga/Svop2xhz76e13pzvsLXd4HSt2vfOw9G1x77y1VlLszP6bRuSe+lHkKAEsLbOi6htCfENb4SsYaepSqH/p6aXX8fmKzR0sb5c2kGHRQYrCBlfw23t5j4p1RO2UN2SjR106Y/IOk6B/hnLHD2or+Ht7VN0abw7tJMfAybYscZp3xEc7eK3OOaBdlCgxTkn+KdUb38ZX97Zw94qMEX4CQfOO0szvAO6J1tLWrTm2S/4US/M/y5d0q3tVVoBa869cJQUFnDa3EDkqgR/x5Mx8fAG4ftBhch4w/j7F2P0NbAptpKdDE2iJu3ta9Q+vqe15XNbRfWzU4w5f3z2tcg+9rXYOX8+tHrxTUHz5vaDp6CT1eyq8fS+bXH04UNE5cKWyeThRvnUs+9Q+nleKtx5HmlOLWmVTx1heR5pLrt/382mtts+j1WfS3J5Prt+PXTqCfjymGlhn02okkei/+e6WwaSpZ2HgkUdg0nTA0TV3Jrzuc0G0ZvqqvHU3qaw/+N+eMnucc8V+xjthv+Kr+dlII9JKivBc58/OUENyoEuSnaauPQ99xNf6+KhTtVC7vl9NfHgA+LTilUotegrJ2/j2KCM9Tlo4IJQVGuPLoa3zF7v/UVe9/BxnkawUN4wsFDRPnkeEqhQ3jSnHLTNrgS7a+qGCnuJN13TnxZ0WPqSL02fOqRxL6+tHLeTUjC5w99hZrj55l7NEJFAF/giLbv6IoyDOC/+G1SLqGHRDFgBUrqLL21Yw5vJaRQkbaGqkizR0R2t41wtp7XkOp0tn8hrH3ipqnLxW3zSXShociQMk2bHQnkBG+mNYnjTM3dCr9uH77qfR3LGw6mkQXihRyriRr701oXAO/5Z2xPsrkm2QEbythkkXC7GF01aGViqL8UaZ5gVzCrSh38Vu6H8S1ir6y87taW1DDl0d/hGqQAY1rzy90NcNn9Q1j76P0agFfkXGahB0FO8z/NTBQJp1MoRQzZWg+qmgqBxW+vO88aQ2/RJh8JyiLfxtnDqOotfNha2jinkw3AEsRRupcoxaDBCnJFpSSdaDaZR7VK/MoFbuAUrGPpV/gMJ9PuP1w1MLtmVeLIpZz92XOGf+d2uQ9zUqBrbw1VEDZPZTK+yLUV3cyLq/3y5Qt+G3SJmuQw+xAHTmrqez7dV7NCyjCHEsWbzuZTstAt0c4YqHInipsmkxx5X0oDdzzO8LkjZKC54fqzbvW6CTfI5muA74oDFLnfeqyn32DlIL5pNX3A0pKDxW/wlcMfKCvOXg5HWlaZ6/VL6hDs3U06PYpPYiBUuX8utF0CshYw1OonuonUXqNL36ZbgVuF1pn799y5i4HY+mUWUf0JV31/vcKmiYvXS+KQXe+8LB8fv3hFHKoFCH65wmjJ8xZQzSey8p0M3ArwYMD7omJLxVXdzxO2zq+z9i7X0E593mUfyeKcaqGCt1sHQVaGipsnMS1lMJYIgpyqGnCKP8TqmW/WRqPf2xFBvAZoW3BJyhjQKIk3zBr63mVd/RdRenaVZwaQJqWW8L9qa8/pHAVfQlC8CVIQf4ZY+1+VGXy/lnGHIBPi6rU+wBfJn8H1TnPElLgIGXu/HVe9YFEegh668msHQDKHV2bBJ5FtdOAojZ63ka1U6dK9FZmzAP4Q9CbYl9V2wPf4s3hDaQYmEZXpDP6utGLeN4mW2ODcl94RQXviKVQZPq92rTrp3iSPGMuwCehnb6HcGFJS0E3Y+06o6s+cMHQfBTVOjBYADqt6OsOKYyjV0FRCUWnXe6M2QDX4Vzhv6HMoQrK0nGAdUQv5jeMJ4rbjqcXZoJA14UzEuxMhBhIqsraR0lR/uuMCS1vKFvwKULyPUebw6+w5TGlKL2KGUbbQDdWft1YijZ3LhJG+W1CkG0ZU1qeMKK8iRTkCdbW/a6mcghFn6WxChr0xQovjsVLjPjyPkVd5nkJpXjbluWGRFT/5JGCb4axRd7VbdmfKGk7rjyFGidbo4FA2WRoOaqwjpiiMnnPUkb/s/FP7PTNWeJx5W5ddewRWvT3Iwd6S1u1L1XUOpvCV5dsDQUC3UjpiNQ2m+Ic8aTK6DmLL8wql/fejKnlLpSx5+uM6G8gxcA7XHl/orBhAjkQTJqCPrvwlgyVUb6kErwn6Vxf2Kqzhu4prhxYTRh987TY8Z6+/lAKtiGAPq+KUR2trRpWCJPnHULy7diwIcejEWmWG0nR9zLr3J3AZwdkaxQQ6GaEB6MKGiYU2tx5VW1sn2Ic/jU5u8v2KWtoJSHK/06IwTPaqr0pGIkD3Qrh2qio7ZjCWruThFGeZ2yhUqml876M2eUOeCU2a/arSUHeRYrBhby6Qzl8TgHodgvX1bQtkiCFwJuk4G99zOl7KGN6uQW6SjyuNnn3IX1gaJ5CYRjWxIFujYrajqc4R2yRNPneZCR/66ZNsa9mzC63UG8MfIsyef+REn349JhUSdtc1gYBgW5KKJ0rqB9LMo7eRcLkO8OjdC5nnYis6/pjlNJVEIL/HOeMpg8czNooINBNCI/O4QMxKSn4vlrw/urvagZXWd2h3DxpKB6P382ag08TojxKmTuThqbJrI0CAt2MDC1HU7xrIEkJgUVK8D3HOnpW5fSuWHy4CC3IP1SXed7WVu2DwQXQ5xKeJsGpHGvrvaA2euf48g4V3tSZMbfcxO1W7vre9uEHSZNniLJ2JfJqDsCiU9BnEp6oL2icTPKuPYsqk/e3pOAvXSd2/WXG1HIfteDbSAjyfkoM4lNfsjYSCHRj/VwpaDqSYBzRRVIMnaMlXy1fHv5OxryWBxtc3ns5S2A9YZKHGVu3YmieTI/1Z28wEOgjQnZSiByIc8YWUTbzJmn2/YCzdDyeMa3lB7FZLlab2mdRRLqQV30g3UBZGw4EQkqncA3jCQ5FIMocnsEORFl74dwFfNMposwzpC7z/I8eORLMH4GyCU/O6+sOXWHtvedIc/AF0hxoLHW7s951cNlCCu1NpCCfIsVAIq/6hawNCVp+wtHH0Dyd0FQNJTh790laCv2Ys/k2wuGON2Ctw79qndFTQwjyG6yjNz2Ema1hQctDxa2zSX3t6BXOEfsvSgq2M/bAJkaIPJwxF+AP8aSx3aAyyl51WftbmopBfIcBmFNaJsIDTIXNU4qmat9l1tHzS1L0j1JSpxFlKI+xjsGvZUwE+LTQtsgThMm7kzZ3vM7aepP66oOZhobt5LmmotZjir5+LME6ohdYe/cYSu3jlOSp10jyNw2G5++D9O1zgM9loKztqwnjzgq1yXOatnYp+toRJb9+NGtngJaOSradVAwt0wld9QsLKGVbIC2hN2hRruPEEF1kC34jYwLArYRuiqVPSlUbPWFSCszzzrhiaJpMFePTgrJ0EujOVHHbHL4XLB5Ausg642cZc2cXJYTqIV27zTAm76O06KskjZ4Rxto5p3UN4tW8qIOOp0d0snUe6IsQvmn0SZSuTSt5NSNXdFV7zzD2nmlU68RVxoBpnTFAaSqW0XKdOxVebH+MFnycusy7hxDkAY1rYCFvy3CqpBWP7kH99EWoqGXmSkHDxEVt5dBFztl3mbV1nWIsXRHa7K/D2QQj7foLmOe5Q7FaJ+5RmwM6FJ2eQVe7IC11HNWU91/VuIYSBfVj1w7JxwMTMDhxC3QqHWXwOdn4nlE42qAaR0EXsN/wFX1zlDXyHOvotPGVXY+tFXbC0PRSRVcdX8lZ5MdpyS+qTfJPUCoxzjoi8/qa/Ze0VUOp4tbj6RQQhtBvTobmyasFTZMLqK55l3fufoO2hl9lbd37KHNou1rwlaGM4Em89cVqzdENcssZtzv+FVqKPaIWvOvXGds3EyZvD4pYx1G0GtW6BlD6sTeJN3rhY5iKWo5lNaDlIjwAUNQyvVjQMI4uOHvfYxy9lygxqKjKPEdUpvYORgrUkObg06zDvwor08TAcoW2dPwVytPXcPYwn76SGuX/YG09Yc4RO0PbIguaLcPn8utGk8i5EgWNY4mSbdcOWkFRbMkcQoknMj9Mv2bR8xPpOTdD09QVfd1oQrdlWOEr+hXK3HGJsXb/graFB2hr1y4UvU2MFGTVZTDsDNwk+MALLF1l72rG4tcSJr9ICXIFY43UIKebJYXABOfsHde4Bo6wjuhl1hm7rK89eK6wfnwxv37san7DeLJkK0oXW2dShpaZBIpsyfXbP3S44pbZ5LW7YXx4G82SthPoPchB8d99pG7Dxv/J7SLIGRJFrbPXbsWJnQKfW4HeU9g4hZx9/KKu+sBCfu3oor72UKqwcfz3+XWH3sirGXmdr9jzS9bR+xpOwQjR56fNgX9eW+Y1o+hi+W7ZjtVYmSYAgP8frs+e44lg7GT4btd0k++hgpo9f8qa/Qy52fMj5GBOSgrYUZ3wfZQyRmlzOMg5Y//GO6Mh2tz5OiUED7L2aFxXNRTRVg1MkpaOd1hL1zxrixxGqdMEV777ZbximbJ0fsCVx4/oKgeO8ZV7TmtdQ6+TlvC7tDXyKmPv2s87YmG+fPePOXssgqLGPvR/f6oWPLvUok/i7V2SpqKX1Ti6RUYKPYP+50bC6FczjugaPDqW/jIAsFTAW+PTd8XQ7bw/81IanEZiR3xC2PUg/lnnnrgfD4ZQZaHVT9oDf45fU7niD+iqQyvxUH566wgSfh2Df4fqka/dqIB3u913ZZ4CAAAAAAAAAAAAAAAAAAAAAAAAAAAAwJ3AihX/C27th3FV6LjcAAAAAElFTkSuQmCC;" vertex="1" parent="zbF90gA1H5KHamxqbV0r-113">
          <mxGeometry y="37.179487179487175" width="51.22682572948573" height="16.666873349123875" as="geometry" />
        </mxCell>
        <mxCell id="zbF90gA1H5KHamxqbV0r-115" value="" style="shape=mxgraph.cisco.people.standing_woman;html=1;pointerEvents=1;dashed=0;fillColor=#036897;strokeColor=#ffffff;strokeWidth=2;verticalLabelPosition=bottom;verticalAlign=top;align=center;outlineConnect=0;" vertex="1" parent="zbF90gA1H5KHamxqbV0r-113">
          <mxGeometry x="18.46183630906743" width="15.338136184057634" height="46.1025641025641" as="geometry" />
        </mxCell>
        <mxCell id="zbF90gA1H5KHamxqbV0r-116" value="" style="shape=image;verticalLabelPosition=bottom;labelBackgroundColor=default;verticalAlign=top;aspect=fixed;imageAspect=0;image=data:image/png,iVBORw0KGgoAAAANSUhEUgAAANEAAABECAYAAAAfkdAfAAAAAXNSR0IArs4c6QAAAARnQU1BAACxjwv8YQUAAAAJcEhZcwAAFxEAABcRAcom8z8AAA5uSURBVHhe7Z0LbFvndce9pC3SJF2W7FHPWxe3SIsscdDY5H1fkqIkSnJqLIFnWeS9l2+JkvV+2l43lAjWoBiyzW3nWuTlS5QoiaQlS7LlWLYsyZIly7JTu2kSCGgadzGSNJuXNnHkp0jefR9NI4/RRZx4jkWdH/AHKUqEyO87555zvtddAQAAAAAAAAAAAAAAAAAAAAAAAAAAAABLgtLS+FcyTz8Ga/Svop2xhz76e13pzvsLXd4HSt2vfOw9G1x77y1VlLszP6bRuSe+lHkKAEsLbOi6htCfENb4SsYaepSqH/p6aXX8fmKzR0sb5c2kGHRQYrCBlfw23t5j4p1RO2UN2SjR106Y/IOk6B/hnLHD2or+Ht7VN0abw7tJMfAybYscZp3xEc7eK3OOaBdlCgxTkn+KdUb38ZX97Zw94qMEX4CQfOO0szvAO6J1tLWrTm2S/4US/M/y5d0q3tVVoBa869cJQUFnDa3EDkqgR/x5Mx8fAG4ftBhch4w/j7F2P0NbAptpKdDE2iJu3ta9Q+vqe15XNbRfWzU4w5f3z2tcg+9rXYOX8+tHrxTUHz5vaDp6CT1eyq8fS+bXH04UNE5cKWyeThRvnUs+9Q+nleKtx5HmlOLWmVTx1heR5pLrt/382mtts+j1WfS3J5Prt+PXTqCfjymGlhn02okkei/+e6WwaSpZ2HgkUdg0nTA0TV3Jrzuc0G0ZvqqvHU3qaw/+N+eMnucc8V+xjthv+Kr+dlII9JKivBc58/OUENyoEuSnaauPQ99xNf6+KhTtVC7vl9NfHgA+LTilUotegrJ2/j2KCM9Tlo4IJQVGuPLoa3zF7v/UVe9/BxnkawUN4wsFDRPnkeEqhQ3jSnHLTNrgS7a+qGCnuJN13TnxZ0WPqSL02fOqRxL6+tHLeTUjC5w99hZrj55l7NEJFAF/giLbv6IoyDOC/+G1SLqGHRDFgBUrqLL21Yw5vJaRQkbaGqkizR0R2t41wtp7XkOp0tn8hrH3ipqnLxW3zSXShociQMk2bHQnkBG+mNYnjTM3dCr9uH77qfR3LGw6mkQXihRyriRr701oXAO/5Z2xPsrkm2QEbythkkXC7GF01aGViqL8UaZ5gVzCrSh38Vu6H8S1ir6y87taW1DDl0d/hGqQAY1rzy90NcNn9Q1j76P0agFfkXGahB0FO8z/NTBQJp1MoRQzZWg+qmgqBxW+vO88aQ2/RJh8JyiLfxtnDqOotfNha2jinkw3AEsRRupcoxaDBCnJFpSSdaDaZR7VK/MoFbuAUrGPpV/gMJ9PuP1w1MLtmVeLIpZz92XOGf+d2uQ9zUqBrbw1VEDZPZTK+yLUV3cyLq/3y5Qt+G3SJmuQw+xAHTmrqez7dV7NCyjCHEsWbzuZTstAt0c4YqHInipsmkxx5X0oDdzzO8LkjZKC54fqzbvW6CTfI5muA74oDFLnfeqyn32DlIL5pNX3A0pKDxW/wlcMfKCvOXg5HWlaZ6/VL6hDs3U06PYpPYiBUuX8utF0CshYw1OonuonUXqNL36ZbgVuF1pn799y5i4HY+mUWUf0JV31/vcKmiYvXS+KQXe+8LB8fv3hFHKoFCH65wmjJ8xZQzSey8p0M3ArwYMD7omJLxVXdzxO2zq+z9i7X0E593mUfyeKcaqGCt1sHQVaGipsnMS1lMJYIgpyqGnCKP8TqmW/WRqPf2xFBvAZoW3BJyhjQKIk3zBr63mVd/RdRenaVZwaQJqWW8L9qa8/pHAVfQlC8CVIQf4ZY+1+VGXy/lnGHIBPi6rU+wBfJn8H1TnPElLgIGXu/HVe9YFEegh668msHQDKHV2bBJ5FtdOAojZ63ka1U6dK9FZmzAP4Q9CbYl9V2wPf4s3hDaQYmEZXpDP6utGLeN4mW2ODcl94RQXviKVQZPq92rTrp3iSPGMuwCehnb6HcGFJS0E3Y+06o6s+cMHQfBTVOjBYADqt6OsOKYyjV0FRCUWnXe6M2QDX4Vzhv6HMoQrK0nGAdUQv5jeMJ4rbjqcXZoJA14UzEuxMhBhIqsraR0lR/uuMCS1vKFvwKULyPUebw6+w5TGlKL2KGUbbQDdWft1YijZ3LhJG+W1CkG0ZU1qeMKK8iRTkCdbW/a6mcghFn6WxChr0xQovjsVLjPjyPkVd5nkJpXjbluWGRFT/5JGCb4axRd7VbdmfKGk7rjyFGidbo4FA2WRoOaqwjpiiMnnPUkb/s/FP7PTNWeJx5W5ddewRWvT3Iwd6S1u1L1XUOpvCV5dsDQUC3UjpiNQ2m+Ic8aTK6DmLL8wql/fejKnlLpSx5+uM6G8gxcA7XHl/orBhAjkQTJqCPrvwlgyVUb6kErwn6Vxf2Kqzhu4prhxYTRh987TY8Z6+/lAKtiGAPq+KUR2trRpWCJPnHULy7diwIcejEWmWG0nR9zLr3J3AZwdkaxQQ6GaEB6MKGiYU2tx5VW1sn2Ic/jU5u8v2KWtoJSHK/06IwTPaqr0pGIkD3Qrh2qio7ZjCWruThFGeZ2yhUqml876M2eUOeCU2a/arSUHeRYrBhby6Qzl8TgHodgvX1bQtkiCFwJuk4G99zOl7KGN6uQW6SjyuNnn3IX1gaJ5CYRjWxIFujYrajqc4R2yRNPneZCR/66ZNsa9mzC63UG8MfIsyef+REn349JhUSdtc1gYBgW5KKJ0rqB9LMo7eRcLkO8OjdC5nnYis6/pjlNJVEIL/HOeMpg8czNooINBNCI/O4QMxKSn4vlrw/urvagZXWd2h3DxpKB6P382ag08TojxKmTuThqbJrI0CAt2MDC1HU7xrIEkJgUVK8D3HOnpW5fSuWHy4CC3IP1SXed7WVu2DwQXQ5xKeJsGpHGvrvaA2euf48g4V3tSZMbfcxO1W7vre9uEHSZNniLJ2JfJqDsCiU9BnEp6oL2icTPKuPYsqk/e3pOAvXSd2/WXG1HIfteDbSAjyfkoM4lNfsjYSCHRj/VwpaDqSYBzRRVIMnaMlXy1fHv5OxryWBxtc3ns5S2A9YZKHGVu3YmieTI/1Z28wEOgjQnZSiByIc8YWUTbzJmn2/YCzdDyeMa3lB7FZLlab2mdRRLqQV30g3UBZGw4EQkqncA3jCQ5FIMocnsEORFl74dwFfNMposwzpC7z/I8eORLMH4GyCU/O6+sOXWHtvedIc/AF0hxoLHW7s951cNlCCu1NpCCfIsVAIq/6hawNCVp+wtHH0Dyd0FQNJTh790laCv2Ys/k2wuGON2Ctw79qndFTQwjyG6yjNz2Ema1hQctDxa2zSX3t6BXOEfsvSgq2M/bAJkaIPJwxF+AP8aSx3aAyyl51WftbmopBfIcBmFNaJsIDTIXNU4qmat9l1tHzS1L0j1JSpxFlKI+xjsGvZUwE+LTQtsgThMm7kzZ3vM7aepP66oOZhobt5LmmotZjir5+LME6ohdYe/cYSu3jlOSp10jyNw2G5++D9O1zgM9loKztqwnjzgq1yXOatnYp+toRJb9+NGtngJaOSradVAwt0wld9QsLKGVbIC2hN2hRruPEEF1kC34jYwLArYRuiqVPSlUbPWFSCszzzrhiaJpMFePTgrJ0EujOVHHbHL4XLB5Ausg642cZc2cXJYTqIV27zTAm76O06KskjZ4Rxto5p3UN4tW8qIOOp0d0snUe6IsQvmn0SZSuTSt5NSNXdFV7zzD2nmlU68RVxoBpnTFAaSqW0XKdOxVebH+MFnycusy7hxDkAY1rYCFvy3CqpBWP7kH99EWoqGXmSkHDxEVt5dBFztl3mbV1nWIsXRHa7K/D2QQj7foLmOe5Q7FaJ+5RmwM6FJ2eQVe7IC11HNWU91/VuIYSBfVj1w7JxwMTMDhxC3QqHWXwOdn4nlE42qAaR0EXsN/wFX1zlDXyHOvotPGVXY+tFXbC0PRSRVcdX8lZ5MdpyS+qTfJPUCoxzjoi8/qa/Ze0VUOp4tbj6RQQhtBvTobmyasFTZMLqK55l3fufoO2hl9lbd37KHNou1rwlaGM4Em89cVqzdENcssZtzv+FVqKPaIWvOvXGds3EyZvD4pYx1G0GtW6BlD6sTeJN3rhY5iKWo5lNaDlIjwAUNQyvVjQMI4uOHvfYxy9lygxqKjKPEdUpvYORgrUkObg06zDvwor08TAcoW2dPwVytPXcPYwn76SGuX/YG09Yc4RO0PbIguaLcPn8utGk8i5EgWNY4mSbdcOWkFRbMkcQoknMj9Mv2bR8xPpOTdD09QVfd1oQrdlWOEr+hXK3HGJsXb/graFB2hr1y4UvU2MFGTVZTDsDNwk+MALLF1l72rG4tcSJr9ICXIFY43UIKebJYXABOfsHde4Bo6wjuhl1hm7rK89eK6wfnwxv37san7DeLJkK0oXW2dShpaZBIpsyfXbP3S44pbZ5LW7YXx4G82SthPoPchB8d99pG7Dxv/J7SLIGRJFrbPXbsWJnQKfW4HeU9g4hZx9/KKu+sBCfu3oor72UKqwcfz3+XWH3sirGXmdr9jzS9bR+xpOwQjR56fNgX9eW+Y1o+hi+W7ZjtVYmSYAgP8frs+e44lg7GT4btd0k++hgpo9f8qa/Qy52fMj5GBOSgrYUZ3wfZQyRmlzOMg5Y//GO6Mh2tz5OiUED7L2aFxXNRTRVg1MkpaOd1hL1zxrixxGqdMEV777ZbximbJ0fsCVx4/oKgeO8ZV7TmtdQ6+TlvC7tDXyKmPv2s87YmG+fPePOXssgqLGPvR/f6oWPLvUok/i7V2SpqKX1Ti6RUYKPYP+50bC6FczjugaPDqW/jIAsFTAW+PTd8XQ7bw/81IanEZiR3xC2PUg/lnnnrgfD4ZQZaHVT9oDf45fU7niD+iqQyvxUH566wgSfh2Df4fqka/dqIB3u913ZZ4CAAAAAAAAAAAAAAAAAAAAAAAAAAAAwJ3AihX/C27th3FV6LjcAAAAAElFTkSuQmCC;" vertex="1" parent="1">
          <mxGeometry x="122.97000000000003" y="58.769230769230774" width="52.96" height="17.230769230769234" as="geometry" />
        </mxCell>
        <mxCell id="zbF90gA1H5KHamxqbV0r-117" value="" style="shape=mxgraph.cisco.people.standing_man;html=1;pointerEvents=1;dashed=0;fillColor=#036897;strokeColor=#ffffff;strokeWidth=2;verticalLabelPosition=bottom;verticalAlign=top;align=center;outlineConnect=0;" vertex="1" parent="1">
          <mxGeometry x="139.02999999999997" y="25" width="22" height="42.47" as="geometry" />
        </mxCell>
        <mxCell id="zbF90gA1H5KHamxqbV0r-118" value="" style="group" vertex="1" connectable="0" parent="1">
          <mxGeometry x="340" y="210" width="60" height="58" as="geometry" />
        </mxCell>
        <mxCell id="zbF90gA1H5KHamxqbV0r-119" value="" style="shape=image;verticalLabelPosition=bottom;labelBackgroundColor=default;verticalAlign=top;aspect=fixed;imageAspect=0;image=data:image/png,iVBORw0KGgoAAAANSUhEUgAAANEAAABECAYAAAAfkdAfAAAAAXNSR0IArs4c6QAAAARnQU1BAACxjwv8YQUAAAAJcEhZcwAAFxEAABcRAcom8z8AAA5uSURBVHhe7Z0LbFvndce9pC3SJF2W7FHPWxe3SIsscdDY5H1fkqIkSnJqLIFnWeS9l2+JkvV+2l43lAjWoBiyzW3nWuTlS5QoiaQlS7LlWLYsyZIly7JTu2kSCGgadzGSNJuXNnHkp0jefR9NI4/RRZx4jkWdH/AHKUqEyO87555zvtddAQAAAAAAAAAAAAAAAAAAAAAAAAAAAABLgtLS+FcyTz8Ga/Svop2xhz76e13pzvsLXd4HSt2vfOw9G1x77y1VlLszP6bRuSe+lHkKAEsLbOi6htCfENb4SsYaepSqH/p6aXX8fmKzR0sb5c2kGHRQYrCBlfw23t5j4p1RO2UN2SjR106Y/IOk6B/hnLHD2or+Ht7VN0abw7tJMfAybYscZp3xEc7eK3OOaBdlCgxTkn+KdUb38ZX97Zw94qMEX4CQfOO0szvAO6J1tLWrTm2S/4US/M/y5d0q3tVVoBa869cJQUFnDa3EDkqgR/x5Mx8fAG4ftBhch4w/j7F2P0NbAptpKdDE2iJu3ta9Q+vqe15XNbRfWzU4w5f3z2tcg+9rXYOX8+tHrxTUHz5vaDp6CT1eyq8fS+bXH04UNE5cKWyeThRvnUs+9Q+nleKtx5HmlOLWmVTx1heR5pLrt/382mtts+j1WfS3J5Prt+PXTqCfjymGlhn02okkei/+e6WwaSpZ2HgkUdg0nTA0TV3Jrzuc0G0ZvqqvHU3qaw/+N+eMnucc8V+xjthv+Kr+dlII9JKivBc58/OUENyoEuSnaauPQ99xNf6+KhTtVC7vl9NfHgA+LTilUotegrJ2/j2KCM9Tlo4IJQVGuPLoa3zF7v/UVe9/BxnkawUN4wsFDRPnkeEqhQ3jSnHLTNrgS7a+qGCnuJN13TnxZ0WPqSL02fOqRxL6+tHLeTUjC5w99hZrj55l7NEJFAF/giLbv6IoyDOC/+G1SLqGHRDFgBUrqLL21Yw5vJaRQkbaGqkizR0R2t41wtp7XkOp0tn8hrH3ipqnLxW3zSXShociQMk2bHQnkBG+mNYnjTM3dCr9uH77qfR3LGw6mkQXihRyriRr701oXAO/5Z2xPsrkm2QEbythkkXC7GF01aGViqL8UaZ5gVzCrSh38Vu6H8S1ir6y87taW1DDl0d/hGqQAY1rzy90NcNn9Q1j76P0agFfkXGahB0FO8z/NTBQJp1MoRQzZWg+qmgqBxW+vO88aQ2/RJh8JyiLfxtnDqOotfNha2jinkw3AEsRRupcoxaDBCnJFpSSdaDaZR7VK/MoFbuAUrGPpV/gMJ9PuP1w1MLtmVeLIpZz92XOGf+d2uQ9zUqBrbw1VEDZPZTK+yLUV3cyLq/3y5Qt+G3SJmuQw+xAHTmrqez7dV7NCyjCHEsWbzuZTstAt0c4YqHInipsmkxx5X0oDdzzO8LkjZKC54fqzbvW6CTfI5muA74oDFLnfeqyn32DlIL5pNX3A0pKDxW/wlcMfKCvOXg5HWlaZ6/VL6hDs3U06PYpPYiBUuX8utF0CshYw1OonuonUXqNL36ZbgVuF1pn799y5i4HY+mUWUf0JV31/vcKmiYvXS+KQXe+8LB8fv3hFHKoFCH65wmjJ8xZQzSey8p0M3ArwYMD7omJLxVXdzxO2zq+z9i7X0E593mUfyeKcaqGCt1sHQVaGipsnMS1lMJYIgpyqGnCKP8TqmW/WRqPf2xFBvAZoW3BJyhjQKIk3zBr63mVd/RdRenaVZwaQJqWW8L9qa8/pHAVfQlC8CVIQf4ZY+1+VGXy/lnGHIBPi6rU+wBfJn8H1TnPElLgIGXu/HVe9YFEegh668msHQDKHV2bBJ5FtdOAojZ63ka1U6dK9FZmzAP4Q9CbYl9V2wPf4s3hDaQYmEZXpDP6utGLeN4mW2ODcl94RQXviKVQZPq92rTrp3iSPGMuwCehnb6HcGFJS0E3Y+06o6s+cMHQfBTVOjBYADqt6OsOKYyjV0FRCUWnXe6M2QDX4Vzhv6HMoQrK0nGAdUQv5jeMJ4rbjqcXZoJA14UzEuxMhBhIqsraR0lR/uuMCS1vKFvwKULyPUebw6+w5TGlKL2KGUbbQDdWft1YijZ3LhJG+W1CkG0ZU1qeMKK8iRTkCdbW/a6mcghFn6WxChr0xQovjsVLjPjyPkVd5nkJpXjbluWGRFT/5JGCb4axRd7VbdmfKGk7rjyFGidbo4FA2WRoOaqwjpiiMnnPUkb/s/FP7PTNWeJx5W5ddewRWvT3Iwd6S1u1L1XUOpvCV5dsDQUC3UjpiNQ2m+Ic8aTK6DmLL8wql/fejKnlLpSx5+uM6G8gxcA7XHl/orBhAjkQTJqCPrvwlgyVUb6kErwn6Vxf2Kqzhu4prhxYTRh987TY8Z6+/lAKtiGAPq+KUR2trRpWCJPnHULy7diwIcejEWmWG0nR9zLr3J3AZwdkaxQQ6GaEB6MKGiYU2tx5VW1sn2Ic/jU5u8v2KWtoJSHK/06IwTPaqr0pGIkD3Qrh2qio7ZjCWruThFGeZ2yhUqml876M2eUOeCU2a/arSUHeRYrBhby6Qzl8TgHodgvX1bQtkiCFwJuk4G99zOl7KGN6uQW6SjyuNnn3IX1gaJ5CYRjWxIFujYrajqc4R2yRNPneZCR/66ZNsa9mzC63UG8MfIsyef+REn349JhUSdtc1gYBgW5KKJ0rqB9LMo7eRcLkO8OjdC5nnYis6/pjlNJVEIL/HOeMpg8czNooINBNCI/O4QMxKSn4vlrw/urvagZXWd2h3DxpKB6P382ag08TojxKmTuThqbJrI0CAt2MDC1HU7xrIEkJgUVK8D3HOnpW5fSuWHy4CC3IP1SXed7WVu2DwQXQ5xKeJsGpHGvrvaA2euf48g4V3tSZMbfcxO1W7vre9uEHSZNniLJ2JfJqDsCiU9BnEp6oL2icTPKuPYsqk/e3pOAvXSd2/WXG1HIfteDbSAjyfkoM4lNfsjYSCHRj/VwpaDqSYBzRRVIMnaMlXy1fHv5OxryWBxtc3ns5S2A9YZKHGVu3YmieTI/1Z28wEOgjQnZSiByIc8YWUTbzJmn2/YCzdDyeMa3lB7FZLlab2mdRRLqQV30g3UBZGw4EQkqncA3jCQ5FIMocnsEORFl74dwFfNMposwzpC7z/I8eORLMH4GyCU/O6+sOXWHtvedIc/AF0hxoLHW7s951cNlCCu1NpCCfIsVAIq/6hawNCVp+wtHH0Dyd0FQNJTh790laCv2Ys/k2wuGON2Ctw79qndFTQwjyG6yjNz2Ema1hQctDxa2zSX3t6BXOEfsvSgq2M/bAJkaIPJwxF+AP8aSx3aAyyl51WftbmopBfIcBmFNaJsIDTIXNU4qmat9l1tHzS1L0j1JSpxFlKI+xjsGvZUwE+LTQtsgThMm7kzZ3vM7aepP66oOZhobt5LmmotZjir5+LME6ohdYe/cYSu3jlOSp10jyNw2G5++D9O1zgM9loKztqwnjzgq1yXOatnYp+toRJb9+NGtngJaOSradVAwt0wld9QsLKGVbIC2hN2hRruPEEF1kC34jYwLArYRuiqVPSlUbPWFSCszzzrhiaJpMFePTgrJ0EujOVHHbHL4XLB5Ausg642cZc2cXJYTqIV27zTAm76O06KskjZ4Rxto5p3UN4tW8qIOOp0d0snUe6IsQvmn0SZSuTSt5NSNXdFV7zzD2nmlU68RVxoBpnTFAaSqW0XKdOxVebH+MFnycusy7hxDkAY1rYCFvy3CqpBWP7kH99EWoqGXmSkHDxEVt5dBFztl3mbV1nWIsXRHa7K/D2QQj7foLmOe5Q7FaJ+5RmwM6FJ2eQVe7IC11HNWU91/VuIYSBfVj1w7JxwMTMDhxC3QqHWXwOdn4nlE42qAaR0EXsN/wFX1zlDXyHOvotPGVXY+tFXbC0PRSRVcdX8lZ5MdpyS+qTfJPUCoxzjoi8/qa/Ze0VUOp4tbj6RQQhtBvTobmyasFTZMLqK55l3fufoO2hl9lbd37KHNou1rwlaGM4Em89cVqzdENcssZtzv+FVqKPaIWvOvXGds3EyZvD4pYx1G0GtW6BlD6sTeJN3rhY5iKWo5lNaDlIjwAUNQyvVjQMI4uOHvfYxy9lygxqKjKPEdUpvYORgrUkObg06zDvwor08TAcoW2dPwVytPXcPYwn76SGuX/YG09Yc4RO0PbIguaLcPn8utGk8i5EgWNY4mSbdcOWkFRbMkcQoknMj9Mv2bR8xPpOTdD09QVfd1oQrdlWOEr+hXK3HGJsXb/graFB2hr1y4UvU2MFGTVZTDsDNwk+MALLF1l72rG4tcSJr9ICXIFY43UIKebJYXABOfsHde4Bo6wjuhl1hm7rK89eK6wfnwxv37san7DeLJkK0oXW2dShpaZBIpsyfXbP3S44pbZ5LW7YXx4G82SthPoPchB8d99pG7Dxv/J7SLIGRJFrbPXbsWJnQKfW4HeU9g4hZx9/KKu+sBCfu3oor72UKqwcfz3+XWH3sirGXmdr9jzS9bR+xpOwQjR56fNgX9eW+Y1o+hi+W7ZjtVYmSYAgP8frs+e44lg7GT4btd0k++hgpo9f8qa/Qy52fMj5GBOSgrYUZ3wfZQyRmlzOMg5Y//GO6Mh2tz5OiUED7L2aFxXNRTRVg1MkpaOd1hL1zxrixxGqdMEV777ZbximbJ0fsCVx4/oKgeO8ZV7TmtdQ6+TlvC7tDXyKmPv2s87YmG+fPePOXssgqLGPvR/f6oWPLvUok/i7V2SpqKX1Ti6RUYKPYP+50bC6FczjugaPDqW/jIAsFTAW+PTd8XQ7bw/81IanEZiR3xC2PUg/lnnnrgfD4ZQZaHVT9oDf45fU7niD+iqQyvxUH566wgSfh2Df4fqka/dqIB3u913ZZ4CAAAAAAAAAAAAAAAAAAAAAAAAAAAAwJ3AihX/C27th3FV6LjcAAAAAElFTkSuQmCC;" vertex="1" parent="zbF90gA1H5KHamxqbV0r-118">
          <mxGeometry y="37.179487179487175" width="51.22682572948573" height="16.666873349123875" as="geometry" />
        </mxCell>
        <mxCell id="zbF90gA1H5KHamxqbV0r-120" value="" style="shape=mxgraph.cisco.people.standing_woman;html=1;pointerEvents=1;dashed=0;fillColor=#036897;strokeColor=#ffffff;strokeWidth=2;verticalLabelPosition=bottom;verticalAlign=top;align=center;outlineConnect=0;" vertex="1" parent="zbF90gA1H5KHamxqbV0r-118">
          <mxGeometry x="18.46183630906743" width="15.338136184057634" height="46.1025641025641" as="geometry" />
        </mxCell>
        <mxCell id="zbF90gA1H5KHamxqbV0r-121" value="" style="shape=image;verticalLabelPosition=bottom;labelBackgroundColor=default;verticalAlign=top;aspect=fixed;imageAspect=0;image=data:image/png,iVBORw0KGgoAAAANSUhEUgAAANEAAABECAYAAAAfkdAfAAAAAXNSR0IArs4c6QAAAARnQU1BAACxjwv8YQUAAAAJcEhZcwAAFxEAABcRAcom8z8AAA5uSURBVHhe7Z0LbFvndce9pC3SJF2W7FHPWxe3SIsscdDY5H1fkqIkSnJqLIFnWeS9l2+JkvV+2l43lAjWoBiyzW3nWuTlS5QoiaQlS7LlWLYsyZIly7JTu2kSCGgadzGSNJuXNnHkp0jefR9NI4/RRZx4jkWdH/AHKUqEyO87555zvtddAQAAAAAAAAAAAAAAAAAAAAAAAAAAAABLgtLS+FcyTz8Ga/Svop2xhz76e13pzvsLXd4HSt2vfOw9G1x77y1VlLszP6bRuSe+lHkKAEsLbOi6htCfENb4SsYaepSqH/p6aXX8fmKzR0sb5c2kGHRQYrCBlfw23t5j4p1RO2UN2SjR106Y/IOk6B/hnLHD2or+Ht7VN0abw7tJMfAybYscZp3xEc7eK3OOaBdlCgxTkn+KdUb38ZX97Zw94qMEX4CQfOO0szvAO6J1tLWrTm2S/4US/M/y5d0q3tVVoBa869cJQUFnDa3EDkqgR/x5Mx8fAG4ftBhch4w/j7F2P0NbAptpKdDE2iJu3ta9Q+vqe15XNbRfWzU4w5f3z2tcg+9rXYOX8+tHrxTUHz5vaDp6CT1eyq8fS+bXH04UNE5cKWyeThRvnUs+9Q+nleKtx5HmlOLWmVTx1heR5pLrt/382mtts+j1WfS3J5Prt+PXTqCfjymGlhn02okkei/+e6WwaSpZ2HgkUdg0nTA0TV3Jrzuc0G0ZvqqvHU3qaw/+N+eMnucc8V+xjthv+Kr+dlII9JKivBc58/OUENyoEuSnaauPQ99xNf6+KhTtVC7vl9NfHgA+LTilUotegrJ2/j2KCM9Tlo4IJQVGuPLoa3zF7v/UVe9/BxnkawUN4wsFDRPnkeEqhQ3jSnHLTNrgS7a+qGCnuJN13TnxZ0WPqSL02fOqRxL6+tHLeTUjC5w99hZrj55l7NEJFAF/giLbv6IoyDOC/+G1SLqGHRDFgBUrqLL21Yw5vJaRQkbaGqkizR0R2t41wtp7XkOp0tn8hrH3ipqnLxW3zSXShociQMk2bHQnkBG+mNYnjTM3dCr9uH77qfR3LGw6mkQXihRyriRr701oXAO/5Z2xPsrkm2QEbythkkXC7GF01aGViqL8UaZ5gVzCrSh38Vu6H8S1ir6y87taW1DDl0d/hGqQAY1rzy90NcNn9Q1j76P0agFfkXGahB0FO8z/NTBQJp1MoRQzZWg+qmgqBxW+vO88aQ2/RJh8JyiLfxtnDqOotfNha2jinkw3AEsRRupcoxaDBCnJFpSSdaDaZR7VK/MoFbuAUrGPpV/gMJ9PuP1w1MLtmVeLIpZz92XOGf+d2uQ9zUqBrbw1VEDZPZTK+yLUV3cyLq/3y5Qt+G3SJmuQw+xAHTmrqez7dV7NCyjCHEsWbzuZTstAt0c4YqHInipsmkxx5X0oDdzzO8LkjZKC54fqzbvW6CTfI5muA74oDFLnfeqyn32DlIL5pNX3A0pKDxW/wlcMfKCvOXg5HWlaZ6/VL6hDs3U06PYpPYiBUuX8utF0CshYw1OonuonUXqNL36ZbgVuF1pn799y5i4HY+mUWUf0JV31/vcKmiYvXS+KQXe+8LB8fv3hFHKoFCH65wmjJ8xZQzSey8p0M3ArwYMD7omJLxVXdzxO2zq+z9i7X0E593mUfyeKcaqGCt1sHQVaGipsnMS1lMJYIgpyqGnCKP8TqmW/WRqPf2xFBvAZoW3BJyhjQKIk3zBr63mVd/RdRenaVZwaQJqWW8L9qa8/pHAVfQlC8CVIQf4ZY+1+VGXy/lnGHIBPi6rU+wBfJn8H1TnPElLgIGXu/HVe9YFEegh668msHQDKHV2bBJ5FtdOAojZ63ka1U6dK9FZmzAP4Q9CbYl9V2wPf4s3hDaQYmEZXpDP6utGLeN4mW2ODcl94RQXviKVQZPq92rTrp3iSPGMuwCehnb6HcGFJS0E3Y+06o6s+cMHQfBTVOjBYADqt6OsOKYyjV0FRCUWnXe6M2QDX4Vzhv6HMoQrK0nGAdUQv5jeMJ4rbjqcXZoJA14UzEuxMhBhIqsraR0lR/uuMCS1vKFvwKULyPUebw6+w5TGlKL2KGUbbQDdWft1YijZ3LhJG+W1CkG0ZU1qeMKK8iRTkCdbW/a6mcghFn6WxChr0xQovjsVLjPjyPkVd5nkJpXjbluWGRFT/5JGCb4axRd7VbdmfKGk7rjyFGidbo4FA2WRoOaqwjpiiMnnPUkb/s/FP7PTNWeJx5W5ddewRWvT3Iwd6S1u1L1XUOpvCV5dsDQUC3UjpiNQ2m+Ic8aTK6DmLL8wql/fejKnlLpSx5+uM6G8gxcA7XHl/orBhAjkQTJqCPrvwlgyVUb6kErwn6Vxf2Kqzhu4prhxYTRh987TY8Z6+/lAKtiGAPq+KUR2trRpWCJPnHULy7diwIcejEWmWG0nR9zLr3J3AZwdkaxQQ6GaEB6MKGiYU2tx5VW1sn2Ic/jU5u8v2KWtoJSHK/06IwTPaqr0pGIkD3Qrh2qio7ZjCWruThFGeZ2yhUqml876M2eUOeCU2a/arSUHeRYrBhby6Qzl8TgHodgvX1bQtkiCFwJuk4G99zOl7KGN6uQW6SjyuNnn3IX1gaJ5CYRjWxIFujYrajqc4R2yRNPneZCR/66ZNsa9mzC63UG8MfIsyef+REn349JhUSdtc1gYBgW5KKJ0rqB9LMo7eRcLkO8OjdC5nnYis6/pjlNJVEIL/HOeMpg8czNooINBNCI/O4QMxKSn4vlrw/urvagZXWd2h3DxpKB6P382ag08TojxKmTuThqbJrI0CAt2MDC1HU7xrIEkJgUVK8D3HOnpW5fSuWHy4CC3IP1SXed7WVu2DwQXQ5xKeJsGpHGvrvaA2euf48g4V3tSZMbfcxO1W7vre9uEHSZNniLJ2JfJqDsCiU9BnEp6oL2icTPKuPYsqk/e3pOAvXSd2/WXG1HIfteDbSAjyfkoM4lNfsjYSCHRj/VwpaDqSYBzRRVIMnaMlXy1fHv5OxryWBxtc3ns5S2A9YZKHGVu3YmieTI/1Z28wEOgjQnZSiByIc8YWUTbzJmn2/YCzdDyeMa3lB7FZLlab2mdRRLqQV30g3UBZGw4EQkqncA3jCQ5FIMocnsEORFl74dwFfNMposwzpC7z/I8eORLMH4GyCU/O6+sOXWHtvedIc/AF0hxoLHW7s951cNlCCu1NpCCfIsVAIq/6hawNCVp+wtHH0Dyd0FQNJTh790laCv2Ys/k2wuGON2Ctw79qndFTQwjyG6yjNz2Ema1hQctDxa2zSX3t6BXOEfsvSgq2M/bAJkaIPJwxF+AP8aSx3aAyyl51WftbmopBfIcBmFNaJsIDTIXNU4qmat9l1tHzS1L0j1JSpxFlKI+xjsGvZUwE+LTQtsgThMm7kzZ3vM7aepP66oOZhobt5LmmotZjir5+LME6ohdYe/cYSu3jlOSp10jyNw2G5++D9O1zgM9loKztqwnjzgq1yXOatnYp+toRJb9+NGtngJaOSradVAwt0wld9QsLKGVbIC2hN2hRruPEEF1kC34jYwLArYRuiqVPSlUbPWFSCszzzrhiaJpMFePTgrJ0EujOVHHbHL4XLB5Ausg642cZc2cXJYTqIV27zTAm76O06KskjZ4Rxto5p3UN4tW8qIOOp0d0snUe6IsQvmn0SZSuTSt5NSNXdFV7zzD2nmlU68RVxoBpnTFAaSqW0XKdOxVebH+MFnycusy7hxDkAY1rYCFvy3CqpBWP7kH99EWoqGXmSkHDxEVt5dBFztl3mbV1nWIsXRHa7K/D2QQj7foLmOe5Q7FaJ+5RmwM6FJ2eQVe7IC11HNWU91/VuIYSBfVj1w7JxwMTMDhxC3QqHWXwOdn4nlE42qAaR0EXsN/wFX1zlDXyHOvotPGVXY+tFXbC0PRSRVcdX8lZ5MdpyS+qTfJPUCoxzjoi8/qa/Ze0VUOp4tbj6RQQhtBvTobmyasFTZMLqK55l3fufoO2hl9lbd37KHNou1rwlaGM4Em89cVqzdENcssZtzv+FVqKPaIWvOvXGds3EyZvD4pYx1G0GtW6BlD6sTeJN3rhY5iKWo5lNaDlIjwAUNQyvVjQMI4uOHvfYxy9lygxqKjKPEdUpvYORgrUkObg06zDvwor08TAcoW2dPwVytPXcPYwn76SGuX/YG09Yc4RO0PbIguaLcPn8utGk8i5EgWNY4mSbdcOWkFRbMkcQoknMj9Mv2bR8xPpOTdD09QVfd1oQrdlWOEr+hXK3HGJsXb/graFB2hr1y4UvU2MFGTVZTDsDNwk+MALLF1l72rG4tcSJr9ICXIFY43UIKebJYXABOfsHde4Bo6wjuhl1hm7rK89eK6wfnwxv37san7DeLJkK0oXW2dShpaZBIpsyfXbP3S44pbZ5LW7YXx4G82SthPoPchB8d99pG7Dxv/J7SLIGRJFrbPXbsWJnQKfW4HeU9g4hZx9/KKu+sBCfu3oor72UKqwcfz3+XWH3sirGXmdr9jzS9bR+xpOwQjR56fNgX9eW+Y1o+hi+W7ZjtVYmSYAgP8frs+e44lg7GT4btd0k++hgpo9f8qa/Qy52fMj5GBOSgrYUZ3wfZQyRmlzOMg5Y//GO6Mh2tz5OiUED7L2aFxXNRTRVg1MkpaOd1hL1zxrixxGqdMEV777ZbximbJ0fsCVx4/oKgeO8ZV7TmtdQ6+TlvC7tDXyKmPv2s87YmG+fPePOXssgqLGPvR/f6oWPLvUok/i7V2SpqKX1Ti6RUYKPYP+50bC6FczjugaPDqW/jIAsFTAW+PTd8XQ7bw/81IanEZiR3xC2PUg/lnnnrgfD4ZQZaHVT9oDf45fU7niD+iqQyvxUH566wgSfh2Df4fqka/dqIB3u913ZZ4CAAAAAAAAAAAAAAAAAAAAAAAAAAAAwJ3AihX/C27th3FV6LjcAAAAAElFTkSuQmCC;" vertex="1" parent="1">
          <mxGeometry x="368.97" y="245.76923076923077" width="52.96" height="17.230769230769234" as="geometry" />
        </mxCell>
        <mxCell id="zbF90gA1H5KHamxqbV0r-122" value="" style="shape=mxgraph.cisco.people.standing_man;html=1;pointerEvents=1;dashed=0;fillColor=#036897;strokeColor=#ffffff;strokeWidth=2;verticalLabelPosition=bottom;verticalAlign=top;align=center;outlineConnect=0;" vertex="1" parent="1">
          <mxGeometry x="385.03" y="212" width="22" height="42.47" as="geometry" />
        </mxCell>
        <mxCell id="zbF90gA1H5KHamxqbV0r-123" value="" style="group" vertex="1" connectable="0" parent="1">
          <mxGeometry x="350" y="220" width="60" height="58" as="geometry" />
        </mxCell>
        <mxCell id="zbF90gA1H5KHamxqbV0r-124" value="" style="shape=image;verticalLabelPosition=bottom;labelBackgroundColor=default;verticalAlign=top;aspect=fixed;imageAspect=0;image=data:image/png,iVBORw0KGgoAAAANSUhEUgAAANEAAABECAYAAAAfkdAfAAAAAXNSR0IArs4c6QAAAARnQU1BAACxjwv8YQUAAAAJcEhZcwAAFxEAABcRAcom8z8AAA5uSURBVHhe7Z0LbFvndce9pC3SJF2W7FHPWxe3SIsscdDY5H1fkqIkSnJqLIFnWeS9l2+JkvV+2l43lAjWoBiyzW3nWuTlS5QoiaQlS7LlWLYsyZIly7JTu2kSCGgadzGSNJuXNnHkp0jefR9NI4/RRZx4jkWdH/AHKUqEyO87555zvtddAQAAAAAAAAAAAAAAAAAAAAAAAAAAAABLgtLS+FcyTz8Ga/Svop2xhz76e13pzvsLXd4HSt2vfOw9G1x77y1VlLszP6bRuSe+lHkKAEsLbOi6htCfENb4SsYaepSqH/p6aXX8fmKzR0sb5c2kGHRQYrCBlfw23t5j4p1RO2UN2SjR106Y/IOk6B/hnLHD2or+Ht7VN0abw7tJMfAybYscZp3xEc7eK3OOaBdlCgxTkn+KdUb38ZX97Zw94qMEX4CQfOO0szvAO6J1tLWrTm2S/4US/M/y5d0q3tVVoBa869cJQUFnDa3EDkqgR/x5Mx8fAG4ftBhch4w/j7F2P0NbAptpKdDE2iJu3ta9Q+vqe15XNbRfWzU4w5f3z2tcg+9rXYOX8+tHrxTUHz5vaDp6CT1eyq8fS+bXH04UNE5cKWyeThRvnUs+9Q+nleKtx5HmlOLWmVTx1heR5pLrt/382mtts+j1WfS3J5Prt+PXTqCfjymGlhn02okkei/+e6WwaSpZ2HgkUdg0nTA0TV3Jrzuc0G0ZvqqvHU3qaw/+N+eMnucc8V+xjthv+Kr+dlII9JKivBc58/OUENyoEuSnaauPQ99xNf6+KhTtVC7vl9NfHgA+LTilUotegrJ2/j2KCM9Tlo4IJQVGuPLoa3zF7v/UVe9/BxnkawUN4wsFDRPnkeEqhQ3jSnHLTNrgS7a+qGCnuJN13TnxZ0WPqSL02fOqRxL6+tHLeTUjC5w99hZrj55l7NEJFAF/giLbv6IoyDOC/+G1SLqGHRDFgBUrqLL21Yw5vJaRQkbaGqkizR0R2t41wtp7XkOp0tn8hrH3ipqnLxW3zSXShociQMk2bHQnkBG+mNYnjTM3dCr9uH77qfR3LGw6mkQXihRyriRr701oXAO/5Z2xPsrkm2QEbythkkXC7GF01aGViqL8UaZ5gVzCrSh38Vu6H8S1ir6y87taW1DDl0d/hGqQAY1rzy90NcNn9Q1j76P0agFfkXGahB0FO8z/NTBQJp1MoRQzZWg+qmgqBxW+vO88aQ2/RJh8JyiLfxtnDqOotfNha2jinkw3AEsRRupcoxaDBCnJFpSSdaDaZR7VK/MoFbuAUrGPpV/gMJ9PuP1w1MLtmVeLIpZz92XOGf+d2uQ9zUqBrbw1VEDZPZTK+yLUV3cyLq/3y5Qt+G3SJmuQw+xAHTmrqez7dV7NCyjCHEsWbzuZTstAt0c4YqHInipsmkxx5X0oDdzzO8LkjZKC54fqzbvW6CTfI5muA74oDFLnfeqyn32DlIL5pNX3A0pKDxW/wlcMfKCvOXg5HWlaZ6/VL6hDs3U06PYpPYiBUuX8utF0CshYw1OonuonUXqNL36ZbgVuF1pn799y5i4HY+mUWUf0JV31/vcKmiYvXS+KQXe+8LB8fv3hFHKoFCH65wmjJ8xZQzSey8p0M3ArwYMD7omJLxVXdzxO2zq+z9i7X0E593mUfyeKcaqGCt1sHQVaGipsnMS1lMJYIgpyqGnCKP8TqmW/WRqPf2xFBvAZoW3BJyhjQKIk3zBr63mVd/RdRenaVZwaQJqWW8L9qa8/pHAVfQlC8CVIQf4ZY+1+VGXy/lnGHIBPi6rU+wBfJn8H1TnPElLgIGXu/HVe9YFEegh668msHQDKHV2bBJ5FtdOAojZ63ka1U6dK9FZmzAP4Q9CbYl9V2wPf4s3hDaQYmEZXpDP6utGLeN4mW2ODcl94RQXviKVQZPq92rTrp3iSPGMuwCehnb6HcGFJS0E3Y+06o6s+cMHQfBTVOjBYADqt6OsOKYyjV0FRCUWnXe6M2QDX4Vzhv6HMoQrK0nGAdUQv5jeMJ4rbjqcXZoJA14UzEuxMhBhIqsraR0lR/uuMCS1vKFvwKULyPUebw6+w5TGlKL2KGUbbQDdWft1YijZ3LhJG+W1CkG0ZU1qeMKK8iRTkCdbW/a6mcghFn6WxChr0xQovjsVLjPjyPkVd5nkJpXjbluWGRFT/5JGCb4axRd7VbdmfKGk7rjyFGidbo4FA2WRoOaqwjpiiMnnPUkb/s/FP7PTNWeJx5W5ddewRWvT3Iwd6S1u1L1XUOpvCV5dsDQUC3UjpiNQ2m+Ic8aTK6DmLL8wql/fejKnlLpSx5+uM6G8gxcA7XHl/orBhAjkQTJqCPrvwlgyVUb6kErwn6Vxf2Kqzhu4prhxYTRh987TY8Z6+/lAKtiGAPq+KUR2trRpWCJPnHULy7diwIcejEWmWG0nR9zLr3J3AZwdkaxQQ6GaEB6MKGiYU2tx5VW1sn2Ic/jU5u8v2KWtoJSHK/06IwTPaqr0pGIkD3Qrh2qio7ZjCWruThFGeZ2yhUqml876M2eUOeCU2a/arSUHeRYrBhby6Qzl8TgHodgvX1bQtkiCFwJuk4G99zOl7KGN6uQW6SjyuNnn3IX1gaJ5CYRjWxIFujYrajqc4R2yRNPneZCR/66ZNsa9mzC63UG8MfIsyef+REn349JhUSdtc1gYBgW5KKJ0rqB9LMo7eRcLkO8OjdC5nnYis6/pjlNJVEIL/HOeMpg8czNooINBNCI/O4QMxKSn4vlrw/urvagZXWd2h3DxpKB6P382ag08TojxKmTuThqbJrI0CAt2MDC1HU7xrIEkJgUVK8D3HOnpW5fSuWHy4CC3IP1SXed7WVu2DwQXQ5xKeJsGpHGvrvaA2euf48g4V3tSZMbfcxO1W7vre9uEHSZNniLJ2JfJqDsCiU9BnEp6oL2icTPKuPYsqk/e3pOAvXSd2/WXG1HIfteDbSAjyfkoM4lNfsjYSCHRj/VwpaDqSYBzRRVIMnaMlXy1fHv5OxryWBxtc3ns5S2A9YZKHGVu3YmieTI/1Z28wEOgjQnZSiByIc8YWUTbzJmn2/YCzdDyeMa3lB7FZLlab2mdRRLqQV30g3UBZGw4EQkqncA3jCQ5FIMocnsEORFl74dwFfNMposwzpC7z/I8eORLMH4GyCU/O6+sOXWHtvedIc/AF0hxoLHW7s951cNlCCu1NpCCfIsVAIq/6hawNCVp+wtHH0Dyd0FQNJTh790laCv2Ys/k2wuGON2Ctw79qndFTQwjyG6yjNz2Ema1hQctDxa2zSX3t6BXOEfsvSgq2M/bAJkaIPJwxF+AP8aSx3aAyyl51WftbmopBfIcBmFNaJsIDTIXNU4qmat9l1tHzS1L0j1JSpxFlKI+xjsGvZUwE+LTQtsgThMm7kzZ3vM7aepP66oOZhobt5LmmotZjir5+LME6ohdYe/cYSu3jlOSp10jyNw2G5++D9O1zgM9loKztqwnjzgq1yXOatnYp+toRJb9+NGtngJaOSradVAwt0wld9QsLKGVbIC2hN2hRruPEEF1kC34jYwLArYRuiqVPSlUbPWFSCszzzrhiaJpMFePTgrJ0EujOVHHbHL4XLB5Ausg642cZc2cXJYTqIV27zTAm76O06KskjZ4Rxto5p3UN4tW8qIOOp0d0snUe6IsQvmn0SZSuTSt5NSNXdFV7zzD2nmlU68RVxoBpnTFAaSqW0XKdOxVebH+MFnycusy7hxDkAY1rYCFvy3CqpBWP7kH99EWoqGXmSkHDxEVt5dBFztl3mbV1nWIsXRHa7K/D2QQj7foLmOe5Q7FaJ+5RmwM6FJ2eQVe7IC11HNWU91/VuIYSBfVj1w7JxwMTMDhxC3QqHWXwOdn4nlE42qAaR0EXsN/wFX1zlDXyHOvotPGVXY+tFXbC0PRSRVcdX8lZ5MdpyS+qTfJPUCoxzjoi8/qa/Ze0VUOp4tbj6RQQhtBvTobmyasFTZMLqK55l3fufoO2hl9lbd37KHNou1rwlaGM4Em89cVqzdENcssZtzv+FVqKPaIWvOvXGds3EyZvD4pYx1G0GtW6BlD6sTeJN3rhY5iKWo5lNaDlIjwAUNQyvVjQMI4uOHvfYxy9lygxqKjKPEdUpvYORgrUkObg06zDvwor08TAcoW2dPwVytPXcPYwn76SGuX/YG09Yc4RO0PbIguaLcPn8utGk8i5EgWNY4mSbdcOWkFRbMkcQoknMj9Mv2bR8xPpOTdD09QVfd1oQrdlWOEr+hXK3HGJsXb/graFB2hr1y4UvU2MFGTVZTDsDNwk+MALLF1l72rG4tcSJr9ICXIFY43UIKebJYXABOfsHde4Bo6wjuhl1hm7rK89eK6wfnwxv37san7DeLJkK0oXW2dShpaZBIpsyfXbP3S44pbZ5LW7YXx4G82SthPoPchB8d99pG7Dxv/J7SLIGRJFrbPXbsWJnQKfW4HeU9g4hZx9/KKu+sBCfu3oor72UKqwcfz3+XWH3sirGXmdr9jzS9bR+xpOwQjR56fNgX9eW+Y1o+hi+W7ZjtVYmSYAgP8frs+e44lg7GT4btd0k++hgpo9f8qa/Qy52fMj5GBOSgrYUZ3wfZQyRmlzOMg5Y//GO6Mh2tz5OiUED7L2aFxXNRTRVg1MkpaOd1hL1zxrixxGqdMEV777ZbximbJ0fsCVx4/oKgeO8ZV7TmtdQ6+TlvC7tDXyKmPv2s87YmG+fPePOXssgqLGPvR/f6oWPLvUok/i7V2SpqKX1Ti6RUYKPYP+50bC6FczjugaPDqW/jIAsFTAW+PTd8XQ7bw/81IanEZiR3xC2PUg/lnnnrgfD4ZQZaHVT9oDf45fU7niD+iqQyvxUH566wgSfh2Df4fqka/dqIB3u913ZZ4CAAAAAAAAAAAAAAAAAAAAAAAAAAAAwJ3AihX/C27th3FV6LjcAAAAAElFTkSuQmCC;" vertex="1" parent="zbF90gA1H5KHamxqbV0r-123">
          <mxGeometry y="37.179487179487175" width="51.22682572948573" height="16.666873349123875" as="geometry" />
        </mxCell>
        <mxCell id="zbF90gA1H5KHamxqbV0r-125" value="" style="shape=mxgraph.cisco.people.standing_woman;html=1;pointerEvents=1;dashed=0;fillColor=#036897;strokeColor=#ffffff;strokeWidth=2;verticalLabelPosition=bottom;verticalAlign=top;align=center;outlineConnect=0;" vertex="1" parent="zbF90gA1H5KHamxqbV0r-123">
          <mxGeometry x="18.46183630906743" width="15.338136184057634" height="46.1025641025641" as="geometry" />
        </mxCell>
        <mxCell id="zbF90gA1H5KHamxqbV0r-126" value="" style="shape=image;verticalLabelPosition=bottom;labelBackgroundColor=default;verticalAlign=top;aspect=fixed;imageAspect=0;image=data:image/png,iVBORw0KGgoAAAANSUhEUgAAANEAAABECAYAAAAfkdAfAAAAAXNSR0IArs4c6QAAAARnQU1BAACxjwv8YQUAAAAJcEhZcwAAFxEAABcRAcom8z8AAA5uSURBVHhe7Z0LbFvndce9pC3SJF2W7FHPWxe3SIsscdDY5H1fkqIkSnJqLIFnWeS9l2+JkvV+2l43lAjWoBiyzW3nWuTlS5QoiaQlS7LlWLYsyZIly7JTu2kSCGgadzGSNJuXNnHkp0jefR9NI4/RRZx4jkWdH/AHKUqEyO87555zvtddAQAAAAAAAAAAAAAAAAAAAAAAAAAAAABLgtLS+FcyTz8Ga/Svop2xhz76e13pzvsLXd4HSt2vfOw9G1x77y1VlLszP6bRuSe+lHkKAEsLbOi6htCfENb4SsYaepSqH/p6aXX8fmKzR0sb5c2kGHRQYrCBlfw23t5j4p1RO2UN2SjR106Y/IOk6B/hnLHD2or+Ht7VN0abw7tJMfAybYscZp3xEc7eK3OOaBdlCgxTkn+KdUb38ZX97Zw94qMEX4CQfOO0szvAO6J1tLWrTm2S/4US/M/y5d0q3tVVoBa869cJQUFnDa3EDkqgR/x5Mx8fAG4ftBhch4w/j7F2P0NbAptpKdDE2iJu3ta9Q+vqe15XNbRfWzU4w5f3z2tcg+9rXYOX8+tHrxTUHz5vaDp6CT1eyq8fS+bXH04UNE5cKWyeThRvnUs+9Q+nleKtx5HmlOLWmVTx1heR5pLrt/382mtts+j1WfS3J5Prt+PXTqCfjymGlhn02okkei/+e6WwaSpZ2HgkUdg0nTA0TV3Jrzuc0G0ZvqqvHU3qaw/+N+eMnucc8V+xjthv+Kr+dlII9JKivBc58/OUENyoEuSnaauPQ99xNf6+KhTtVC7vl9NfHgA+LTilUotegrJ2/j2KCM9Tlo4IJQVGuPLoa3zF7v/UVe9/BxnkawUN4wsFDRPnkeEqhQ3jSnHLTNrgS7a+qGCnuJN13TnxZ0WPqSL02fOqRxL6+tHLeTUjC5w99hZrj55l7NEJFAF/giLbv6IoyDOC/+G1SLqGHRDFgBUrqLL21Yw5vJaRQkbaGqkizR0R2t41wtp7XkOp0tn8hrH3ipqnLxW3zSXShociQMk2bHQnkBG+mNYnjTM3dCr9uH77qfR3LGw6mkQXihRyriRr701oXAO/5Z2xPsrkm2QEbythkkXC7GF01aGViqL8UaZ5gVzCrSh38Vu6H8S1ir6y87taW1DDl0d/hGqQAY1rzy90NcNn9Q1j76P0agFfkXGahB0FO8z/NTBQJp1MoRQzZWg+qmgqBxW+vO88aQ2/RJh8JyiLfxtnDqOotfNha2jinkw3AEsRRupcoxaDBCnJFpSSdaDaZR7VK/MoFbuAUrGPpV/gMJ9PuP1w1MLtmVeLIpZz92XOGf+d2uQ9zUqBrbw1VEDZPZTK+yLUV3cyLq/3y5Qt+G3SJmuQw+xAHTmrqez7dV7NCyjCHEsWbzuZTstAt0c4YqHInipsmkxx5X0oDdzzO8LkjZKC54fqzbvW6CTfI5muA74oDFLnfeqyn32DlIL5pNX3A0pKDxW/wlcMfKCvOXg5HWlaZ6/VL6hDs3U06PYpPYiBUuX8utF0CshYw1OonuonUXqNL36ZbgVuF1pn799y5i4HY+mUWUf0JV31/vcKmiYvXS+KQXe+8LB8fv3hFHKoFCH65wmjJ8xZQzSey8p0M3ArwYMD7omJLxVXdzxO2zq+z9i7X0E593mUfyeKcaqGCt1sHQVaGipsnMS1lMJYIgpyqGnCKP8TqmW/WRqPf2xFBvAZoW3BJyhjQKIk3zBr63mVd/RdRenaVZwaQJqWW8L9qa8/pHAVfQlC8CVIQf4ZY+1+VGXy/lnGHIBPi6rU+wBfJn8H1TnPElLgIGXu/HVe9YFEegh668msHQDKHV2bBJ5FtdOAojZ63ka1U6dK9FZmzAP4Q9CbYl9V2wPf4s3hDaQYmEZXpDP6utGLeN4mW2ODcl94RQXviKVQZPq92rTrp3iSPGMuwCehnb6HcGFJS0E3Y+06o6s+cMHQfBTVOjBYADqt6OsOKYyjV0FRCUWnXe6M2QDX4Vzhv6HMoQrK0nGAdUQv5jeMJ4rbjqcXZoJA14UzEuxMhBhIqsraR0lR/uuMCS1vKFvwKULyPUebw6+w5TGlKL2KGUbbQDdWft1YijZ3LhJG+W1CkG0ZU1qeMKK8iRTkCdbW/a6mcghFn6WxChr0xQovjsVLjPjyPkVd5nkJpXjbluWGRFT/5JGCb4axRd7VbdmfKGk7rjyFGidbo4FA2WRoOaqwjpiiMnnPUkb/s/FP7PTNWeJx5W5ddewRWvT3Iwd6S1u1L1XUOpvCV5dsDQUC3UjpiNQ2m+Ic8aTK6DmLL8wql/fejKnlLpSx5+uM6G8gxcA7XHl/orBhAjkQTJqCPrvwlgyVUb6kErwn6Vxf2Kqzhu4prhxYTRh987TY8Z6+/lAKtiGAPq+KUR2trRpWCJPnHULy7diwIcejEWmWG0nR9zLr3J3AZwdkaxQQ6GaEB6MKGiYU2tx5VW1sn2Ic/jU5u8v2KWtoJSHK/06IwTPaqr0pGIkD3Qrh2qio7ZjCWruThFGeZ2yhUqml876M2eUOeCU2a/arSUHeRYrBhby6Qzl8TgHodgvX1bQtkiCFwJuk4G99zOl7KGN6uQW6SjyuNnn3IX1gaJ5CYRjWxIFujYrajqc4R2yRNPneZCR/66ZNsa9mzC63UG8MfIsyef+REn349JhUSdtc1gYBgW5KKJ0rqB9LMo7eRcLkO8OjdC5nnYis6/pjlNJVEIL/HOeMpg8czNooINBNCI/O4QMxKSn4vlrw/urvagZXWd2h3DxpKB6P382ag08TojxKmTuThqbJrI0CAt2MDC1HU7xrIEkJgUVK8D3HOnpW5fSuWHy4CC3IP1SXed7WVu2DwQXQ5xKeJsGpHGvrvaA2euf48g4V3tSZMbfcxO1W7vre9uEHSZNniLJ2JfJqDsCiU9BnEp6oL2icTPKuPYsqk/e3pOAvXSd2/WXG1HIfteDbSAjyfkoM4lNfsjYSCHRj/VwpaDqSYBzRRVIMnaMlXy1fHv5OxryWBxtc3ns5S2A9YZKHGVu3YmieTI/1Z28wEOgjQnZSiByIc8YWUTbzJmn2/YCzdDyeMa3lB7FZLlab2mdRRLqQV30g3UBZGw4EQkqncA3jCQ5FIMocnsEORFl74dwFfNMposwzpC7z/I8eORLMH4GyCU/O6+sOXWHtvedIc/AF0hxoLHW7s951cNlCCu1NpCCfIsVAIq/6hawNCVp+wtHH0Dyd0FQNJTh790laCv2Ys/k2wuGON2Ctw79qndFTQwjyG6yjNz2Ema1hQctDxa2zSX3t6BXOEfsvSgq2M/bAJkaIPJwxF+AP8aSx3aAyyl51WftbmopBfIcBmFNaJsIDTIXNU4qmat9l1tHzS1L0j1JSpxFlKI+xjsGvZUwE+LTQtsgThMm7kzZ3vM7aepP66oOZhobt5LmmotZjir5+LME6ohdYe/cYSu3jlOSp10jyNw2G5++D9O1zgM9loKztqwnjzgq1yXOatnYp+toRJb9+NGtngJaOSradVAwt0wld9QsLKGVbIC2hN2hRruPEEF1kC34jYwLArYRuiqVPSlUbPWFSCszzzrhiaJpMFePTgrJ0EujOVHHbHL4XLB5Ausg642cZc2cXJYTqIV27zTAm76O06KskjZ4Rxto5p3UN4tW8qIOOp0d0snUe6IsQvmn0SZSuTSt5NSNXdFV7zzD2nmlU68RVxoBpnTFAaSqW0XKdOxVebH+MFnycusy7hxDkAY1rYCFvy3CqpBWP7kH99EWoqGXmSkHDxEVt5dBFztl3mbV1nWIsXRHa7K/D2QQj7foLmOe5Q7FaJ+5RmwM6FJ2eQVe7IC11HNWU91/VuIYSBfVj1w7JxwMTMDhxC3QqHWXwOdn4nlE42qAaR0EXsN/wFX1zlDXyHOvotPGVXY+tFXbC0PRSRVcdX8lZ5MdpyS+qTfJPUCoxzjoi8/qa/Ze0VUOp4tbj6RQQhtBvTobmyasFTZMLqK55l3fufoO2hl9lbd37KHNou1rwlaGM4Em89cVqzdENcssZtzv+FVqKPaIWvOvXGds3EyZvD4pYx1G0GtW6BlD6sTeJN3rhY5iKWo5lNaDlIjwAUNQyvVjQMI4uOHvfYxy9lygxqKjKPEdUpvYORgrUkObg06zDvwor08TAcoW2dPwVytPXcPYwn76SGuX/YG09Yc4RO0PbIguaLcPn8utGk8i5EgWNY4mSbdcOWkFRbMkcQoknMj9Mv2bR8xPpOTdD09QVfd1oQrdlWOEr+hXK3HGJsXb/graFB2hr1y4UvU2MFGTVZTDsDNwk+MALLF1l72rG4tcSJr9ICXIFY43UIKebJYXABOfsHde4Bo6wjuhl1hm7rK89eK6wfnwxv37san7DeLJkK0oXW2dShpaZBIpsyfXbP3S44pbZ5LW7YXx4G82SthPoPchB8d99pG7Dxv/J7SLIGRJFrbPXbsWJnQKfW4HeU9g4hZx9/KKu+sBCfu3oor72UKqwcfz3+XWH3sirGXmdr9jzS9bR+xpOwQjR56fNgX9eW+Y1o+hi+W7ZjtVYmSYAgP8frs+e44lg7GT4btd0k++hgpo9f8qa/Qy52fMj5GBOSgrYUZ3wfZQyRmlzOMg5Y//GO6Mh2tz5OiUED7L2aFxXNRTRVg1MkpaOd1hL1zxrixxGqdMEV777ZbximbJ0fsCVx4/oKgeO8ZV7TmtdQ6+TlvC7tDXyKmPv2s87YmG+fPePOXssgqLGPvR/f6oWPLvUok/i7V2SpqKX1Ti6RUYKPYP+50bC6FczjugaPDqW/jIAsFTAW+PTd8XQ7bw/81IanEZiR3xC2PUg/lnnnrgfD4ZQZaHVT9oDf45fU7niD+iqQyvxUH566wgSfh2Df4fqka/dqIB3u913ZZ4CAAAAAAAAAAAAAAAAAAAAAAAAAAAAwJ3AihX/C27th3FV6LjcAAAAAElFTkSuQmCC;" vertex="1" parent="1">
          <mxGeometry x="378.97" y="255.76923076923077" width="52.96" height="17.230769230769234" as="geometry" />
        </mxCell>
        <mxCell id="zbF90gA1H5KHamxqbV0r-127" value="" style="shape=mxgraph.cisco.people.standing_man;html=1;pointerEvents=1;dashed=0;fillColor=#036897;strokeColor=#ffffff;strokeWidth=2;verticalLabelPosition=bottom;verticalAlign=top;align=center;outlineConnect=0;" vertex="1" parent="1">
          <mxGeometry x="395.03" y="222" width="22" height="42.47" as="geometry" />
        </mxCell>
        <mxCell id="zbF90gA1H5KHamxqbV0r-128" value="" style="group" vertex="1" connectable="0" parent="1">
          <mxGeometry x="619" y="211" width="60" height="58" as="geometry" />
        </mxCell>
        <mxCell id="zbF90gA1H5KHamxqbV0r-129" value="" style="shape=image;verticalLabelPosition=bottom;labelBackgroundColor=default;verticalAlign=top;aspect=fixed;imageAspect=0;image=data:image/png,iVBORw0KGgoAAAANSUhEUgAAANEAAABECAYAAAAfkdAfAAAAAXNSR0IArs4c6QAAAARnQU1BAACxjwv8YQUAAAAJcEhZcwAAFxEAABcRAcom8z8AAA5uSURBVHhe7Z0LbFvndce9pC3SJF2W7FHPWxe3SIsscdDY5H1fkqIkSnJqLIFnWeS9l2+JkvV+2l43lAjWoBiyzW3nWuTlS5QoiaQlS7LlWLYsyZIly7JTu2kSCGgadzGSNJuXNnHkp0jefR9NI4/RRZx4jkWdH/AHKUqEyO87555zvtddAQAAAAAAAAAAAAAAAAAAAAAAAAAAAABLgtLS+FcyTz8Ga/Svop2xhz76e13pzvsLXd4HSt2vfOw9G1x77y1VlLszP6bRuSe+lHkKAEsLbOi6htCfENb4SsYaepSqH/p6aXX8fmKzR0sb5c2kGHRQYrCBlfw23t5j4p1RO2UN2SjR106Y/IOk6B/hnLHD2or+Ht7VN0abw7tJMfAybYscZp3xEc7eK3OOaBdlCgxTkn+KdUb38ZX97Zw94qMEX4CQfOO0szvAO6J1tLWrTm2S/4US/M/y5d0q3tVVoBa869cJQUFnDa3EDkqgR/x5Mx8fAG4ftBhch4w/j7F2P0NbAptpKdDE2iJu3ta9Q+vqe15XNbRfWzU4w5f3z2tcg+9rXYOX8+tHrxTUHz5vaDp6CT1eyq8fS+bXH04UNE5cKWyeThRvnUs+9Q+nleKtx5HmlOLWmVTx1heR5pLrt/382mtts+j1WfS3J5Prt+PXTqCfjymGlhn02okkei/+e6WwaSpZ2HgkUdg0nTA0TV3Jrzuc0G0ZvqqvHU3qaw/+N+eMnucc8V+xjthv+Kr+dlII9JKivBc58/OUENyoEuSnaauPQ99xNf6+KhTtVC7vl9NfHgA+LTilUotegrJ2/j2KCM9Tlo4IJQVGuPLoa3zF7v/UVe9/BxnkawUN4wsFDRPnkeEqhQ3jSnHLTNrgS7a+qGCnuJN13TnxZ0WPqSL02fOqRxL6+tHLeTUjC5w99hZrj55l7NEJFAF/giLbv6IoyDOC/+G1SLqGHRDFgBUrqLL21Yw5vJaRQkbaGqkizR0R2t41wtp7XkOp0tn8hrH3ipqnLxW3zSXShociQMk2bHQnkBG+mNYnjTM3dCr9uH77qfR3LGw6mkQXihRyriRr701oXAO/5Z2xPsrkm2QEbythkkXC7GF01aGViqL8UaZ5gVzCrSh38Vu6H8S1ir6y87taW1DDl0d/hGqQAY1rzy90NcNn9Q1j76P0agFfkXGahB0FO8z/NTBQJp1MoRQzZWg+qmgqBxW+vO88aQ2/RJh8JyiLfxtnDqOotfNha2jinkw3AEsRRupcoxaDBCnJFpSSdaDaZR7VK/MoFbuAUrGPpV/gMJ9PuP1w1MLtmVeLIpZz92XOGf+d2uQ9zUqBrbw1VEDZPZTK+yLUV3cyLq/3y5Qt+G3SJmuQw+xAHTmrqez7dV7NCyjCHEsWbzuZTstAt0c4YqHInipsmkxx5X0oDdzzO8LkjZKC54fqzbvW6CTfI5muA74oDFLnfeqyn32DlIL5pNX3A0pKDxW/wlcMfKCvOXg5HWlaZ6/VL6hDs3U06PYpPYiBUuX8utF0CshYw1OonuonUXqNL36ZbgVuF1pn799y5i4HY+mUWUf0JV31/vcKmiYvXS+KQXe+8LB8fv3hFHKoFCH65wmjJ8xZQzSey8p0M3ArwYMD7omJLxVXdzxO2zq+z9i7X0E593mUfyeKcaqGCt1sHQVaGipsnMS1lMJYIgpyqGnCKP8TqmW/WRqPf2xFBvAZoW3BJyhjQKIk3zBr63mVd/RdRenaVZwaQJqWW8L9qa8/pHAVfQlC8CVIQf4ZY+1+VGXy/lnGHIBPi6rU+wBfJn8H1TnPElLgIGXu/HVe9YFEegh668msHQDKHV2bBJ5FtdOAojZ63ka1U6dK9FZmzAP4Q9CbYl9V2wPf4s3hDaQYmEZXpDP6utGLeN4mW2ODcl94RQXviKVQZPq92rTrp3iSPGMuwCehnb6HcGFJS0E3Y+06o6s+cMHQfBTVOjBYADqt6OsOKYyjV0FRCUWnXe6M2QDX4Vzhv6HMoQrK0nGAdUQv5jeMJ4rbjqcXZoJA14UzEuxMhBhIqsraR0lR/uuMCS1vKFvwKULyPUebw6+w5TGlKL2KGUbbQDdWft1YijZ3LhJG+W1CkG0ZU1qeMKK8iRTkCdbW/a6mcghFn6WxChr0xQovjsVLjPjyPkVd5nkJpXjbluWGRFT/5JGCb4axRd7VbdmfKGk7rjyFGidbo4FA2WRoOaqwjpiiMnnPUkb/s/FP7PTNWeJx5W5ddewRWvT3Iwd6S1u1L1XUOpvCV5dsDQUC3UjpiNQ2m+Ic8aTK6DmLL8wql/fejKnlLpSx5+uM6G8gxcA7XHl/orBhAjkQTJqCPrvwlgyVUb6kErwn6Vxf2Kqzhu4prhxYTRh987TY8Z6+/lAKtiGAPq+KUR2trRpWCJPnHULy7diwIcejEWmWG0nR9zLr3J3AZwdkaxQQ6GaEB6MKGiYU2tx5VW1sn2Ic/jU5u8v2KWtoJSHK/06IwTPaqr0pGIkD3Qrh2qio7ZjCWruThFGeZ2yhUqml876M2eUOeCU2a/arSUHeRYrBhby6Qzl8TgHodgvX1bQtkiCFwJuk4G99zOl7KGN6uQW6SjyuNnn3IX1gaJ5CYRjWxIFujYrajqc4R2yRNPneZCR/66ZNsa9mzC63UG8MfIsyef+REn349JhUSdtc1gYBgW5KKJ0rqB9LMo7eRcLkO8OjdC5nnYis6/pjlNJVEIL/HOeMpg8czNooINBNCI/O4QMxKSn4vlrw/urvagZXWd2h3DxpKB6P382ag08TojxKmTuThqbJrI0CAt2MDC1HU7xrIEkJgUVK8D3HOnpW5fSuWHy4CC3IP1SXed7WVu2DwQXQ5xKeJsGpHGvrvaA2euf48g4V3tSZMbfcxO1W7vre9uEHSZNniLJ2JfJqDsCiU9BnEp6oL2icTPKuPYsqk/e3pOAvXSd2/WXG1HIfteDbSAjyfkoM4lNfsjYSCHRj/VwpaDqSYBzRRVIMnaMlXy1fHv5OxryWBxtc3ns5S2A9YZKHGVu3YmieTI/1Z28wEOgjQnZSiByIc8YWUTbzJmn2/YCzdDyeMa3lB7FZLlab2mdRRLqQV30g3UBZGw4EQkqncA3jCQ5FIMocnsEORFl74dwFfNMposwzpC7z/I8eORLMH4GyCU/O6+sOXWHtvedIc/AF0hxoLHW7s951cNlCCu1NpCCfIsVAIq/6hawNCVp+wtHH0Dyd0FQNJTh790laCv2Ys/k2wuGON2Ctw79qndFTQwjyG6yjNz2Ema1hQctDxa2zSX3t6BXOEfsvSgq2M/bAJkaIPJwxF+AP8aSx3aAyyl51WftbmopBfIcBmFNaJsIDTIXNU4qmat9l1tHzS1L0j1JSpxFlKI+xjsGvZUwE+LTQtsgThMm7kzZ3vM7aepP66oOZhobt5LmmotZjir5+LME6ohdYe/cYSu3jlOSp10jyNw2G5++D9O1zgM9loKztqwnjzgq1yXOatnYp+toRJb9+NGtngJaOSradVAwt0wld9QsLKGVbIC2hN2hRruPEEF1kC34jYwLArYRuiqVPSlUbPWFSCszzzrhiaJpMFePTgrJ0EujOVHHbHL4XLB5Ausg642cZc2cXJYTqIV27zTAm76O06KskjZ4Rxto5p3UN4tW8qIOOp0d0snUe6IsQvmn0SZSuTSt5NSNXdFV7zzD2nmlU68RVxoBpnTFAaSqW0XKdOxVebH+MFnycusy7hxDkAY1rYCFvy3CqpBWP7kH99EWoqGXmSkHDxEVt5dBFztl3mbV1nWIsXRHa7K/D2QQj7foLmOe5Q7FaJ+5RmwM6FJ2eQVe7IC11HNWU91/VuIYSBfVj1w7JxwMTMDhxC3QqHWXwOdn4nlE42qAaR0EXsN/wFX1zlDXyHOvotPGVXY+tFXbC0PRSRVcdX8lZ5MdpyS+qTfJPUCoxzjoi8/qa/Ze0VUOp4tbj6RQQhtBvTobmyasFTZMLqK55l3fufoO2hl9lbd37KHNou1rwlaGM4Em89cVqzdENcssZtzv+FVqKPaIWvOvXGds3EyZvD4pYx1G0GtW6BlD6sTeJN3rhY5iKWo5lNaDlIjwAUNQyvVjQMI4uOHvfYxy9lygxqKjKPEdUpvYORgrUkObg06zDvwor08TAcoW2dPwVytPXcPYwn76SGuX/YG09Yc4RO0PbIguaLcPn8utGk8i5EgWNY4mSbdcOWkFRbMkcQoknMj9Mv2bR8xPpOTdD09QVfd1oQrdlWOEr+hXK3HGJsXb/graFB2hr1y4UvU2MFGTVZTDsDNwk+MALLF1l72rG4tcSJr9ICXIFY43UIKebJYXABOfsHde4Bo6wjuhl1hm7rK89eK6wfnwxv37san7DeLJkK0oXW2dShpaZBIpsyfXbP3S44pbZ5LW7YXx4G82SthPoPchB8d99pG7Dxv/J7SLIGRJFrbPXbsWJnQKfW4HeU9g4hZx9/KKu+sBCfu3oor72UKqwcfz3+XWH3sirGXmdr9jzS9bR+xpOwQjR56fNgX9eW+Y1o+hi+W7ZjtVYmSYAgP8frs+e44lg7GT4btd0k++hgpo9f8qa/Qy52fMj5GBOSgrYUZ3wfZQyRmlzOMg5Y//GO6Mh2tz5OiUED7L2aFxXNRTRVg1MkpaOd1hL1zxrixxGqdMEV777ZbximbJ0fsCVx4/oKgeO8ZV7TmtdQ6+TlvC7tDXyKmPv2s87YmG+fPePOXssgqLGPvR/f6oWPLvUok/i7V2SpqKX1Ti6RUYKPYP+50bC6FczjugaPDqW/jIAsFTAW+PTd8XQ7bw/81IanEZiR3xC2PUg/lnnnrgfD4ZQZaHVT9oDf45fU7niD+iqQyvxUH566wgSfh2Df4fqka/dqIB3u913ZZ4CAAAAAAAAAAAAAAAAAAAAAAAAAAAAwJ3AihX/C27th3FV6LjcAAAAAElFTkSuQmCC;" vertex="1" parent="zbF90gA1H5KHamxqbV0r-128">
          <mxGeometry y="37.179487179487175" width="51.22682572948573" height="16.666873349123875" as="geometry" />
        </mxCell>
        <mxCell id="zbF90gA1H5KHamxqbV0r-130" value="" style="shape=mxgraph.cisco.people.standing_woman;html=1;pointerEvents=1;dashed=0;fillColor=#036897;strokeColor=#ffffff;strokeWidth=2;verticalLabelPosition=bottom;verticalAlign=top;align=center;outlineConnect=0;" vertex="1" parent="zbF90gA1H5KHamxqbV0r-128">
          <mxGeometry x="18.46183630906743" width="15.338136184057634" height="46.1025641025641" as="geometry" />
        </mxCell>
        <mxCell id="zbF90gA1H5KHamxqbV0r-131" value="" style="shape=image;verticalLabelPosition=bottom;labelBackgroundColor=default;verticalAlign=top;aspect=fixed;imageAspect=0;image=data:image/png,iVBORw0KGgoAAAANSUhEUgAAANEAAABECAYAAAAfkdAfAAAAAXNSR0IArs4c6QAAAARnQU1BAACxjwv8YQUAAAAJcEhZcwAAFxEAABcRAcom8z8AAA5uSURBVHhe7Z0LbFvndce9pC3SJF2W7FHPWxe3SIsscdDY5H1fkqIkSnJqLIFnWeS9l2+JkvV+2l43lAjWoBiyzW3nWuTlS5QoiaQlS7LlWLYsyZIly7JTu2kSCGgadzGSNJuXNnHkp0jefR9NI4/RRZx4jkWdH/AHKUqEyO87555zvtddAQAAAAAAAAAAAAAAAAAAAAAAAAAAAABLgtLS+FcyTz8Ga/Svop2xhz76e13pzvsLXd4HSt2vfOw9G1x77y1VlLszP6bRuSe+lHkKAEsLbOi6htCfENb4SsYaepSqH/p6aXX8fmKzR0sb5c2kGHRQYrCBlfw23t5j4p1RO2UN2SjR106Y/IOk6B/hnLHD2or+Ht7VN0abw7tJMfAybYscZp3xEc7eK3OOaBdlCgxTkn+KdUb38ZX97Zw94qMEX4CQfOO0szvAO6J1tLWrTm2S/4US/M/y5d0q3tVVoBa869cJQUFnDa3EDkqgR/x5Mx8fAG4ftBhch4w/j7F2P0NbAptpKdDE2iJu3ta9Q+vqe15XNbRfWzU4w5f3z2tcg+9rXYOX8+tHrxTUHz5vaDp6CT1eyq8fS+bXH04UNE5cKWyeThRvnUs+9Q+nleKtx5HmlOLWmVTx1heR5pLrt/382mtts+j1WfS3J5Prt+PXTqCfjymGlhn02okkei/+e6WwaSpZ2HgkUdg0nTA0TV3Jrzuc0G0ZvqqvHU3qaw/+N+eMnucc8V+xjthv+Kr+dlII9JKivBc58/OUENyoEuSnaauPQ99xNf6+KhTtVC7vl9NfHgA+LTilUotegrJ2/j2KCM9Tlo4IJQVGuPLoa3zF7v/UVe9/BxnkawUN4wsFDRPnkeEqhQ3jSnHLTNrgS7a+qGCnuJN13TnxZ0WPqSL02fOqRxL6+tHLeTUjC5w99hZrj55l7NEJFAF/giLbv6IoyDOC/+G1SLqGHRDFgBUrqLL21Yw5vJaRQkbaGqkizR0R2t41wtp7XkOp0tn8hrH3ipqnLxW3zSXShociQMk2bHQnkBG+mNYnjTM3dCr9uH77qfR3LGw6mkQXihRyriRr701oXAO/5Z2xPsrkm2QEbythkkXC7GF01aGViqL8UaZ5gVzCrSh38Vu6H8S1ir6y87taW1DDl0d/hGqQAY1rzy90NcNn9Q1j76P0agFfkXGahB0FO8z/NTBQJp1MoRQzZWg+qmgqBxW+vO88aQ2/RJh8JyiLfxtnDqOotfNha2jinkw3AEsRRupcoxaDBCnJFpSSdaDaZR7VK/MoFbuAUrGPpV/gMJ9PuP1w1MLtmVeLIpZz92XOGf+d2uQ9zUqBrbw1VEDZPZTK+yLUV3cyLq/3y5Qt+G3SJmuQw+xAHTmrqez7dV7NCyjCHEsWbzuZTstAt0c4YqHInipsmkxx5X0oDdzzO8LkjZKC54fqzbvW6CTfI5muA74oDFLnfeqyn32DlIL5pNX3A0pKDxW/wlcMfKCvOXg5HWlaZ6/VL6hDs3U06PYpPYiBUuX8utF0CshYw1OonuonUXqNL36ZbgVuF1pn799y5i4HY+mUWUf0JV31/vcKmiYvXS+KQXe+8LB8fv3hFHKoFCH65wmjJ8xZQzSey8p0M3ArwYMD7omJLxVXdzxO2zq+z9i7X0E593mUfyeKcaqGCt1sHQVaGipsnMS1lMJYIgpyqGnCKP8TqmW/WRqPf2xFBvAZoW3BJyhjQKIk3zBr63mVd/RdRenaVZwaQJqWW8L9qa8/pHAVfQlC8CVIQf4ZY+1+VGXy/lnGHIBPi6rU+wBfJn8H1TnPElLgIGXu/HVe9YFEegh668msHQDKHV2bBJ5FtdOAojZ63ka1U6dK9FZmzAP4Q9CbYl9V2wPf4s3hDaQYmEZXpDP6utGLeN4mW2ODcl94RQXviKVQZPq92rTrp3iSPGMuwCehnb6HcGFJS0E3Y+06o6s+cMHQfBTVOjBYADqt6OsOKYyjV0FRCUWnXe6M2QDX4Vzhv6HMoQrK0nGAdUQv5jeMJ4rbjqcXZoJA14UzEuxMhBhIqsraR0lR/uuMCS1vKFvwKULyPUebw6+w5TGlKL2KGUbbQDdWft1YijZ3LhJG+W1CkG0ZU1qeMKK8iRTkCdbW/a6mcghFn6WxChr0xQovjsVLjPjyPkVd5nkJpXjbluWGRFT/5JGCb4axRd7VbdmfKGk7rjyFGidbo4FA2WRoOaqwjpiiMnnPUkb/s/FP7PTNWeJx5W5ddewRWvT3Iwd6S1u1L1XUOpvCV5dsDQUC3UjpiNQ2m+Ic8aTK6DmLL8wql/fejKnlLpSx5+uM6G8gxcA7XHl/orBhAjkQTJqCPrvwlgyVUb6kErwn6Vxf2Kqzhu4prhxYTRh987TY8Z6+/lAKtiGAPq+KUR2trRpWCJPnHULy7diwIcejEWmWG0nR9zLr3J3AZwdkaxQQ6GaEB6MKGiYU2tx5VW1sn2Ic/jU5u8v2KWtoJSHK/06IwTPaqr0pGIkD3Qrh2qio7ZjCWruThFGeZ2yhUqml876M2eUOeCU2a/arSUHeRYrBhby6Qzl8TgHodgvX1bQtkiCFwJuk4G99zOl7KGN6uQW6SjyuNnn3IX1gaJ5CYRjWxIFujYrajqc4R2yRNPneZCR/66ZNsa9mzC63UG8MfIsyef+REn349JhUSdtc1gYBgW5KKJ0rqB9LMo7eRcLkO8OjdC5nnYis6/pjlNJVEIL/HOeMpg8czNooINBNCI/O4QMxKSn4vlrw/urvagZXWd2h3DxpKB6P382ag08TojxKmTuThqbJrI0CAt2MDC1HU7xrIEkJgUVK8D3HOnpW5fSuWHy4CC3IP1SXed7WVu2DwQXQ5xKeJsGpHGvrvaA2euf48g4V3tSZMbfcxO1W7vre9uEHSZNniLJ2JfJqDsCiU9BnEp6oL2icTPKuPYsqk/e3pOAvXSd2/WXG1HIfteDbSAjyfkoM4lNfsjYSCHRj/VwpaDqSYBzRRVIMnaMlXy1fHv5OxryWBxtc3ns5S2A9YZKHGVu3YmieTI/1Z28wEOgjQnZSiByIc8YWUTbzJmn2/YCzdDyeMa3lB7FZLlab2mdRRLqQV30g3UBZGw4EQkqncA3jCQ5FIMocnsEORFl74dwFfNMposwzpC7z/I8eORLMH4GyCU/O6+sOXWHtvedIc/AF0hxoLHW7s951cNlCCu1NpCCfIsVAIq/6hawNCVp+wtHH0Dyd0FQNJTh790laCv2Ys/k2wuGON2Ctw79qndFTQwjyG6yjNz2Ema1hQctDxa2zSX3t6BXOEfsvSgq2M/bAJkaIPJwxF+AP8aSx3aAyyl51WftbmopBfIcBmFNaJsIDTIXNU4qmat9l1tHzS1L0j1JSpxFlKI+xjsGvZUwE+LTQtsgThMm7kzZ3vM7aepP66oOZhobt5LmmotZjir5+LME6ohdYe/cYSu3jlOSp10jyNw2G5++D9O1zgM9loKztqwnjzgq1yXOatnYp+toRJb9+NGtngJaOSradVAwt0wld9QsLKGVbIC2hN2hRruPEEF1kC34jYwLArYRuiqVPSlUbPWFSCszzzrhiaJpMFePTgrJ0EujOVHHbHL4XLB5Ausg642cZc2cXJYTqIV27zTAm76O06KskjZ4Rxto5p3UN4tW8qIOOp0d0snUe6IsQvmn0SZSuTSt5NSNXdFV7zzD2nmlU68RVxoBpnTFAaSqW0XKdOxVebH+MFnycusy7hxDkAY1rYCFvy3CqpBWP7kH99EWoqGXmSkHDxEVt5dBFztl3mbV1nWIsXRHa7K/D2QQj7foLmOe5Q7FaJ+5RmwM6FJ2eQVe7IC11HNWU91/VuIYSBfVj1w7JxwMTMDhxC3QqHWXwOdn4nlE42qAaR0EXsN/wFX1zlDXyHOvotPGVXY+tFXbC0PRSRVcdX8lZ5MdpyS+qTfJPUCoxzjoi8/qa/Ze0VUOp4tbj6RQQhtBvTobmyasFTZMLqK55l3fufoO2hl9lbd37KHNou1rwlaGM4Em89cVqzdENcssZtzv+FVqKPaIWvOvXGds3EyZvD4pYx1G0GtW6BlD6sTeJN3rhY5iKWo5lNaDlIjwAUNQyvVjQMI4uOHvfYxy9lygxqKjKPEdUpvYORgrUkObg06zDvwor08TAcoW2dPwVytPXcPYwn76SGuX/YG09Yc4RO0PbIguaLcPn8utGk8i5EgWNY4mSbdcOWkFRbMkcQoknMj9Mv2bR8xPpOTdD09QVfd1oQrdlWOEr+hXK3HGJsXb/graFB2hr1y4UvU2MFGTVZTDsDNwk+MALLF1l72rG4tcSJr9ICXIFY43UIKebJYXABOfsHde4Bo6wjuhl1hm7rK89eK6wfnwxv37san7DeLJkK0oXW2dShpaZBIpsyfXbP3S44pbZ5LW7YXx4G82SthPoPchB8d99pG7Dxv/J7SLIGRJFrbPXbsWJnQKfW4HeU9g4hZx9/KKu+sBCfu3oor72UKqwcfz3+XWH3sirGXmdr9jzS9bR+xpOwQjR56fNgX9eW+Y1o+hi+W7ZjtVYmSYAgP8frs+e44lg7GT4btd0k++hgpo9f8qa/Qy52fMj5GBOSgrYUZ3wfZQyRmlzOMg5Y//GO6Mh2tz5OiUED7L2aFxXNRTRVg1MkpaOd1hL1zxrixxGqdMEV777ZbximbJ0fsCVx4/oKgeO8ZV7TmtdQ6+TlvC7tDXyKmPv2s87YmG+fPePOXssgqLGPvR/f6oWPLvUok/i7V2SpqKX1Ti6RUYKPYP+50bC6FczjugaPDqW/jIAsFTAW+PTd8XQ7bw/81IanEZiR3xC2PUg/lnnnrgfD4ZQZaHVT9oDf45fU7niD+iqQyvxUH566wgSfh2Df4fqka/dqIB3u913ZZ4CAAAAAAAAAAAAAAAAAAAAAAAAAAAAwJ3AihX/C27th3FV6LjcAAAAAElFTkSuQmCC;" vertex="1" parent="1">
          <mxGeometry x="647.97" y="246.76923076923077" width="52.96" height="17.230769230769234" as="geometry" />
        </mxCell>
        <mxCell id="zbF90gA1H5KHamxqbV0r-132" value="" style="shape=mxgraph.cisco.people.standing_man;html=1;pointerEvents=1;dashed=0;fillColor=#036897;strokeColor=#ffffff;strokeWidth=2;verticalLabelPosition=bottom;verticalAlign=top;align=center;outlineConnect=0;" vertex="1" parent="1">
          <mxGeometry x="664.03" y="213" width="22" height="42.47" as="geometry" />
        </mxCell>
        <mxCell id="zbF90gA1H5KHamxqbV0r-133" value="" style="group" vertex="1" connectable="0" parent="1">
          <mxGeometry x="629" y="221" width="60" height="58" as="geometry" />
        </mxCell>
        <mxCell id="zbF90gA1H5KHamxqbV0r-134" value="" style="shape=image;verticalLabelPosition=bottom;labelBackgroundColor=default;verticalAlign=top;aspect=fixed;imageAspect=0;image=data:image/png,iVBORw0KGgoAAAANSUhEUgAAANEAAABECAYAAAAfkdAfAAAAAXNSR0IArs4c6QAAAARnQU1BAACxjwv8YQUAAAAJcEhZcwAAFxEAABcRAcom8z8AAA5uSURBVHhe7Z0LbFvndce9pC3SJF2W7FHPWxe3SIsscdDY5H1fkqIkSnJqLIFnWeS9l2+JkvV+2l43lAjWoBiyzW3nWuTlS5QoiaQlS7LlWLYsyZIly7JTu2kSCGgadzGSNJuXNnHkp0jefR9NI4/RRZx4jkWdH/AHKUqEyO87555zvtddAQAAAAAAAAAAAAAAAAAAAAAAAAAAAABLgtLS+FcyTz8Ga/Svop2xhz76e13pzvsLXd4HSt2vfOw9G1x77y1VlLszP6bRuSe+lHkKAEsLbOi6htCfENb4SsYaepSqH/p6aXX8fmKzR0sb5c2kGHRQYrCBlfw23t5j4p1RO2UN2SjR106Y/IOk6B/hnLHD2or+Ht7VN0abw7tJMfAybYscZp3xEc7eK3OOaBdlCgxTkn+KdUb38ZX97Zw94qMEX4CQfOO0szvAO6J1tLWrTm2S/4US/M/y5d0q3tVVoBa869cJQUFnDa3EDkqgR/x5Mx8fAG4ftBhch4w/j7F2P0NbAptpKdDE2iJu3ta9Q+vqe15XNbRfWzU4w5f3z2tcg+9rXYOX8+tHrxTUHz5vaDp6CT1eyq8fS+bXH04UNE5cKWyeThRvnUs+9Q+nleKtx5HmlOLWmVTx1heR5pLrt/382mtts+j1WfS3J5Prt+PXTqCfjymGlhn02okkei/+e6WwaSpZ2HgkUdg0nTA0TV3Jrzuc0G0ZvqqvHU3qaw/+N+eMnucc8V+xjthv+Kr+dlII9JKivBc58/OUENyoEuSnaauPQ99xNf6+KhTtVC7vl9NfHgA+LTilUotegrJ2/j2KCM9Tlo4IJQVGuPLoa3zF7v/UVe9/BxnkawUN4wsFDRPnkeEqhQ3jSnHLTNrgS7a+qGCnuJN13TnxZ0WPqSL02fOqRxL6+tHLeTUjC5w99hZrj55l7NEJFAF/giLbv6IoyDOC/+G1SLqGHRDFgBUrqLL21Yw5vJaRQkbaGqkizR0R2t41wtp7XkOp0tn8hrH3ipqnLxW3zSXShociQMk2bHQnkBG+mNYnjTM3dCr9uH77qfR3LGw6mkQXihRyriRr701oXAO/5Z2xPsrkm2QEbythkkXC7GF01aGViqL8UaZ5gVzCrSh38Vu6H8S1ir6y87taW1DDl0d/hGqQAY1rzy90NcNn9Q1j76P0agFfkXGahB0FO8z/NTBQJp1MoRQzZWg+qmgqBxW+vO88aQ2/RJh8JyiLfxtnDqOotfNha2jinkw3AEsRRupcoxaDBCnJFpSSdaDaZR7VK/MoFbuAUrGPpV/gMJ9PuP1w1MLtmVeLIpZz92XOGf+d2uQ9zUqBrbw1VEDZPZTK+yLUV3cyLq/3y5Qt+G3SJmuQw+xAHTmrqez7dV7NCyjCHEsWbzuZTstAt0c4YqHInipsmkxx5X0oDdzzO8LkjZKC54fqzbvW6CTfI5muA74oDFLnfeqyn32DlIL5pNX3A0pKDxW/wlcMfKCvOXg5HWlaZ6/VL6hDs3U06PYpPYiBUuX8utF0CshYw1OonuonUXqNL36ZbgVuF1pn799y5i4HY+mUWUf0JV31/vcKmiYvXS+KQXe+8LB8fv3hFHKoFCH65wmjJ8xZQzSey8p0M3ArwYMD7omJLxVXdzxO2zq+z9i7X0E593mUfyeKcaqGCt1sHQVaGipsnMS1lMJYIgpyqGnCKP8TqmW/WRqPf2xFBvAZoW3BJyhjQKIk3zBr63mVd/RdRenaVZwaQJqWW8L9qa8/pHAVfQlC8CVIQf4ZY+1+VGXy/lnGHIBPi6rU+wBfJn8H1TnPElLgIGXu/HVe9YFEegh668msHQDKHV2bBJ5FtdOAojZ63ka1U6dK9FZmzAP4Q9CbYl9V2wPf4s3hDaQYmEZXpDP6utGLeN4mW2ODcl94RQXviKVQZPq92rTrp3iSPGMuwCehnb6HcGFJS0E3Y+06o6s+cMHQfBTVOjBYADqt6OsOKYyjV0FRCUWnXe6M2QDX4Vzhv6HMoQrK0nGAdUQv5jeMJ4rbjqcXZoJA14UzEuxMhBhIqsraR0lR/uuMCS1vKFvwKULyPUebw6+w5TGlKL2KGUbbQDdWft1YijZ3LhJG+W1CkG0ZU1qeMKK8iRTkCdbW/a6mcghFn6WxChr0xQovjsVLjPjyPkVd5nkJpXjbluWGRFT/5JGCb4axRd7VbdmfKGk7rjyFGidbo4FA2WRoOaqwjpiiMnnPUkb/s/FP7PTNWeJx5W5ddewRWvT3Iwd6S1u1L1XUOpvCV5dsDQUC3UjpiNQ2m+Ic8aTK6DmLL8wql/fejKnlLpSx5+uM6G8gxcA7XHl/orBhAjkQTJqCPrvwlgyVUb6kErwn6Vxf2Kqzhu4prhxYTRh987TY8Z6+/lAKtiGAPq+KUR2trRpWCJPnHULy7diwIcejEWmWG0nR9zLr3J3AZwdkaxQQ6GaEB6MKGiYU2tx5VW1sn2Ic/jU5u8v2KWtoJSHK/06IwTPaqr0pGIkD3Qrh2qio7ZjCWruThFGeZ2yhUqml876M2eUOeCU2a/arSUHeRYrBhby6Qzl8TgHodgvX1bQtkiCFwJuk4G99zOl7KGN6uQW6SjyuNnn3IX1gaJ5CYRjWxIFujYrajqc4R2yRNPneZCR/66ZNsa9mzC63UG8MfIsyef+REn349JhUSdtc1gYBgW5KKJ0rqB9LMo7eRcLkO8OjdC5nnYis6/pjlNJVEIL/HOeMpg8czNooINBNCI/O4QMxKSn4vlrw/urvagZXWd2h3DxpKB6P382ag08TojxKmTuThqbJrI0CAt2MDC1HU7xrIEkJgUVK8D3HOnpW5fSuWHy4CC3IP1SXed7WVu2DwQXQ5xKeJsGpHGvrvaA2euf48g4V3tSZMbfcxO1W7vre9uEHSZNniLJ2JfJqDsCiU9BnEp6oL2icTPKuPYsqk/e3pOAvXSd2/WXG1HIfteDbSAjyfkoM4lNfsjYSCHRj/VwpaDqSYBzRRVIMnaMlXy1fHv5OxryWBxtc3ns5S2A9YZKHGVu3YmieTI/1Z28wEOgjQnZSiByIc8YWUTbzJmn2/YCzdDyeMa3lB7FZLlab2mdRRLqQV30g3UBZGw4EQkqncA3jCQ5FIMocnsEORFl74dwFfNMposwzpC7z/I8eORLMH4GyCU/O6+sOXWHtvedIc/AF0hxoLHW7s951cNlCCu1NpCCfIsVAIq/6hawNCVp+wtHH0Dyd0FQNJTh790laCv2Ys/k2wuGON2Ctw79qndFTQwjyG6yjNz2Ema1hQctDxa2zSX3t6BXOEfsvSgq2M/bAJkaIPJwxF+AP8aSx3aAyyl51WftbmopBfIcBmFNaJsIDTIXNU4qmat9l1tHzS1L0j1JSpxFlKI+xjsGvZUwE+LTQtsgThMm7kzZ3vM7aepP66oOZhobt5LmmotZjir5+LME6ohdYe/cYSu3jlOSp10jyNw2G5++D9O1zgM9loKztqwnjzgq1yXOatnYp+toRJb9+NGtngJaOSradVAwt0wld9QsLKGVbIC2hN2hRruPEEF1kC34jYwLArYRuiqVPSlUbPWFSCszzzrhiaJpMFePTgrJ0EujOVHHbHL4XLB5Ausg642cZc2cXJYTqIV27zTAm76O06KskjZ4Rxto5p3UN4tW8qIOOp0d0snUe6IsQvmn0SZSuTSt5NSNXdFV7zzD2nmlU68RVxoBpnTFAaSqW0XKdOxVebH+MFnycusy7hxDkAY1rYCFvy3CqpBWP7kH99EWoqGXmSkHDxEVt5dBFztl3mbV1nWIsXRHa7K/D2QQj7foLmOe5Q7FaJ+5RmwM6FJ2eQVe7IC11HNWU91/VuIYSBfVj1w7JxwMTMDhxC3QqHWXwOdn4nlE42qAaR0EXsN/wFX1zlDXyHOvotPGVXY+tFXbC0PRSRVcdX8lZ5MdpyS+qTfJPUCoxzjoi8/qa/Ze0VUOp4tbj6RQQhtBvTobmyasFTZMLqK55l3fufoO2hl9lbd37KHNou1rwlaGM4Em89cVqzdENcssZtzv+FVqKPaIWvOvXGds3EyZvD4pYx1G0GtW6BlD6sTeJN3rhY5iKWo5lNaDlIjwAUNQyvVjQMI4uOHvfYxy9lygxqKjKPEdUpvYORgrUkObg06zDvwor08TAcoW2dPwVytPXcPYwn76SGuX/YG09Yc4RO0PbIguaLcPn8utGk8i5EgWNY4mSbdcOWkFRbMkcQoknMj9Mv2bR8xPpOTdD09QVfd1oQrdlWOEr+hXK3HGJsXb/graFB2hr1y4UvU2MFGTVZTDsDNwk+MALLF1l72rG4tcSJr9ICXIFY43UIKebJYXABOfsHde4Bo6wjuhl1hm7rK89eK6wfnwxv37san7DeLJkK0oXW2dShpaZBIpsyfXbP3S44pbZ5LW7YXx4G82SthPoPchB8d99pG7Dxv/J7SLIGRJFrbPXbsWJnQKfW4HeU9g4hZx9/KKu+sBCfu3oor72UKqwcfz3+XWH3sirGXmdr9jzS9bR+xpOwQjR56fNgX9eW+Y1o+hi+W7ZjtVYmSYAgP8frs+e44lg7GT4btd0k++hgpo9f8qa/Qy52fMj5GBOSgrYUZ3wfZQyRmlzOMg5Y//GO6Mh2tz5OiUED7L2aFxXNRTRVg1MkpaOd1hL1zxrixxGqdMEV777ZbximbJ0fsCVx4/oKgeO8ZV7TmtdQ6+TlvC7tDXyKmPv2s87YmG+fPePOXssgqLGPvR/f6oWPLvUok/i7V2SpqKX1Ti6RUYKPYP+50bC6FczjugaPDqW/jIAsFTAW+PTd8XQ7bw/81IanEZiR3xC2PUg/lnnnrgfD4ZQZaHVT9oDf45fU7niD+iqQyvxUH566wgSfh2Df4fqka/dqIB3u913ZZ4CAAAAAAAAAAAAAAAAAAAAAAAAAAAAwJ3AihX/C27th3FV6LjcAAAAAElFTkSuQmCC;" vertex="1" parent="zbF90gA1H5KHamxqbV0r-133">
          <mxGeometry y="37.179487179487175" width="51.22682572948573" height="16.666873349123875" as="geometry" />
        </mxCell>
        <mxCell id="zbF90gA1H5KHamxqbV0r-135" value="" style="shape=mxgraph.cisco.people.standing_woman;html=1;pointerEvents=1;dashed=0;fillColor=#036897;strokeColor=#ffffff;strokeWidth=2;verticalLabelPosition=bottom;verticalAlign=top;align=center;outlineConnect=0;" vertex="1" parent="zbF90gA1H5KHamxqbV0r-133">
          <mxGeometry x="18.46183630906743" width="15.338136184057634" height="46.1025641025641" as="geometry" />
        </mxCell>
        <mxCell id="zbF90gA1H5KHamxqbV0r-136" value="" style="shape=image;verticalLabelPosition=bottom;labelBackgroundColor=default;verticalAlign=top;aspect=fixed;imageAspect=0;image=data:image/png,iVBORw0KGgoAAAANSUhEUgAAANEAAABECAYAAAAfkdAfAAAAAXNSR0IArs4c6QAAAARnQU1BAACxjwv8YQUAAAAJcEhZcwAAFxEAABcRAcom8z8AAA5uSURBVHhe7Z0LbFvndce9pC3SJF2W7FHPWxe3SIsscdDY5H1fkqIkSnJqLIFnWeS9l2+JkvV+2l43lAjWoBiyzW3nWuTlS5QoiaQlS7LlWLYsyZIly7JTu2kSCGgadzGSNJuXNnHkp0jefR9NI4/RRZx4jkWdH/AHKUqEyO87555zvtddAQAAAAAAAAAAAAAAAAAAAAAAAAAAAABLgtLS+FcyTz8Ga/Svop2xhz76e13pzvsLXd4HSt2vfOw9G1x77y1VlLszP6bRuSe+lHkKAEsLbOi6htCfENb4SsYaepSqH/p6aXX8fmKzR0sb5c2kGHRQYrCBlfw23t5j4p1RO2UN2SjR106Y/IOk6B/hnLHD2or+Ht7VN0abw7tJMfAybYscZp3xEc7eK3OOaBdlCgxTkn+KdUb38ZX97Zw94qMEX4CQfOO0szvAO6J1tLWrTm2S/4US/M/y5d0q3tVVoBa869cJQUFnDa3EDkqgR/x5Mx8fAG4ftBhch4w/j7F2P0NbAptpKdDE2iJu3ta9Q+vqe15XNbRfWzU4w5f3z2tcg+9rXYOX8+tHrxTUHz5vaDp6CT1eyq8fS+bXH04UNE5cKWyeThRvnUs+9Q+nleKtx5HmlOLWmVTx1heR5pLrt/382mtts+j1WfS3J5Prt+PXTqCfjymGlhn02okkei/+e6WwaSpZ2HgkUdg0nTA0TV3Jrzuc0G0ZvqqvHU3qaw/+N+eMnucc8V+xjthv+Kr+dlII9JKivBc58/OUENyoEuSnaauPQ99xNf6+KhTtVC7vl9NfHgA+LTilUotegrJ2/j2KCM9Tlo4IJQVGuPLoa3zF7v/UVe9/BxnkawUN4wsFDRPnkeEqhQ3jSnHLTNrgS7a+qGCnuJN13TnxZ0WPqSL02fOqRxL6+tHLeTUjC5w99hZrj55l7NEJFAF/giLbv6IoyDOC/+G1SLqGHRDFgBUrqLL21Yw5vJaRQkbaGqkizR0R2t41wtp7XkOp0tn8hrH3ipqnLxW3zSXShociQMk2bHQnkBG+mNYnjTM3dCr9uH77qfR3LGw6mkQXihRyriRr701oXAO/5Z2xPsrkm2QEbythkkXC7GF01aGViqL8UaZ5gVzCrSh38Vu6H8S1ir6y87taW1DDl0d/hGqQAY1rzy90NcNn9Q1j76P0agFfkXGahB0FO8z/NTBQJp1MoRQzZWg+qmgqBxW+vO88aQ2/RJh8JyiLfxtnDqOotfNha2jinkw3AEsRRupcoxaDBCnJFpSSdaDaZR7VK/MoFbuAUrGPpV/gMJ9PuP1w1MLtmVeLIpZz92XOGf+d2uQ9zUqBrbw1VEDZPZTK+yLUV3cyLq/3y5Qt+G3SJmuQw+xAHTmrqez7dV7NCyjCHEsWbzuZTstAt0c4YqHInipsmkxx5X0oDdzzO8LkjZKC54fqzbvW6CTfI5muA74oDFLnfeqyn32DlIL5pNX3A0pKDxW/wlcMfKCvOXg5HWlaZ6/VL6hDs3U06PYpPYiBUuX8utF0CshYw1OonuonUXqNL36ZbgVuF1pn799y5i4HY+mUWUf0JV31/vcKmiYvXS+KQXe+8LB8fv3hFHKoFCH65wmjJ8xZQzSey8p0M3ArwYMD7omJLxVXdzxO2zq+z9i7X0E593mUfyeKcaqGCt1sHQVaGipsnMS1lMJYIgpyqGnCKP8TqmW/WRqPf2xFBvAZoW3BJyhjQKIk3zBr63mVd/RdRenaVZwaQJqWW8L9qa8/pHAVfQlC8CVIQf4ZY+1+VGXy/lnGHIBPi6rU+wBfJn8H1TnPElLgIGXu/HVe9YFEegh668msHQDKHV2bBJ5FtdOAojZ63ka1U6dK9FZmzAP4Q9CbYl9V2wPf4s3hDaQYmEZXpDP6utGLeN4mW2ODcl94RQXviKVQZPq92rTrp3iSPGMuwCehnb6HcGFJS0E3Y+06o6s+cMHQfBTVOjBYADqt6OsOKYyjV0FRCUWnXe6M2QDX4Vzhv6HMoQrK0nGAdUQv5jeMJ4rbjqcXZoJA14UzEuxMhBhIqsraR0lR/uuMCS1vKFvwKULyPUebw6+w5TGlKL2KGUbbQDdWft1YijZ3LhJG+W1CkG0ZU1qeMKK8iRTkCdbW/a6mcghFn6WxChr0xQovjsVLjPjyPkVd5nkJpXjbluWGRFT/5JGCb4axRd7VbdmfKGk7rjyFGidbo4FA2WRoOaqwjpiiMnnPUkb/s/FP7PTNWeJx5W5ddewRWvT3Iwd6S1u1L1XUOpvCV5dsDQUC3UjpiNQ2m+Ic8aTK6DmLL8wql/fejKnlLpSx5+uM6G8gxcA7XHl/orBhAjkQTJqCPrvwlgyVUb6kErwn6Vxf2Kqzhu4prhxYTRh987TY8Z6+/lAKtiGAPq+KUR2trRpWCJPnHULy7diwIcejEWmWG0nR9zLr3J3AZwdkaxQQ6GaEB6MKGiYU2tx5VW1sn2Ic/jU5u8v2KWtoJSHK/06IwTPaqr0pGIkD3Qrh2qio7ZjCWruThFGeZ2yhUqml876M2eUOeCU2a/arSUHeRYrBhby6Qzl8TgHodgvX1bQtkiCFwJuk4G99zOl7KGN6uQW6SjyuNnn3IX1gaJ5CYRjWxIFujYrajqc4R2yRNPneZCR/66ZNsa9mzC63UG8MfIsyef+REn349JhUSdtc1gYBgW5KKJ0rqB9LMo7eRcLkO8OjdC5nnYis6/pjlNJVEIL/HOeMpg8czNooINBNCI/O4QMxKSn4vlrw/urvagZXWd2h3DxpKB6P382ag08TojxKmTuThqbJrI0CAt2MDC1HU7xrIEkJgUVK8D3HOnpW5fSuWHy4CC3IP1SXed7WVu2DwQXQ5xKeJsGpHGvrvaA2euf48g4V3tSZMbfcxO1W7vre9uEHSZNniLJ2JfJqDsCiU9BnEp6oL2icTPKuPYsqk/e3pOAvXSd2/WXG1HIfteDbSAjyfkoM4lNfsjYSCHRj/VwpaDqSYBzRRVIMnaMlXy1fHv5OxryWBxtc3ns5S2A9YZKHGVu3YmieTI/1Z28wEOgjQnZSiByIc8YWUTbzJmn2/YCzdDyeMa3lB7FZLlab2mdRRLqQV30g3UBZGw4EQkqncA3jCQ5FIMocnsEORFl74dwFfNMposwzpC7z/I8eORLMH4GyCU/O6+sOXWHtvedIc/AF0hxoLHW7s951cNlCCu1NpCCfIsVAIq/6hawNCVp+wtHH0Dyd0FQNJTh790laCv2Ys/k2wuGON2Ctw79qndFTQwjyG6yjNz2Ema1hQctDxa2zSX3t6BXOEfsvSgq2M/bAJkaIPJwxF+AP8aSx3aAyyl51WftbmopBfIcBmFNaJsIDTIXNU4qmat9l1tHzS1L0j1JSpxFlKI+xjsGvZUwE+LTQtsgThMm7kzZ3vM7aepP66oOZhobt5LmmotZjir5+LME6ohdYe/cYSu3jlOSp10jyNw2G5++D9O1zgM9loKztqwnjzgq1yXOatnYp+toRJb9+NGtngJaOSradVAwt0wld9QsLKGVbIC2hN2hRruPEEF1kC34jYwLArYRuiqVPSlUbPWFSCszzzrhiaJpMFePTgrJ0EujOVHHbHL4XLB5Ausg642cZc2cXJYTqIV27zTAm76O06KskjZ4Rxto5p3UN4tW8qIOOp0d0snUe6IsQvmn0SZSuTSt5NSNXdFV7zzD2nmlU68RVxoBpnTFAaSqW0XKdOxVebH+MFnycusy7hxDkAY1rYCFvy3CqpBWP7kH99EWoqGXmSkHDxEVt5dBFztl3mbV1nWIsXRHa7K/D2QQj7foLmOe5Q7FaJ+5RmwM6FJ2eQVe7IC11HNWU91/VuIYSBfVj1w7JxwMTMDhxC3QqHWXwOdn4nlE42qAaR0EXsN/wFX1zlDXyHOvotPGVXY+tFXbC0PRSRVcdX8lZ5MdpyS+qTfJPUCoxzjoi8/qa/Ze0VUOp4tbj6RQQhtBvTobmyasFTZMLqK55l3fufoO2hl9lbd37KHNou1rwlaGM4Em89cVqzdENcssZtzv+FVqKPaIWvOvXGds3EyZvD4pYx1G0GtW6BlD6sTeJN3rhY5iKWo5lNaDlIjwAUNQyvVjQMI4uOHvfYxy9lygxqKjKPEdUpvYORgrUkObg06zDvwor08TAcoW2dPwVytPXcPYwn76SGuX/YG09Yc4RO0PbIguaLcPn8utGk8i5EgWNY4mSbdcOWkFRbMkcQoknMj9Mv2bR8xPpOTdD09QVfd1oQrdlWOEr+hXK3HGJsXb/graFB2hr1y4UvU2MFGTVZTDsDNwk+MALLF1l72rG4tcSJr9ICXIFY43UIKebJYXABOfsHde4Bo6wjuhl1hm7rK89eK6wfnwxv37san7DeLJkK0oXW2dShpaZBIpsyfXbP3S44pbZ5LW7YXx4G82SthPoPchB8d99pG7Dxv/J7SLIGRJFrbPXbsWJnQKfW4HeU9g4hZx9/KKu+sBCfu3oor72UKqwcfz3+XWH3sirGXmdr9jzS9bR+xpOwQjR56fNgX9eW+Y1o+hi+W7ZjtVYmSYAgP8frs+e44lg7GT4btd0k++hgpo9f8qa/Qy52fMj5GBOSgrYUZ3wfZQyRmlzOMg5Y//GO6Mh2tz5OiUED7L2aFxXNRTRVg1MkpaOd1hL1zxrixxGqdMEV777ZbximbJ0fsCVx4/oKgeO8ZV7TmtdQ6+TlvC7tDXyKmPv2s87YmG+fPePOXssgqLGPvR/f6oWPLvUok/i7V2SpqKX1Ti6RUYKPYP+50bC6FczjugaPDqW/jIAsFTAW+PTd8XQ7bw/81IanEZiR3xC2PUg/lnnnrgfD4ZQZaHVT9oDf45fU7niD+iqQyvxUH566wgSfh2Df4fqka/dqIB3u913ZZ4CAAAAAAAAAAAAAAAAAAAAAAAAAAAAwJ3AihX/C27th3FV6LjcAAAAAElFTkSuQmCC;" vertex="1" parent="1">
          <mxGeometry x="657.97" y="256.7692307692308" width="52.96" height="17.230769230769234" as="geometry" />
        </mxCell>
        <mxCell id="zbF90gA1H5KHamxqbV0r-137" value="" style="shape=mxgraph.cisco.people.standing_man;html=1;pointerEvents=1;dashed=0;fillColor=#036897;strokeColor=#ffffff;strokeWidth=2;verticalLabelPosition=bottom;verticalAlign=top;align=center;outlineConnect=0;" vertex="1" parent="1">
          <mxGeometry x="674.03" y="223" width="22" height="42.47" as="geometry" />
        </mxCell>
        <UserObject label="&lt;font style=&quot;font-size: 8px;&quot;&gt;Airline and Travel Domain Experience &amp;gt;30 Yrs&lt;/font&gt;" placeholders="1" name="Variable" id="zbF90gA1H5KHamxqbV0r-142">
          <mxCell style="text;html=1;strokeColor=none;fillColor=none;align=center;verticalAlign=middle;whiteSpace=wrap;overflow=hidden;" vertex="1" parent="1">
            <mxGeometry x="392" y="106" width="80" height="44" as="geometry" />
          </mxCell>
        </UserObject>
        <UserObject label="&lt;font style=&quot;font-size: 8px;&quot;&gt;QA and Automation Pool&lt;/font&gt;" placeholders="1" name="Variable" id="zbF90gA1H5KHamxqbV0r-145">
          <mxCell style="text;html=1;strokeColor=none;fillColor=none;align=center;verticalAlign=middle;whiteSpace=wrap;overflow=hidden;" vertex="1" parent="1">
            <mxGeometry x="353" y="278" width="80" height="34" as="geometry" />
          </mxCell>
        </UserObject>
        <UserObject label="&lt;font style=&quot;font-size: 8px;&quot;&gt;Developers Pool&lt;/font&gt;" placeholders="1" name="Variable" id="zbF90gA1H5KHamxqbV0r-146">
          <mxCell style="text;html=1;strokeColor=none;fillColor=none;align=center;verticalAlign=middle;whiteSpace=wrap;overflow=hidden;" vertex="1" parent="1">
            <mxGeometry x="626" y="278" width="80" height="34" as="geometry" />
          </mxCell>
        </UserObject>
        <mxCell id="zbF90gA1H5KHamxqbV0r-164" value="&lt;font style=&quot;font-size: 8px;&quot;&gt;ODS&lt;/font&gt;" style="ellipse;whiteSpace=wrap;html=1;aspect=fixed;fillColor=#fff2cc;gradientColor=#ffd966;strokeColor=#FFE599;" vertex="1" parent="1">
          <mxGeometry x="507" y="187" width="36" height="36" as="geometry" />
        </mxCell>
        <mxCell id="zbF90gA1H5KHamxqbV0r-165" value="&lt;font style=&quot;font-size: 8px;&quot;&gt;Digital API&lt;/font&gt;" style="ellipse;whiteSpace=wrap;html=1;aspect=fixed;fillColor=#d5e8d4;gradientColor=#97d077;strokeColor=#9AD479;" vertex="1" parent="1">
          <mxGeometry x="478" y="205" width="36" height="36" as="geometry" />
        </mxCell>
        <mxCell id="zbF90gA1H5KHamxqbV0r-166" value="&lt;font style=&quot;font-size: 8px;&quot;&gt;OTA API&lt;/font&gt;" style="ellipse;whiteSpace=wrap;html=1;aspect=fixed;fillColor=#d0cee2;strokeColor=#D4D4EB;" vertex="1" parent="1">
          <mxGeometry x="545.03" y="203" width="40" height="40" as="geometry" />
        </mxCell>
        <mxCell id="zbF90gA1H5KHamxqbV0r-167" value="&lt;span style=&quot;font-size: 8px;&quot;&gt;Automation&lt;/span&gt;" style="ellipse;whiteSpace=wrap;html=1;aspect=fixed;fillColor=#fad9d5;strokeColor=#F5C4DD;" vertex="1" parent="1">
          <mxGeometry x="459" y="241" width="49" height="49" as="geometry" />
        </mxCell>
        <mxCell id="zbF90gA1H5KHamxqbV0r-168" value="&lt;span style=&quot;font-size: 8px;&quot;&gt;Special Projects&lt;/span&gt;" style="ellipse;whiteSpace=wrap;html=1;aspect=fixed;fillColor=#dae8fc;strokeColor=#99CCFF;gradientColor=#7ea6e0;" vertex="1" parent="1">
          <mxGeometry x="506.96999999999997" y="223.49999999999997" width="49" height="49" as="geometry" />
        </mxCell>
        <mxCell id="zbF90gA1H5KHamxqbV0r-169" value="&lt;span style=&quot;font-size: 8px;&quot;&gt;Solutions&lt;/span&gt;" style="ellipse;whiteSpace=wrap;html=1;aspect=fixed;fillColor=#cce5ff;strokeColor=#99CCFF;" vertex="1" parent="1">
          <mxGeometry x="503" y="271" width="49" height="49" as="geometry" />
        </mxCell>
      </root>
    </mxGraphModel>
  </diagram>
</mxfile>
